<?xml version='1.0' encoding='UTF-8' standalone='no'?>
<svg baseProfile="tiny" height="8.46667mm" version="1.2" viewBox="0 0 80 80" width="8.46667mm" xmlns="http://www.w3.org/2000/svg" xmlns:xlink="http://www.w3.org/1999/xlink">
    <style id="current-color-scheme" type="text/css">.ColorScheme-Text {color:#00ae49;}</style>
    <title>Qt SVG Document</title>
    <desc>Auto-generated by Klassy window decoration</desc>
    <defs/>
    <g fill="none" fill-rule="evenodd" stroke="black" stroke-linecap="square" stroke-linejoin="bevel" stroke-width="1">
        <g fill="#00ae49" fill-opacity="0.900008" font-family="Noto Sans" font-size="33.3333" font-style="normal" font-weight="400" stroke="none" transform="matrix(4.44444,0,0,4.44444,0,0)">
            <path d="M4.04955,4.50113 C4.04955,4.31392 4.31392,4.04955 4.50113,4.04955 L13.4989,4.04955 C13.6861,4.04955 13.9505,4.31392 13.9505,4.50113 L13.9505,13.4989 C13.9505,13.6861 13.6861,13.9505 13.4989,13.9505 L4.50113,13.9505 C4.31392,13.9505 4.04955,13.6861 4.04955,13.4989 L4.04955,4.50113 M4.95045,4.50113 L4.95045,13.4989 C4.95045,13.3129 4.68709,13.0495 4.50113,13.0495 L13.4989,13.0495 C13.3129,13.0495 13.0495,13.3129 13.0495,13.4989 L13.0495,4.50113 C13.0495,4.68709 13.3129,4.95045 13.4989,4.95045 L4.50113,4.95045 C4.68709,4.95045 4.95045,4.68709 4.95045,4.50113 " fill-rule="nonzero" vector-effect="none"/>
        </g>
    </g>
</svg>
