<?xml version='1.0' encoding='UTF-8' standalone='no'?>
<svg baseProfile="tiny" height="8.46667mm" version="1.2" viewBox="0 0 80 80" width="8.46667mm" xmlns="http://www.w3.org/2000/svg" xmlns:xlink="http://www.w3.org/1999/xlink">
    <style id="current-color-scheme" type="text/css">.ColorScheme-Text {color:#00ae49;}</style>
    <title>Qt SVG Document</title>
    <desc>Auto-generated by Klassy window decoration</desc>
    <defs/>
    <g fill="none" fill-rule="evenodd" stroke="black" stroke-linecap="square" stroke-linejoin="bevel" stroke-width="1">
        <g fill="#00ae49" fill-opacity="0.900008" font-family="Noto Sans" font-size="33.3333" font-style="normal" font-weight="400" stroke="none" transform="matrix(4.44444,0,0,4.44444,20,29)">
            <path d="M0,-0.45045 L7.2,-0.45045 L7.65045,0 L7.65045,7.2 L7.2,7.65045 L0,7.65045 L-0.45045,7.2 L-0.45045,0 L0,-0.45045 M0.45045,0 L0.45045,7.2 L0,7.2 L0,6.74955 L7.2,6.74955 L7.2,7.2 L6.74955,7.2 L6.74955,0 L7.2,0 L7.2,0.45045 L0,0.45045 L0,0 L0.45045,0" fill-rule="nonzero" vector-effect="none"/>
        </g>
        <g fill="#00ae49" fill-opacity="0.900008" font-family="Noto Sans" font-size="33.3333" font-style="normal" font-weight="400" stroke="none" transform="matrix(4.44444,0,0,4.44444,20,29)">
            <path d="M1.57455,-0.45045 L1.57455,-2.025 L2.025,-2.47545 L9.225,-2.47545 L9.67545,-2.025 L9.67545,5.175 L9.225,5.62545 L7.65045,5.62545 L7.65045,4.72455 L9.225,4.72455 L9.225,5.175 L8.77455,5.175 L8.77455,-2.025 L9.225,-2.025 L9.225,-1.57455 L2.025,-1.57455 L2.025,-2.025 L2.47545,-2.025 L2.47545,-0.45045 L1.57455,-0.45045" fill-rule="nonzero" vector-effect="none"/>
        </g>
    </g>
</svg>
