<?xml version='1.0' encoding='UTF-8' standalone='no'?>
<svg baseProfile="tiny" height="8.46667mm" version="1.2" viewBox="0 0 80 80" width="8.46667mm" xmlns="http://www.w3.org/2000/svg" xmlns:xlink="http://www.w3.org/1999/xlink">
    <style id="current-color-scheme" type="text/css">.ColorScheme-Text {color:#e93d58;}</style>
    <title>Qt SVG Document</title>
    <desc>Auto-generated by Klassy window decoration</desc>
    <defs/>
    <g fill="none" fill-rule="evenodd" stroke="black" stroke-linecap="square" stroke-linejoin="bevel" stroke-width="1">
        <g class="ColorScheme-Text" fill="currentColor" fill-opacity="1" font-family="Noto Sans" font-size="33.3333" font-style="normal" font-weight="400" stroke="none" transform="matrix(4.44444,0,0,4.44444,0,0)">
            <path d="M4.5,12.1496 L8.55,12.1496 C8.79878,12.1496 9.00045,12.3512 9.00045,12.6 C9.00045,12.8488 8.79878,13.0505 8.55,13.0505 L4.5,13.0505 C4.25122,13.0505 4.04955,12.8488 4.04955,12.6 C4.04955,12.3512 4.25122,12.1496 4.5,12.1496 " fill-rule="nonzero" vector-effect="none"/>
            <path d="M4.5,8.09955 L8.55,8.09955 C8.79878,8.09955 9.00045,8.30122 9.00045,8.55 C9.00045,8.79878 8.79878,9.00045 8.55,9.00045 L4.5,9.00045 C4.25122,9.00045 4.04955,8.79878 4.04955,8.55 C4.04955,8.30122 4.25122,8.09955 4.5,8.09955 " fill-rule="nonzero" vector-effect="none"/>
            <path d="M4.5,4.04955 L13.5,4.04955 C13.7488,4.04955 13.9505,4.25122 13.9505,4.5 C13.9505,4.74878 13.7488,4.95045 13.5,4.95045 L4.5,4.95045 C4.25122,4.95045 4.04955,4.74878 4.04955,4.5 C4.04955,4.25122 4.25122,4.04955 4.5,4.04955 " fill-rule="nonzero" vector-effect="none"/>
            <path d="M13.9505,6.525 L13.9505,14.4 C13.9505,14.6488 13.7488,14.8504 13.5,14.8504 C13.2512,14.8504 13.0495,14.6488 13.0495,14.4 L13.0495,6.525 C13.0495,6.27622 13.2512,6.07455 13.5,6.07455 C13.7488,6.07455 13.9505,6.27622 13.9505,6.525 " fill-rule="nonzero" vector-effect="none"/>
            <path d="M11.1565,8.23148 L13.1815,6.20648 L13.5,5.88797 L13.8185,6.20648 L15.8435,8.23148 C16.0194,8.4074 16.0194,8.6926 15.8435,8.86852 C15.6676,9.04443 15.3824,9.04443 15.2065,8.86852 L13.1815,6.84352 L13.5,6.525 L13.8185,6.84352 L11.7935,8.86852 C11.6176,9.04443 11.3324,9.04443 11.1565,8.86852 C10.9806,8.6926 10.9806,8.4074 11.1565,8.23148 " fill-rule="nonzero" vector-effect="none"/>
        </g>
    </g>
</svg>
