<?xml version='1.0' encoding='UTF-8' standalone='no'?>
<svg baseProfile="tiny" height="8.46667mm" version="1.2" viewBox="0 0 80 80" width="8.46667mm" xmlns="http://www.w3.org/2000/svg" xmlns:xlink="http://www.w3.org/1999/xlink">
    <style id="current-color-scheme" type="text/css">.ColorScheme-Text {color:#da0016;}</style>
    <title>Qt SVG Document</title>
    <desc>Auto-generated by Klassy window decoration</desc>
    <defs/>
    <g fill="none" fill-rule="evenodd" stroke="black" stroke-linecap="square" stroke-linejoin="bevel" stroke-width="1">
        <g fill="#da0016" fill-opacity="1" font-family="Noto Sans" font-size="33.3333" font-style="normal" font-weight="400" stroke="none" transform="matrix(4.44444,0,0,4.44444,0,0)">
            <path d="M4.81852,4.18148 L13.8185,13.1815 C13.9944,13.3574 13.9944,13.6426 13.8185,13.8185 C13.6426,13.9944 13.3574,13.9944 13.1815,13.8185 L4.18148,4.81852 C4.00557,4.6426 4.00557,4.3574 4.18148,4.18148 C4.3574,4.00557 4.6426,4.00557 4.81852,4.18148 " fill-rule="nonzero" vector-effect="none"/>
            <path d="M13.8185,4.81852 L4.81852,13.8185 C4.6426,13.9944 4.3574,13.9944 4.18148,13.8185 C4.00557,13.6426 4.00557,13.3574 4.18148,13.1815 L13.1815,4.18148 C13.3574,4.00557 13.6426,4.00557 13.8185,4.18148 C13.9944,4.3574 13.9944,4.6426 13.8185,4.81852 " fill-rule="nonzero" vector-effect="none"/>
        </g>
    </g>
</svg>
