<?xml version='1.0' encoding='UTF-8' standalone='no'?>
<svg baseProfile="tiny" height="5.29167mm" version="1.2" viewBox="0 0 35 35" width="5.29167mm" xmlns="http://www.w3.org/2000/svg" xmlns:xlink="http://www.w3.org/1999/xlink">
    <style id="current-color-scheme" type="text/css">.ColorScheme-Text {color:#00ae49;}</style>
    <title>Qt SVG Document</title>
    <desc>Auto-generated by Klassy window decoration</desc>
    <defs/>
    <g fill="none" fill-rule="evenodd" stroke="black" stroke-linecap="square" stroke-linejoin="bevel" stroke-width="1">
        <g fill="#00ae49" fill-opacity="0.900008" font-family="Noto Sans" font-size="23.3333" font-style="normal" font-weight="400" stroke="none" transform="matrix(1.94444,0,0,1.94444,0,0)">
            <path d="M4.11377,4.62973 C4.11377,4.41585 4.41585,4.11377 4.62973,4.11377 L13.8846,4.11377 C14.0267,4.11377 14.1486,4.16461 14.2492,4.26513 C14.3497,4.36565 14.4005,4.48757 14.4005,4.62973 L14.4005,13.8846 C14.4005,14.0267 14.3497,14.1486 14.2492,14.2492 C14.1486,14.3497 14.0267,14.4005 13.8846,14.4005 L4.62973,14.4005 C4.48757,14.4005 4.36565,14.3497 4.26513,14.2492 C4.16461,14.1486 4.11377,14.0267 4.11377,13.8846 L4.11377,4.62973 M5.14337,4.62973 L5.14337,13.8846 C5.14337,13.7424 5.09369,13.6216 4.99317,13.5211 C4.89265,13.4206 4.77189,13.3709 4.62973,13.3709 L13.8846,13.3709 C13.7424,13.3709 13.6216,13.4206 13.5211,13.5211 C13.4206,13.6216 13.3709,13.7424 13.3709,13.8846 L13.3709,4.62973 C13.3709,4.77189 13.4206,4.89265 13.5211,4.99317 C13.6216,5.09369 13.7424,5.14337 13.8846,5.14337 L4.62973,5.14337 C4.84233,5.14337 5.14337,4.84233 5.14337,4.62973 " fill-rule="nonzero" vector-effect="none"/>
        </g>
    </g>
</svg>
