<?xml version='1.0' encoding='UTF-8' standalone='no'?>
<svg baseProfile="tiny" height="5.29167mm" version="1.2" viewBox="0 0 35 35" width="5.29167mm" xmlns="http://www.w3.org/2000/svg" xmlns:xlink="http://www.w3.org/1999/xlink">
    <style id="current-color-scheme" type="text/css">.ColorScheme-Text {color:#e93d58;}</style>
    <title>Qt SVG Document</title>
    <desc>Auto-generated by Klassy window decoration</desc>
    <defs/>
    <g fill="none" fill-rule="evenodd" stroke="black" stroke-linecap="square" stroke-linejoin="bevel" stroke-width="1">
        <g class="ColorScheme-Text" fill="currentColor" fill-opacity="1" font-family="Noto Sans" font-size="23.3333" font-style="normal" font-weight="400" stroke="none" transform="matrix(1.94444,0,0,1.94444,0,0)">
            <path d="M4.11429,4.11377 L13.8857,4.11377 C14.17,4.11377 14.4005,4.34426 14.4005,4.62857 C14.4005,4.91289 14.17,5.14337 13.8857,5.14337 L4.11429,5.14337 C3.82997,5.14337 3.59949,4.91289 3.59949,4.62857 C3.59949,4.34426 3.82997,4.11377 4.11429,4.11377 " fill-rule="nonzero" vector-effect="none"/>
            <path d="M4.36402,7.63598 L9.36402,12.636 L9,13 L8.63598,12.636 L13.636,7.63598 C13.837,7.43494 14.163,7.43494 14.364,7.63598 C14.5651,7.83702 14.5651,8.16298 14.364,8.36402 L9.36402,13.364 L9,13.728 L8.63598,13.364 L3.63598,8.36402 C3.43494,8.16298 3.43494,7.83702 3.63598,7.63598 C3.83702,7.43494 4.16298,7.43494 4.36402,7.63598 " fill-rule="nonzero" vector-effect="none"/>
        </g>
    </g>
</svg>
