<?xml version='1.0' encoding='UTF-8' standalone='no'?>
<svg baseProfile="tiny" height="5.82083mm" version="1.2" viewBox="0 0 44 44" width="5.82083mm" xmlns="http://www.w3.org/2000/svg" xmlns:xlink="http://www.w3.org/1999/xlink">
    <style id="current-color-scheme" type="text/css">.ColorScheme-Text {color:#e93d58;}</style>
    <title>Qt SVG Document</title>
    <desc>Auto-generated by Klassy window decoration</desc>
    <defs/>
    <g fill="none" fill-rule="evenodd" stroke="black" stroke-linecap="square" stroke-linejoin="bevel" stroke-width="1">
        <g class="ColorScheme-Text" fill="currentColor" fill-opacity="1" font-family="Noto Sans" font-size="26.6667" font-style="normal" font-weight="400" stroke="none" transform="matrix(2.44444,0,0,2.44444,0,0)">
            <path d="M4.09091,4.0905 L13.9091,4.0905 C14.1353,4.0905 14.3186,4.27384 14.3186,4.5 C14.3186,4.72616 14.1353,4.9095 13.9091,4.9095 L4.09091,4.9095 C3.86475,4.9095 3.68141,4.72616 3.68141,4.5 C3.68141,4.27384 3.86475,4.0905 4.09091,4.0905 " fill-rule="nonzero" vector-effect="none"/>
            <path d="M4.28956,7.71044 L9.28956,12.7104 L9,13 L8.71044,12.7104 L13.7104,7.71044 C13.8704,7.55052 14.1296,7.55052 14.2896,7.71044 C14.4495,7.87036 14.4495,8.12964 14.2896,8.28956 L9.28956,13.2896 L9,13.5791 L8.71044,13.2896 L3.71044,8.28956 C3.55052,8.12964 3.55052,7.87036 3.71044,7.71044 C3.87036,7.55052 4.12964,7.55052 4.28956,7.71044 " fill-rule="nonzero" vector-effect="none"/>
        </g>
    </g>
</svg>
