<?xml version='1.0' encoding='UTF-8' standalone='no'?>
<svg baseProfile="tiny" height="5.82083mm" version="1.2" viewBox="0 0 44 44" width="5.82083mm" xmlns="http://www.w3.org/2000/svg" xmlns:xlink="http://www.w3.org/1999/xlink">
    <style id="current-color-scheme" type="text/css">.ColorScheme-Text {color:#e93d58;}</style>
    <title>Qt SVG Document</title>
    <desc>Auto-generated by Klassy window decoration</desc>
    <defs/>
    <g fill="none" fill-rule="evenodd" stroke="black" stroke-linecap="square" stroke-linejoin="bevel" stroke-width="1">
        <g class="ColorScheme-Text" fill="currentColor" fill-opacity="1" font-family="Noto Sans" font-size="26.6667" font-style="normal" font-weight="400" stroke="none" transform="matrix(2.44444,0,0,2.44444,0,0)">
            <path d="M4.5,12.2723 L8.59091,12.2723 C8.81707,12.2723 9.00041,12.4557 9.00041,12.6818 C9.00041,12.908 8.81707,13.0913 8.59091,13.0913 L4.5,13.0913 C4.27384,13.0913 4.0905,12.908 4.0905,12.6818 C4.0905,12.4557 4.27384,12.2723 4.5,12.2723 " fill-rule="nonzero" vector-effect="none"/>
            <path d="M4.5,8.18141 L8.59091,8.18141 C8.81707,8.18141 9.00041,8.36475 9.00041,8.59091 C9.00041,8.81707 8.81707,9.00041 8.59091,9.00041 L4.5,9.00041 C4.27384,9.00041 4.0905,8.81707 4.0905,8.59091 C4.0905,8.36475 4.27384,8.18141 4.5,8.18141 " fill-rule="nonzero" vector-effect="none"/>
            <path d="M4.5,4.0905 L13.5,4.0905 C13.7262,4.0905 13.9095,4.27384 13.9095,4.5 C13.9095,4.72616 13.7262,4.9095 13.5,4.9095 L4.5,4.9095 C4.27384,4.9095 4.0905,4.72616 4.0905,4.5 C4.0905,4.27384 4.27384,4.0905 4.5,4.0905 " fill-rule="nonzero" vector-effect="none"/>
            <path d="M13.9095,6.54545 L13.9095,14.3182 C13.9095,14.5443 13.7262,14.7277 13.5,14.7277 C13.2738,14.7277 13.0905,14.5443 13.0905,14.3182 L13.0905,6.54545 C13.0905,6.31929 13.2738,6.13595 13.5,6.13595 C13.7262,6.13595 13.9095,6.31929 13.9095,6.54545 " fill-rule="nonzero" vector-effect="none"/>
            <path d="M11.165,8.30135 L13.2104,6.25589 L13.5,5.96633 L13.7896,6.25589 L15.835,8.30135 C15.9949,8.46127 15.9949,8.72055 15.835,8.88047 C15.6751,9.04039 15.4158,9.04039 15.2559,8.88047 L13.2104,6.83501 L13.5,6.54545 L13.7896,6.83501 L11.7441,8.88047 C11.5842,9.04039 11.3249,9.04039 11.165,8.88047 C11.0051,8.72055 11.0051,8.46127 11.165,8.30135 " fill-rule="nonzero" vector-effect="none"/>
        </g>
    </g>
</svg>
