<?xml version='1.0' encoding='UTF-8' standalone='no'?>
<svg baseProfile="tiny" height="5.29167mm" version="1.2" viewBox="0 0 35 35" width="5.29167mm" xmlns="http://www.w3.org/2000/svg" xmlns:xlink="http://www.w3.org/1999/xlink">
    <style id="current-color-scheme" type="text/css">.ColorScheme-Text {color:#00ae49;}</style>
    <title>Qt SVG Document</title>
    <desc>Auto-generated by Klassy window decoration</desc>
    <defs/>
    <g fill="none" fill-rule="evenodd" stroke="black" stroke-linecap="square" stroke-linejoin="bevel" stroke-width="1">
        <g fill="#00ae49" fill-opacity="0.900008" font-family="Noto Sans" font-size="23.3333" font-style="normal" font-weight="400" stroke="none" transform="matrix(1.94444,0,0,1.94444,9,13)">
            <path d="M0,-0.5148 L7.2,-0.5148 L7.7148,0 L7.7148,7.2 L7.2,7.7148 L0,7.7148 L-0.5148,7.2 L-0.5148,0 L0,-0.5148 M0.5148,0 L0.5148,7.2 L0,7.2 L0,6.6852 L7.2,6.6852 L7.2,7.2 L6.6852,7.2 L6.6852,0 L7.2,0 L7.2,0.5148 L0,0.5148 L0,0 L0.5148,0" fill-rule="nonzero" vector-effect="none"/>
        </g>
        <g fill="#00ae49" fill-opacity="0.900008" font-family="Noto Sans" font-size="23.3333" font-style="normal" font-weight="400" stroke="none" transform="matrix(1.94444,0,0,1.94444,9,13)">
            <path d="M1.54234,-0.5148 L1.54234,-2.05714 L2.05714,-2.57194 L9.25714,-2.57194 L9.77194,-2.05714 L9.77194,5.14286 L9.25714,5.65766 L7.7148,5.65766 L7.7148,4.62806 L9.25714,4.62806 L9.25714,5.14286 L8.74234,5.14286 L8.74234,-2.05714 L9.25714,-2.05714 L9.25714,-1.54234 L2.05714,-1.54234 L2.05714,-2.05714 L2.57194,-2.05714 L2.57194,-0.5148 L1.54234,-0.5148" fill-rule="nonzero" vector-effect="none"/>
        </g>
    </g>
</svg>
