<?xml version='1.0' encoding='UTF-8' standalone='no'?>
<svg baseProfile="tiny" height="5.29167mm" version="1.2" viewBox="0 0 35 35" width="5.29167mm" xmlns="http://www.w3.org/2000/svg" xmlns:xlink="http://www.w3.org/1999/xlink">
    <style id="current-color-scheme" type="text/css">.ColorScheme-Text {color:#da0016;}</style>
    <title>Qt SVG Document</title>
    <desc>Auto-generated by Klassy window decoration</desc>
    <defs/>
    <g fill="none" fill-rule="evenodd" stroke="black" stroke-linecap="square" stroke-linejoin="bevel" stroke-width="1">
        <g fill="#da0016" fill-opacity="1" font-family="Noto Sans" font-size="23.3333" font-style="normal" font-weight="400" stroke="none" transform="matrix(1.94444,0,0,1.94444,0,0)">
            <path d="M4.99259,4.26455 L14.2497,13.5217 C14.4508,13.7227 14.4508,14.0487 14.2497,14.2497 C14.0487,14.4508 13.7227,14.4508 13.5217,14.2497 L4.26455,4.99259 C4.06351,4.79155 4.06351,4.46559 4.26455,4.26455 C4.46559,4.06351 4.79155,4.06351 4.99259,4.26455 " fill-rule="nonzero" vector-effect="none"/>
            <path d="M14.2497,4.99259 L4.99259,14.2497 C4.79155,14.4508 4.46559,14.4508 4.26455,14.2497 C4.06351,14.0487 4.06351,13.7227 4.26455,13.5217 L13.5217,4.26455 C13.7227,4.06351 14.0487,4.06351 14.2497,4.26455 C14.4508,4.46559 14.4508,4.79155 14.2497,4.99259 " fill-rule="nonzero" vector-effect="none"/>
        </g>
    </g>
</svg>
