<?xml version='1.0' encoding='UTF-8' standalone='no'?>
<svg baseProfile="tiny" height="4.23333mm" version="1.2" viewBox="0 0 28 28" width="4.23333mm" xmlns="http://www.w3.org/2000/svg" xmlns:xlink="http://www.w3.org/1999/xlink">
    <style id="current-color-scheme" type="text/css">.ColorScheme-Text {color:#00ae49;}</style>
    <title>Qt SVG Document</title>
    <desc>Auto-generated by Klassy window decoration</desc>
    <defs/>
    <g fill="none" fill-rule="evenodd" stroke="black" stroke-linecap="square" stroke-linejoin="bevel" stroke-width="1">
        <g fill="#00ae49" fill-opacity="0.900008" font-family="Noto Sans" font-size="23.3333" font-style="normal" font-weight="400" stroke="none" transform="matrix(1.55556,0,0,1.55556,7,11)">
            <path d="M0,-0.6435 L7.07143,-0.6435 L7.71493,0 L7.71493,7.07143 L7.07143,7.71493 L0,7.71493 L-0.6435,7.07143 L-0.6435,0 L0,-0.6435 M0.6435,0 L0.6435,7.07143 L0,7.07143 L0,6.42793 L7.07143,6.42793 L7.07143,7.07143 L6.42793,7.07143 L6.42793,0 L7.07143,0 L7.07143,0.6435 L0,0.6435 L0,0 L0.6435,0" fill-rule="nonzero" vector-effect="none"/>
        </g>
        <g fill="#00ae49" fill-opacity="0.900008" font-family="Noto Sans" font-size="23.3333" font-style="normal" font-weight="400" stroke="none" transform="matrix(1.55556,0,0,1.55556,7,11)">
            <path d="M1.92793,-0.6435 L1.92793,-2.57143 L2.57143,-3.21493 L9.64286,-3.21493 L10.2864,-2.57143 L10.2864,4.5 L9.64286,5.1435 L7.71493,5.1435 L7.71493,3.8565 L9.64286,3.8565 L9.64286,4.5 L8.99936,4.5 L8.99936,-2.57143 L9.64286,-2.57143 L9.64286,-1.92793 L2.57143,-1.92793 L2.57143,-2.57143 L3.21493,-2.57143 L3.21493,-0.6435 L1.92793,-0.6435" fill-rule="nonzero" vector-effect="none"/>
        </g>
    </g>
</svg>
