<?xml version='1.0' encoding='UTF-8' standalone='no'?>
<svg baseProfile="tiny" height="6.35mm" version="1.2" viewBox="0 0 66 66" width="6.35mm" xmlns="http://www.w3.org/2000/svg" xmlns:xlink="http://www.w3.org/1999/xlink">
    <style id="current-color-scheme" type="text/css">.ColorScheme-Text {color:#da0016;}</style>
    <title>Qt SVG Document</title>
    <desc>Auto-generated by Klassy window decoration</desc>
    <defs/>
    <g fill="none" fill-rule="evenodd" stroke="black" stroke-linecap="square" stroke-linejoin="bevel" stroke-width="1">
        <g fill="#da0016" fill-opacity="0.719997" font-family="Noto Sans" font-size="36.6667" font-style="normal" font-weight="400" stroke="none" transform="matrix(4.125,0,0,4.125,0,0)">
            <path d="M2,3.2 C2,2.53726 2.53726,2 3.2,2 L12.8,2 C13.4627,2 14,2.53726 14,3.2 L14,12.8 C14,13.4627 13.4627,14 12.8,14 L3.2,14 C2.53726,14 2,13.4627 2,12.8 L2,3.2" fill-rule="evenodd" vector-effect="none"/>
        </g>
        <g fill="#31363b" fill-opacity="1" font-family="Noto Sans" font-size="36.6667" font-style="normal" font-weight="400" stroke="none" transform="matrix(3.66667,0,0,3.66667,0,0)">
            <path d="M4.74972,3.97756 L14.0224,13.2503 C14.2357,13.4635 14.2357,13.8092 14.0224,14.0224 C13.8092,14.2357 13.4635,14.2357 13.2503,14.0224 L3.97756,4.74972 C3.76433,4.53649 3.76433,4.19078 3.97756,3.97756 C4.19078,3.76433 4.53649,3.76433 4.74972,3.97756 " fill-rule="nonzero" vector-effect="none"/>
            <path d="M14.0224,4.74972 L4.74972,14.0224 C4.53649,14.2357 4.19078,14.2357 3.97756,14.0224 C3.76433,13.8092 3.76433,13.4635 3.97756,13.2503 L13.2503,3.97756 C13.4635,3.76433 13.8092,3.76433 14.0224,3.97756 C14.2357,4.19078 14.2357,4.53649 14.0224,4.74972 " fill-rule="nonzero" vector-effect="none"/>
        </g>
    </g>
</svg>
