<?xml version='1.0' encoding='UTF-8' standalone='no'?>
<svg baseProfile="tiny" height="6.35mm" version="1.2" viewBox="0 0 66 66" width="6.35mm" xmlns="http://www.w3.org/2000/svg" xmlns:xlink="http://www.w3.org/1999/xlink">
    <style id="current-color-scheme" type="text/css">.ColorScheme-Text {color:#e93d58;}</style>
    <title>Qt SVG Document</title>
    <desc>Auto-generated by Klassy window decoration</desc>
    <defs/>
    <g fill="none" fill-rule="evenodd" stroke="black" stroke-linecap="square" stroke-linejoin="bevel" stroke-width="1">
        <g class="ColorScheme-Text" fill="currentColor" fill-opacity="1" font-family="Noto Sans" font-size="36.6667" font-style="normal" font-weight="400" stroke="none" transform="matrix(3.66667,0,0,3.66667,0,0)">
            <path d="M4.09091,4.09036 L13.9091,4.09036 C14.2106,4.09036 14.4551,4.33482 14.4551,4.63636 C14.4551,4.93791 14.2106,5.18236 13.9091,5.18236 L4.09091,5.18236 C3.78936,5.18236 3.54491,4.93791 3.54491,4.63636 C3.54491,4.33482 3.78936,4.09036 4.09091,4.09036 " fill-rule="nonzero" vector-effect="none"/>
            <path d="M4.38608,7.61392 L9.38608,12.6139 L9,13 L8.61392,12.6139 L13.6139,7.61392 C13.8271,7.40069 14.1729,7.40069 14.3861,7.61392 C14.5993,7.82715 14.5993,8.17285 14.3861,8.38608 L9.38608,13.3861 L9,13.7722 L8.61392,13.3861 L3.61392,8.38608 C3.40069,8.17285 3.40069,7.82715 3.61392,7.61392 C3.82715,7.40069 4.17285,7.40069 4.38608,7.61392 " fill-rule="nonzero" vector-effect="none"/>
        </g>
    </g>
</svg>
