<?xml version='1.0' encoding='UTF-8' standalone='no'?>
<svg baseProfile="tiny" height="5.29167mm" version="1.2" viewBox="0 0 25 25" width="5.29167mm" xmlns="http://www.w3.org/2000/svg" xmlns:xlink="http://www.w3.org/1999/xlink">
    <style id="current-color-scheme" type="text/css">.ColorScheme-Text {color:#00ae49;}</style>
    <title>Qt SVG Document</title>
    <desc>Auto-generated by Klassy window decoration</desc>
    <defs/>
    <g fill="none" fill-rule="evenodd" stroke="black" stroke-linecap="square" stroke-linejoin="bevel" stroke-width="1">
        <g fill="#00ae49" fill-opacity="0.900008" font-family="Noto Sans" font-size="16.6667" font-style="normal" font-weight="400" stroke="none" transform="matrix(1.38889,0,0,1.38889,6.5,9.5)">
            <path d="M0,-0.36036 L7.2,-0.36036 L7.56036,0 L7.56036,7.2 L7.2,7.56036 L0,7.56036 L-0.36036,7.2 L-0.36036,0 L0,-0.36036 M0.36036,0 L0.36036,7.2 L0,7.2 L0,6.83964 L7.2,6.83964 L7.2,7.2 L6.83964,7.2 L6.83964,0 L7.2,0 L7.2,0.36036 L0,0.36036 L0,0 L0.36036,0" fill-rule="nonzero" vector-effect="none"/>
        </g>
        <g fill="#00ae49" fill-opacity="0.900008" font-family="Noto Sans" font-size="16.6667" font-style="normal" font-weight="400" stroke="none" transform="matrix(1.38889,0,0,1.38889,6.5,9.5)">
            <path d="M1.79964,-0.36036 L1.79964,-2.16 L2.16,-2.52036 L9.36,-2.52036 L9.72036,-2.16 L9.72036,5.04 L9.36,5.40036 L7.56036,5.40036 L7.56036,4.67964 L9.36,4.67964 L9.36,5.04 L8.99964,5.04 L8.99964,-2.16 L9.36,-2.16 L9.36,-1.79964 L2.16,-1.79964 L2.16,-2.16 L2.52036,-2.16 L2.52036,-0.36036 L1.79964,-0.36036" fill-rule="nonzero" vector-effect="none"/>
        </g>
    </g>
</svg>
