<?xml version='1.0' encoding='UTF-8' standalone='no'?>
<svg baseProfile="tiny" height="5.29167mm" version="1.2" viewBox="0 0 25 25" width="5.29167mm" xmlns="http://www.w3.org/2000/svg" xmlns:xlink="http://www.w3.org/1999/xlink">
    <style id="current-color-scheme" type="text/css">.ColorScheme-Text {color:#e93d58;}</style>
    <title>Qt SVG Document</title>
    <desc>Auto-generated by Klassy window decoration</desc>
    <defs/>
    <g fill="none" fill-rule="evenodd" stroke="black" stroke-linecap="square" stroke-linejoin="bevel" stroke-width="1">
        <g class="ColorScheme-Text" fill="currentColor" fill-opacity="1" font-family="Noto Sans" font-size="16.6667" font-style="normal" font-weight="400" stroke="none" transform="matrix(1.38889,0,0,1.38889,0,0)">
            <path d="M4.68,14.3996 L13.32,14.3996 C13.519,14.3996 13.6804,14.561 13.6804,14.76 C13.6804,14.959 13.519,15.1204 13.32,15.1204 L4.68,15.1204 C4.48098,15.1204 4.31964,14.959 4.31964,14.76 C4.31964,14.561 4.48098,14.3996 4.68,14.3996 " fill-rule="nonzero" vector-effect="none"/>
            <path d="M9.72,10.0796 L13.32,10.0796 C13.519,10.0796 13.6804,10.241 13.6804,10.44 C13.6804,10.639 13.519,10.8004 13.32,10.8004 L9.72,10.8004 C9.52098,10.8004 9.35964,10.639 9.35964,10.44 C9.35964,10.241 9.52098,10.0796 9.72,10.0796 " fill-rule="nonzero" vector-effect="none"/>
            <path d="M9.72,5.75964 L13.32,5.75964 C13.519,5.75964 13.6804,5.92098 13.6804,6.12 C13.6804,6.31902 13.519,6.48036 13.32,6.48036 L9.72,6.48036 C9.52098,6.48036 9.35964,6.31902 9.35964,6.12 C9.35964,5.92098 9.52098,5.75964 9.72,5.75964 " fill-rule="nonzero" vector-effect="none"/>
            <path d="M5.04036,4.68 L5.04036,12.6 C5.04036,12.799 4.87902,12.9604 4.68,12.9604 C4.48098,12.9604 4.31964,12.799 4.31964,12.6 L4.31964,4.68 C4.31964,4.48098 4.48098,4.31964 4.68,4.31964 C4.87902,4.31964 5.04036,4.48098 5.04036,4.68 " fill-rule="nonzero" vector-effect="none"/>
            <path d="M2.77481,10.1852 L4.93481,12.3452 L4.68,12.6 L4.42519,12.3452 L6.58519,10.1852 C6.72592,10.0445 6.95408,10.0445 7.09481,10.1852 C7.23554,10.3259 7.23554,10.5541 7.09481,10.6948 L4.93481,12.8548 L4.68,13.1096 L4.42519,12.8548 L2.26519,10.6948 C2.12446,10.5541 2.12446,10.3259 2.26519,10.1852 C2.40592,10.0445 2.63408,10.0445 2.77481,10.1852 " fill-rule="nonzero" vector-effect="none"/>
        </g>
    </g>
</svg>
