<?xml version='1.0' encoding='UTF-8' standalone='no'?>
<svg baseProfile="tiny" height="5.29167mm" version="1.2" viewBox="0 0 25 25" width="5.29167mm" xmlns="http://www.w3.org/2000/svg" xmlns:xlink="http://www.w3.org/1999/xlink">
    <style id="current-color-scheme" type="text/css">.ColorScheme-Text {color:#e93d58;}</style>
    <title>Qt SVG Document</title>
    <desc>Auto-generated by Klassy window decoration</desc>
    <defs/>
    <g fill="none" fill-rule="evenodd" stroke="black" stroke-linecap="square" stroke-linejoin="bevel" stroke-width="1">
        <g class="ColorScheme-Text" fill="currentColor" fill-opacity="1" font-family="Noto Sans" font-size="16.6667" font-style="normal" font-weight="400" stroke="none" transform="matrix(1.38889,0,0,1.38889,0,0)">
            <path d="M4.32,4.31964 L13.68,4.31964 C13.879,4.31964 14.0404,4.48098 14.0404,4.68 C14.0404,4.87902 13.879,5.04036 13.68,5.04036 L4.32,5.04036 C4.12098,5.04036 3.95964,4.87902 3.95964,4.68 C3.95964,4.48098 4.12098,4.31964 4.32,4.31964 " fill-rule="nonzero" vector-effect="none"/>
            <path d="M4.25481,7.74519 L9.25481,12.7452 L9,13 L8.74519,12.7452 L13.7452,7.74519 C13.8859,7.60446 14.1141,7.60446 14.2548,7.74519 C14.3955,7.88592 14.3955,8.11408 14.2548,8.25481 L9.25481,13.2548 L9,13.5096 L8.74519,13.2548 L3.74519,8.25481 C3.60446,8.11408 3.60446,7.88592 3.74519,7.74519 C3.88592,7.60446 4.11408,7.60446 4.25481,7.74519 " fill-rule="nonzero" vector-effect="none"/>
        </g>
    </g>
</svg>
