<?xml version='1.0' encoding='UTF-8' standalone='no'?>
<svg baseProfile="tiny" height="4.23333mm" version="1.2" viewBox="0 0 40 40" width="4.23333mm" xmlns="http://www.w3.org/2000/svg" xmlns:xlink="http://www.w3.org/1999/xlink">
    <style id="current-color-scheme" type="text/css">.ColorScheme-Text {color:#e93d58;}</style>
    <title>Qt SVG Document</title>
    <desc>Auto-generated by Klassy window decoration</desc>
    <defs/>
    <g fill="none" fill-rule="evenodd" stroke="black" stroke-linecap="square" stroke-linejoin="bevel" stroke-width="1">
        <g class="ColorScheme-Text" fill="currentColor" fill-opacity="1" font-family="Noto Sans" font-size="33.3333" font-style="normal" font-weight="400" stroke="none" transform="matrix(2.22222,0,0,2.22222,0,0)">
            <path d="M4.5,13.9495 L13.5,13.9495 C13.7488,13.9495 13.9505,14.1512 13.9505,14.4 C13.9505,14.6488 13.7488,14.8504 13.5,14.8504 L4.5,14.8504 C4.25122,14.8504 4.04955,14.6488 4.04955,14.4 C4.04955,14.1512 4.25122,13.9495 4.5,13.9495 " fill-rule="nonzero" vector-effect="none"/>
            <path d="M9.45,9.89955 L13.5,9.89955 C13.7488,9.89955 13.9505,10.1012 13.9505,10.35 C13.9505,10.5988 13.7488,10.8004 13.5,10.8004 L9.45,10.8004 C9.20122,10.8004 8.99955,10.5988 8.99955,10.35 C8.99955,10.1012 9.20122,9.89955 9.45,9.89955 " fill-rule="nonzero" vector-effect="none"/>
            <path d="M9.45,5.84955 L13.5,5.84955 C13.7488,5.84955 13.9505,6.05122 13.9505,6.3 C13.9505,6.54878 13.7488,6.75045 13.5,6.75045 L9.45,6.75045 C9.20122,6.75045 8.99955,6.54878 8.99955,6.3 C8.99955,6.05122 9.20122,5.84955 9.45,5.84955 " fill-rule="nonzero" vector-effect="none"/>
            <path d="M4.95045,4.5 L4.95045,12.6 C4.95045,12.8488 4.74878,13.0504 4.5,13.0504 C4.25122,13.0504 4.04955,12.8488 4.04955,12.6 L4.04955,4.5 C4.04955,4.25122 4.25122,4.04955 4.5,4.04955 C4.74878,4.04955 4.95045,4.25122 4.95045,4.5 " fill-rule="nonzero" vector-effect="none"/>
            <path d="M3.05174,10.0686 L4.85174,12.3186 L4.5,12.6 L4.14826,12.3186 L5.94826,10.0686 C6.10367,9.87434 6.38713,9.84285 6.58139,9.99826 C6.77566,10.1537 6.80715,10.4371 6.65174,10.6314 L4.85174,12.8814 L4.5,13.3211 L4.14826,12.8814 L2.34826,10.6314 C2.19285,10.4371 2.22434,10.1537 2.41861,9.99826 C2.61287,9.84285 2.89633,9.87434 3.05174,10.0686 " fill-rule="nonzero" vector-effect="none"/>
        </g>
    </g>
</svg>
