<?xml version='1.0' encoding='UTF-8' standalone='no'?>
<svg baseProfile="tiny" height="4.86833mm" version="1.2" viewBox="0 0 23 23" width="4.86833mm" xmlns="http://www.w3.org/2000/svg" xmlns:xlink="http://www.w3.org/1999/xlink">
    <style id="current-color-scheme" type="text/css">.ColorScheme-Text {color:#da0016;}</style>
    <title>Qt SVG Document</title>
    <desc>Auto-generated by Klassy window decoration</desc>
    <defs/>
    <g fill="none" fill-rule="evenodd" stroke="black" stroke-linecap="square" stroke-linejoin="bevel" stroke-width="1">
        <g fill="#da0016" fill-opacity="0.719997" font-family="Noto Sans" font-size="16.6667" font-style="normal" font-weight="400" stroke="none" transform="matrix(1.4375,0,0,1.4375,0,0)">
            <path d="M2,3.2 C2,2.53726 2.53726,2 3.2,2 L12.8,2 C13.4627,2 14,2.53726 14,3.2 L14,12.8 C14,13.4627 13.4627,14 12.8,14 L3.2,14 C2.53726,14 2,13.4627 2,12.8 L2,3.2" fill-rule="evenodd" vector-effect="none"/>
        </g>
        <g fill="#dee0e2" fill-opacity="1" font-family="Noto Sans" font-size="16.6667" font-style="normal" font-weight="400" stroke="none" transform="matrix(1.27778,0,0,1.27778,0,0)">
            <path d="M4.58132,4.02738 L14.7552,14.2013 C14.9082,14.3543 14.9082,14.6023 14.7552,14.7552 C14.6023,14.9082 14.3543,14.9082 14.2013,14.7552 L4.02738,4.58132 C3.87441,4.42835 3.87441,4.18034 4.02738,4.02738 C4.18034,3.87441 4.42835,3.87441 4.58132,4.02738 " fill-rule="nonzero" vector-effect="none"/>
            <path d="M14.7552,4.58132 L4.58132,14.7552 C4.42835,14.9082 4.18034,14.9082 4.02738,14.7552 C3.87441,14.6023 3.87441,14.3543 4.02738,14.2013 L14.2013,4.02738 C14.3543,3.87441 14.6023,3.87441 14.7552,4.02738 C14.9082,4.18034 14.9082,4.42835 14.7552,4.58132 " fill-rule="nonzero" vector-effect="none"/>
        </g>
    </g>
</svg>
