<?xml version='1.0' encoding='UTF-8' standalone='no'?>
<svg baseProfile="tiny" height="4.86833mm" version="1.2" viewBox="0 0 23 23" width="4.86833mm" xmlns="http://www.w3.org/2000/svg" xmlns:xlink="http://www.w3.org/1999/xlink">
    <style id="current-color-scheme" type="text/css">.ColorScheme-Text {color:#e93d58;}</style>
    <title>Qt SVG Document</title>
    <desc>Auto-generated by Klassy window decoration</desc>
    <defs/>
    <g fill="none" fill-rule="evenodd" stroke="black" stroke-linecap="square" stroke-linejoin="bevel" stroke-width="1">
        <g class="ColorScheme-Text" fill="currentColor" fill-opacity="1" font-family="Noto Sans" font-size="16.6667" font-style="normal" font-weight="400" stroke="none" transform="matrix(1.27778,0,0,1.27778,0,0)">
            <path d="M4.30435,14.0866 L13.6957,14.0866 L13.6957,14.87 L4.30435,14.87 L4.30435,14.0866" fill-rule="nonzero" vector-effect="none"/>
            <path d="M9.78261,10.1735 L13.6957,10.1735 L13.6957,10.9569 L9.78261,10.9569 L9.78261,10.1735" fill-rule="nonzero" vector-effect="none"/>
            <path d="M9.78261,6.26048 L13.6957,6.26048 L13.6957,7.04387 L9.78261,7.04387 L9.78261,6.26048" fill-rule="nonzero" vector-effect="none"/>
            <path d="M4.69604,4.30435 L4.69604,12.1304 L3.91265,12.1304 L3.91265,4.30435 L4.69604,4.30435" fill-rule="nonzero" vector-effect="none"/>
            <path d="M2.6248,9.89694 L4.58132,11.8535 L4.30435,12.1304 L4.02738,11.8535 L5.9839,9.89694 L6.53784,10.4509 L4.58132,12.4074 L4.30435,12.6844 L4.02738,12.4074 L2.07086,10.4509 L2.6248,9.89694" fill-rule="nonzero" vector-effect="none"/>
        </g>
    </g>
</svg>
