<?xml version='1.0' encoding='UTF-8' standalone='no'?>
<svg baseProfile="tiny" height="4.86833mm" version="1.2" viewBox="0 0 23 23" width="4.86833mm" xmlns="http://www.w3.org/2000/svg" xmlns:xlink="http://www.w3.org/1999/xlink">
    <style id="current-color-scheme" type="text/css">.ColorScheme-Text {color:#00ae49;}</style>
    <title>Qt SVG Document</title>
    <desc>Auto-generated by Klassy window decoration</desc>
    <defs/>
    <g fill="none" fill-rule="evenodd" stroke="black" stroke-linecap="square" stroke-linejoin="bevel" stroke-width="1">
        <g fill="#00ae49" fill-opacity="0.900008" font-family="Noto Sans" font-size="16.6667" font-style="normal" font-weight="400" stroke="none" transform="matrix(1.27778,0,0,1.27778,0,0)">
            <path d="M3.91265,4.30562 C3.91265,4.14267 4.14267,3.91265 4.30562,3.91265 L14.477,3.91265 C14.5852,3.91265 14.6781,3.95153 14.7546,4.02801 C14.8311,4.1045 14.87,4.19746 14.87,4.30562 L14.87,14.477 C14.87,14.5852 14.8311,14.6781 14.7546,14.7546 C14.6781,14.8311 14.5852,14.87 14.477,14.87 L4.30562,14.87 C4.19746,14.87 4.1045,14.8311 4.02801,14.7546 C3.95153,14.6781 3.91265,14.5852 3.91265,14.477 L3.91265,4.30562 M4.69604,4.30562 L4.69604,14.477 C4.69604,14.3688 4.65844,14.2771 4.58195,14.2007 C4.50547,14.1242 4.41378,14.0866 4.30562,14.0866 L14.477,14.0866 C14.3688,14.0866 14.2771,14.1242 14.2007,14.2007 C14.1242,14.2771 14.0866,14.3688 14.0866,14.477 L14.0866,4.30562 C14.0866,4.41378 14.1242,4.50547 14.2007,4.58195 C14.2771,4.65844 14.3688,4.69604 14.477,4.69604 L4.30562,4.69604 C4.46716,4.69604 4.69604,4.46716 4.69604,4.30562 " fill-rule="nonzero" vector-effect="none"/>
        </g>
    </g>
</svg>
