<?xml version='1.0' encoding='UTF-8' standalone='no'?>
<svg baseProfile="tiny" height="4.86833mm" version="1.2" viewBox="0 0 23 23" width="4.86833mm" xmlns="http://www.w3.org/2000/svg" xmlns:xlink="http://www.w3.org/1999/xlink">
    <style id="current-color-scheme" type="text/css">.ColorScheme-Text {color:#00ae49;}</style>
    <title>Qt SVG Document</title>
    <desc>Auto-generated by Klassy window decoration</desc>
    <defs/>
    <g fill="none" fill-rule="evenodd" stroke="black" stroke-linecap="square" stroke-linejoin="bevel" stroke-width="1">
        <g fill="#00ae49" fill-opacity="0.900008" font-family="Noto Sans" font-size="16.6667" font-style="normal" font-weight="400" stroke="none" transform="matrix(1.27778,0,0,1.27778,5.5,9.5)">
            <path d="M0,-0.391696 L7.04348,-0.391696 L7.43517,0 L7.43517,7.04348 L7.04348,7.43517 L0,7.43517 L-0.391696,7.04348 L-0.391696,0 L0,-0.391696 M0.391696,0 L0.391696,7.04348 L0,7.04348 L0,6.65178 L7.04348,6.65178 L7.04348,7.04348 L6.65178,7.04348 L6.65178,0 L7.04348,0 L7.04348,0.391696 L0,0.391696 L0,0 L0.391696,0" fill-rule="nonzero" vector-effect="none"/>
        </g>
        <g fill="#00ae49" fill-opacity="0.900008" font-family="Noto Sans" font-size="16.6667" font-style="normal" font-weight="400" stroke="none" transform="matrix(1.27778,0,0,1.27778,5.5,9.5)">
            <path d="M1.95613,-0.391696 L1.95613,-2.34783 L2.34783,-2.73952 L9.3913,-2.73952 L9.783,-2.34783 L9.783,4.69565 L9.3913,5.08735 L7.43517,5.08735 L7.43517,4.30396 L9.3913,4.30396 L9.3913,4.69565 L8.99961,4.69565 L8.99961,-2.34783 L9.3913,-2.34783 L9.3913,-1.95613 L2.34783,-1.95613 L2.34783,-2.34783 L2.73952,-2.34783 L2.73952,-0.391696 L1.95613,-0.391696" fill-rule="nonzero" vector-effect="none"/>
        </g>
    </g>
</svg>
