<?xml version='1.0' encoding='UTF-8' standalone='no'?>
<svg baseProfile="tiny" height="12.7mm" version="1.2" viewBox="0 0 96 96" width="12.7mm" xmlns="http://www.w3.org/2000/svg" xmlns:xlink="http://www.w3.org/1999/xlink">
    <style id="current-color-scheme" type="text/css">.ColorScheme-Text {color:#e93d58;}</style>
    <title>Qt SVG Document</title>
    <desc>Auto-generated by Klassy window decoration</desc>
    <defs/>
    <g fill="none" fill-rule="evenodd" stroke="black" stroke-linecap="square" stroke-linejoin="bevel" stroke-width="1">
        <g class="ColorScheme-Text" fill="currentColor" fill-opacity="1" font-family="Noto Sans" font-size="26.6667" font-style="normal" font-weight="400" stroke="none" transform="matrix(5.33333,0,0,5.33333,0,0)">
            <path d="M3.9375,4.12453 L14.0625,4.12453 C14.3216,4.12453 14.5317,4.33461 14.5317,4.59375 C14.5317,4.85289 14.3216,5.06297 14.0625,5.06297 L3.9375,5.06297 C3.67836,5.06297 3.46828,4.85289 3.46828,4.59375 C3.46828,4.33461 3.67836,4.12453 3.9375,4.12453 " fill-rule="nonzero" vector-effect="none"/>
            <path d="M3.66821,12.6682 L8.66821,7.66821 L9,7.33642 L9.33179,7.66821 L14.3318,12.6682 C14.515,12.8515 14.515,13.1485 14.3318,13.3318 C14.1485,13.515 13.8515,13.515 13.6682,13.3318 L8.66821,8.33179 L9,8 L9.33179,8.33179 L4.33179,13.3318 C4.14855,13.515 3.85145,13.515 3.66821,13.3318 C3.48497,13.1485 3.48497,12.8515 3.66821,12.6682 " fill-rule="nonzero" vector-effect="none"/>
        </g>
    </g>
</svg>
