<?xml version='1.0' encoding='UTF-8' standalone='no'?>
<svg baseProfile="tiny" height="12.7mm" version="1.2" viewBox="0 0 72 72" width="12.7mm" xmlns="http://www.w3.org/2000/svg" xmlns:xlink="http://www.w3.org/1999/xlink">
    <style id="current-color-scheme" type="text/css">.ColorScheme-Text {color:#e93d58;}</style>
    <title>Qt SVG Document</title>
    <desc>Auto-generated by Klassy window decoration</desc>
    <defs/>
    <g fill="none" fill-rule="evenodd" stroke="black" stroke-linecap="square" stroke-linejoin="bevel" stroke-width="1">
        <g class="ColorScheme-Text" fill="currentColor" fill-opacity="1" font-family="Noto Sans" font-size="20" font-style="normal" font-weight="400" stroke="none" transform="matrix(4,0,0,4,0,0)">
            <path d="M4,3.9995 L14,3.9995 C14.2764,3.9995 14.5005,4.22358 14.5005,4.5 C14.5005,4.77642 14.2764,5.0005 14,5.0005 L4,5.0005 C3.72358,5.0005 3.4995,4.77642 3.4995,4.5 C3.4995,4.22358 3.72358,3.9995 4,3.9995 " fill-rule="nonzero" vector-effect="none"/>
            <path d="M3.64609,12.6461 L8.64609,7.64609 L9,7.29219 L9.35391,7.64609 L14.3539,12.6461 C14.5494,12.8416 14.5494,13.1584 14.3539,13.3539 C14.1584,13.5494 13.8416,13.5494 13.6461,13.3539 L8.64609,8.35391 L9,8 L9.35391,8.35391 L4.35391,13.3539 C4.15845,13.5494 3.84155,13.5494 3.64609,13.3539 C3.45064,13.1584 3.45064,12.8416 3.64609,12.6461 " fill-rule="nonzero" vector-effect="none"/>
        </g>
    </g>
</svg>
