<?xml version='1.0' encoding='UTF-8' standalone='no'?>
<svg baseProfile="tiny" height="5.29167mm" version="1.2" viewBox="0 0 45 45" width="5.29167mm" xmlns="http://www.w3.org/2000/svg" xmlns:xlink="http://www.w3.org/1999/xlink">
    <style id="current-color-scheme" type="text/css">.ColorScheme-Text {color:#da0016;}</style>
    <title>Qt SVG Document</title>
    <desc>Auto-generated by Klassy window decoration</desc>
    <defs/>
    <g fill="none" fill-rule="evenodd" stroke="black" stroke-linecap="square" stroke-linejoin="bevel" stroke-width="1">
        <g fill="#da0016" fill-opacity="1" font-family="Noto Sans" font-size="30" font-style="normal" font-weight="400" stroke="none" transform="matrix(2.5,0,0,2.5,0,0)">
            <path d="M5.02469,4.17531 L14.2247,13.3753 C14.4592,13.6099 14.4592,13.9901 14.2247,14.2247 C13.9901,14.4592 13.6099,14.4592 13.3753,14.2247 L4.17531,5.02469 C3.94076,4.79014 3.94076,4.40986 4.17531,4.17531 C4.40986,3.94076 4.79014,3.94076 5.02469,4.17531 " fill-rule="nonzero" vector-effect="none"/>
            <path d="M14.2247,5.02469 L5.02469,14.2247 C4.79014,14.4592 4.40986,14.4592 4.17531,14.2247 C3.94076,13.9901 3.94076,13.6099 4.17531,13.3753 L13.3753,4.17531 C13.6099,3.94076 13.9901,3.94076 14.2247,4.17531 C14.4592,4.40986 14.4592,4.79014 14.2247,5.02469 " fill-rule="nonzero" vector-effect="none"/>
        </g>
    </g>
</svg>
