<?xml version='1.0' encoding='UTF-8' standalone='no'?>
<svg baseProfile="tiny" height="5.29167mm" version="1.2" viewBox="0 0 45 45" width="5.29167mm" xmlns="http://www.w3.org/2000/svg" xmlns:xlink="http://www.w3.org/1999/xlink">
    <style id="current-color-scheme" type="text/css">.ColorScheme-Text {color:#00ae49;}</style>
    <title>Qt SVG Document</title>
    <desc>Auto-generated by Klassy window decoration</desc>
    <defs/>
    <g fill="none" fill-rule="evenodd" stroke="black" stroke-linecap="square" stroke-linejoin="bevel" stroke-width="1">
        <g fill="#00ae49" fill-opacity="0.900008" font-family="Noto Sans" font-size="30" font-style="normal" font-weight="400" stroke="none" transform="matrix(2.5,0,0,2.5,0,0)">
            <path d="M3.9994,4.60115 C3.9994,4.35174 4.35174,3.9994 4.60115,3.9994 L13.7988,3.9994 C14.0483,3.9994 14.4006,4.35174 14.4006,4.60115 L14.4006,13.7988 C14.4006,14.0483 14.0483,14.4006 13.7989,14.4006 L4.60115,14.4006 C4.35174,14.4006 3.9994,14.0483 3.9994,13.7988 L3.9994,4.60115 M5.2006,4.60115 L5.2006,13.7988 C5.2006,13.5507 4.84929,13.1994 4.60115,13.1994 L13.7988,13.1994 C13.5507,13.1994 13.1994,13.5507 13.1994,13.7988 L13.1994,4.60115 C13.1994,4.84929 13.5507,5.2006 13.7988,5.2006 L4.60115,5.2006 C4.84929,5.2006 5.2006,4.84929 5.2006,4.60115 " fill-rule="nonzero" vector-effect="none"/>
        </g>
    </g>
</svg>
