<?xml version='1.0' encoding='UTF-8' standalone='no'?>
<svg baseProfile="tiny" height="12.7mm" version="1.2" viewBox="0 0 120 120" width="12.7mm" xmlns="http://www.w3.org/2000/svg" xmlns:xlink="http://www.w3.org/1999/xlink">
    <style id="current-color-scheme" type="text/css">.ColorScheme-Text {color:#da0016;}</style>
    <title>Qt SVG Document</title>
    <desc>Auto-generated by Klassy window decoration</desc>
    <defs/>
    <g fill="none" fill-rule="evenodd" stroke="black" stroke-linecap="square" stroke-linejoin="bevel" stroke-width="1">
        <g fill="#da0016" fill-opacity="0.719997" font-family="Noto Sans" font-size="33.3333" font-style="normal" font-weight="400" stroke="none" transform="matrix(7.5,0,0,7.5,0,0)">
            <path d="M2,3.2 C2,2.53726 2.53726,2 3.2,2 L12.8,2 C13.4627,2 14,2.53726 14,3.2 L14,12.8 C14,13.4627 13.4627,14 12.8,14 L3.2,14 C2.53726,14 2,13.4627 2,12.8 L2,3.2" fill-rule="evenodd" vector-effect="none"/>
        </g>
        <g fill="#31363b" fill-opacity="1" font-family="Noto Sans" font-size="33.3333" font-style="normal" font-weight="400" stroke="none" transform="matrix(6.66667,0,0,6.66667,0,0)">
            <path d="M4.7966,4.0534 L13.9466,13.2034 C14.1518,13.4086 14.1518,13.7414 13.9466,13.9466 C13.7414,14.1518 13.4086,14.1518 13.2034,13.9466 L4.0534,4.7966 C3.84817,4.59137 3.84817,4.25863 4.0534,4.0534 C4.25863,3.84817 4.59137,3.84817 4.7966,4.0534 " fill-rule="nonzero" vector-effect="none"/>
            <path d="M13.9466,4.7966 L4.7966,13.9466 C4.59137,14.1518 4.25863,14.1518 4.0534,13.9466 C3.84817,13.7414 3.84817,13.4086 4.0534,13.2034 L13.2034,4.0534 C13.4086,3.84817 13.7414,3.84817 13.9466,4.0534 C14.1518,4.25863 14.1518,4.59137 13.9466,4.7966 " fill-rule="nonzero" vector-effect="none"/>
        </g>
    </g>
</svg>
