<?xml version='1.0' encoding='UTF-8' standalone='no'?>
<svg baseProfile="tiny" height="12.7mm" version="1.2" viewBox="0 0 120 120" width="12.7mm" xmlns="http://www.w3.org/2000/svg" xmlns:xlink="http://www.w3.org/1999/xlink">
    <style id="current-color-scheme" type="text/css">.ColorScheme-Text {color:#00ae49;}</style>
    <title>Qt SVG Document</title>
    <desc>Auto-generated by Klassy window decoration</desc>
    <defs/>
    <g fill="none" fill-rule="evenodd" stroke="black" stroke-linecap="square" stroke-linejoin="bevel" stroke-width="1">
        <g fill="#00ae49" fill-opacity="0.900008" font-family="Noto Sans" font-size="33.3333" font-style="normal" font-weight="400" stroke="none" transform="matrix(6.66667,0,0,6.66667,0,0)">
            <path d="M3.89947,4.42614 C3.89947,4.20783 4.20783,3.89947 4.42614,3.89947 L13.5739,3.89947 C13.7922,3.89947 14.1005,4.20783 14.1005,4.42614 L14.1005,13.5739 C14.1005,13.7922 13.7922,14.1005 13.5739,14.1005 L4.42614,14.1005 C4.20783,14.1005 3.89947,13.7922 3.89947,13.5739 L3.89947,4.42614 M4.95052,4.42614 L4.95052,13.5739 C4.95052,13.3568 4.64319,13.0495 4.42614,13.0495 L13.5739,13.0495 C13.3568,13.0495 13.0495,13.3568 13.0495,13.5739 L13.0495,4.42614 C13.0495,4.64319 13.3568,4.95052 13.5739,4.95052 L4.42614,4.95052 C4.64319,4.95052 4.95052,4.64319 4.95052,4.42614 " fill-rule="nonzero" vector-effect="none"/>
        </g>
    </g>
</svg>
