<?xml version='1.0' encoding='UTF-8' standalone='no'?>
<svg baseProfile="tiny" height="12.7mm" version="1.2" viewBox="0 0 120 120" width="12.7mm" xmlns="http://www.w3.org/2000/svg" xmlns:xlink="http://www.w3.org/1999/xlink">
    <style id="current-color-scheme" type="text/css">.ColorScheme-Text {color:#e93d58;}</style>
    <title>Qt SVG Document</title>
    <desc>Auto-generated by Klassy window decoration</desc>
    <defs/>
    <g fill="none" fill-rule="evenodd" stroke="black" stroke-linecap="square" stroke-linejoin="bevel" stroke-width="1">
        <g class="ColorScheme-Text" fill="currentColor" fill-opacity="1" font-family="Noto Sans" font-size="33.3333" font-style="normal" font-weight="400" stroke="none" transform="matrix(6.66667,0,0,6.66667,0,0)">
            <path d="M4.05,4.04948 L13.95,4.04948 C14.2402,4.04948 14.4755,4.28476 14.4755,4.575 C14.4755,4.86524 14.2402,5.10053 13.95,5.10053 L4.05,5.10053 C3.75976,5.10053 3.52447,4.86524 3.52447,4.575 C3.52447,4.28476 3.75976,4.04948 4.05,4.04948 " fill-rule="nonzero" vector-effect="none"/>
            <path d="M3.6284,12.6284 L8.6284,7.6284 L9,7.2568 L9.3716,7.6284 L14.3716,12.6284 C14.5768,12.8336 14.5768,13.1664 14.3716,13.3716 C14.1664,13.5768 13.8336,13.5768 13.6284,13.3716 L8.6284,8.3716 L9,8 L9.3716,8.3716 L4.3716,13.3716 C4.16637,13.5768 3.83363,13.5768 3.6284,13.3716 C3.42317,13.1664 3.42317,12.8336 3.6284,12.6284 " fill-rule="nonzero" vector-effect="none"/>
        </g>
    </g>
</svg>
