<?xml version='1.0' encoding='UTF-8' standalone='no'?>
<svg baseProfile="tiny" height="12.7mm" version="1.2" viewBox="0 0 120 120" width="12.7mm" xmlns="http://www.w3.org/2000/svg" xmlns:xlink="http://www.w3.org/1999/xlink">
    <style id="current-color-scheme" type="text/css">.ColorScheme-Text {color:#00ae49;}</style>
    <title>Qt SVG Document</title>
    <desc>Auto-generated by Klassy window decoration</desc>
    <defs/>
    <g fill="none" fill-rule="evenodd" stroke="black" stroke-linecap="square" stroke-linejoin="bevel" stroke-width="1">
        <g fill="#00ae49" fill-opacity="0.900008" font-family="Noto Sans" font-size="33.3333" font-style="normal" font-weight="400" stroke="none" transform="matrix(6.66667,0,0,6.66667,29.5,43.5)">
            <path d="M0,-0.525525 L7.05,-0.525525 L7.57552,0 L7.57552,7.05 L7.05,7.57552 L0,7.57552 L-0.525525,7.05 L-0.525525,0 L0,-0.525525 M0.525525,0 L0.525525,7.05 L0,7.05 L0,6.52447 L7.05,6.52447 L7.05,7.05 L6.52447,7.05 L6.52447,0 L7.05,0 L7.05,0.525525 L0,0.525525 L0,0 L0.525525,0" fill-rule="nonzero" vector-effect="none"/>
        </g>
        <g fill="#00ae49" fill-opacity="0.900008" font-family="Noto Sans" font-size="33.3333" font-style="normal" font-weight="400" stroke="none" transform="matrix(6.66667,0,0,6.66667,29.5,43.5)">
            <path d="M1.57447,-0.525525 L1.57447,-2.1 L2.1,-2.62552 L9.15,-2.62552 L9.67552,-2.1 L9.67552,4.95 L9.15,5.47553 L7.57552,5.47553 L7.57552,4.42448 L9.15,4.42448 L9.15,4.95 L8.62447,4.95 L8.62447,-2.1 L9.15,-2.1 L9.15,-1.57447 L2.1,-1.57447 L2.1,-2.1 L2.62552,-2.1 L2.62552,-0.525525 L1.57447,-0.525525" fill-rule="nonzero" vector-effect="none"/>
        </g>
    </g>
</svg>
