<?xml version='1.0' encoding='UTF-8' standalone='no'?>
<svg baseProfile="tiny" height="12.7mm" version="1.2" viewBox="0 0 120 120" width="12.7mm" xmlns="http://www.w3.org/2000/svg" xmlns:xlink="http://www.w3.org/1999/xlink">
    <style id="current-color-scheme" type="text/css">.ColorScheme-Text {color:#e93d58;}</style>
    <title>Qt SVG Document</title>
    <desc>Auto-generated by Klassy window decoration</desc>
    <defs/>
    <g fill="none" fill-rule="evenodd" stroke="black" stroke-linecap="square" stroke-linejoin="bevel" stroke-width="1">
        <g class="ColorScheme-Text" fill="currentColor" fill-opacity="1" font-family="Noto Sans" font-size="33.3333" font-style="normal" font-weight="400" stroke="none" transform="matrix(6.66667,0,0,6.66667,0,0)">
            <path d="M4.425,11.9995 L8.475,11.9995 C8.76524,11.9995 9.00052,12.2348 9.00052,12.525 C9.00052,12.8152 8.76524,13.0505 8.475,13.0505 L4.425,13.0505 C4.13476,13.0505 3.89947,12.8152 3.89947,12.525 C3.89947,12.2348 4.13476,11.9995 4.425,11.9995 " fill-rule="nonzero" vector-effect="none"/>
            <path d="M4.425,7.94947 L8.475,7.94947 C8.76524,7.94947 9.00052,8.18476 9.00052,8.475 C9.00052,8.76524 8.76524,9.00052 8.475,9.00052 L4.425,9.00052 C4.13476,9.00052 3.89947,8.76524 3.89947,8.475 C3.89947,8.18476 4.13476,7.94947 4.425,7.94947 " fill-rule="nonzero" vector-effect="none"/>
            <path d="M4.425,3.89947 L13.425,3.89947 C13.7152,3.89947 13.9505,4.13476 13.9505,4.425 C13.9505,4.71524 13.7152,4.95052 13.425,4.95052 L4.425,4.95052 C4.13476,4.95052 3.89947,4.71524 3.89947,4.425 C3.89947,4.13476 4.13476,3.89947 4.425,3.89947 " fill-rule="nonzero" vector-effect="none"/>
            <path d="M14.1005,6.525 L14.1005,14.475 C14.1005,14.7652 13.8652,15.0005 13.575,15.0005 C13.2848,15.0005 13.0495,14.7652 13.0495,14.475 L13.0495,6.525 C13.0495,6.23476 13.2848,5.99947 13.575,5.99947 C13.8652,5.99947 14.1005,6.23476 14.1005,6.525 " fill-rule="nonzero" vector-effect="none"/>
            <path d="M11.2534,8.1034 L13.2034,6.1534 L13.575,5.7818 L13.9466,6.1534 L15.8966,8.1034 C16.1018,8.30863 16.1018,8.64137 15.8966,8.8466 C15.6914,9.05183 15.3586,9.05183 15.1534,8.8466 L13.2034,6.8966 L13.575,6.525 L13.9466,6.8966 L11.9966,8.8466 C11.7914,9.05183 11.4586,9.05183 11.2534,8.8466 C11.0482,8.64137 11.0482,8.30863 11.2534,8.1034 " fill-rule="nonzero" vector-effect="none"/>
        </g>
    </g>
</svg>
