<?xml version='1.0' encoding='UTF-8' standalone='no'?>
<svg baseProfile="tiny" height="12.7mm" version="1.2" viewBox="0 0 120 120" width="12.7mm" xmlns="http://www.w3.org/2000/svg" xmlns:xlink="http://www.w3.org/1999/xlink">
    <style id="current-color-scheme" type="text/css">.ColorScheme-Text {color:#e93d58;}</style>
    <title>Qt SVG Document</title>
    <desc>Auto-generated by Klassy window decoration</desc>
    <defs/>
    <g fill="none" fill-rule="evenodd" stroke="black" stroke-linecap="square" stroke-linejoin="bevel" stroke-width="1">
        <g class="ColorScheme-Text" fill="currentColor" fill-opacity="1" font-family="Noto Sans" font-size="33.3333" font-style="normal" font-weight="400" stroke="none" transform="matrix(6.66667,0,0,6.66667,0,0)">
            <path d="M4.575,13.9495 L13.575,13.9495 C13.8652,13.9495 14.1005,14.1848 14.1005,14.475 C14.1005,14.7652 13.8652,15.0005 13.575,15.0005 L4.575,15.0005 C4.28476,15.0005 4.04948,14.7652 4.04948,14.475 C4.04948,14.1848 4.28476,13.9495 4.575,13.9495 " fill-rule="nonzero" vector-effect="none"/>
            <path d="M9.525,9.89948 L13.575,9.89948 C13.8652,9.89948 14.1005,10.1348 14.1005,10.425 C14.1005,10.7152 13.8652,10.9505 13.575,10.9505 L9.525,10.9505 C9.23476,10.9505 8.99948,10.7152 8.99948,10.425 C8.99948,10.1348 9.23476,9.89948 9.525,9.89948 " fill-rule="nonzero" vector-effect="none"/>
            <path d="M9.525,5.84948 L13.575,5.84948 C13.8652,5.84948 14.1005,6.08476 14.1005,6.375 C14.1005,6.66524 13.8652,6.90053 13.575,6.90053 L9.525,6.90053 C9.23476,6.90053 8.99948,6.66524 8.99948,6.375 C8.99948,6.08476 9.23476,5.84948 9.525,5.84948 " fill-rule="nonzero" vector-effect="none"/>
            <path d="M4.95052,4.425 L4.95052,12.525 C4.95052,12.8152 4.71524,13.0505 4.425,13.0505 C4.13476,13.0505 3.89947,12.8152 3.89947,12.525 L3.89947,4.425 C3.89947,4.13476 4.13476,3.89947 4.425,3.89947 C4.71524,3.89947 4.95052,4.13476 4.95052,4.425 " fill-rule="nonzero" vector-effect="none"/>
            <path d="M2.8601,10.0674 L4.8101,12.1674 L4.425,12.525 L4.0399,12.1674 L5.9899,10.0674 C6.18739,9.85472 6.51991,9.8424 6.73259,10.0399 C6.94528,10.2374 6.9576,10.5699 6.7601,10.7826 L4.8101,12.8826 L4.425,13.2973 L4.0399,12.8826 L2.0899,10.7826 C1.8924,10.5699 1.90472,10.2374 2.11741,10.0399 C2.33009,9.8424 2.66261,9.85472 2.8601,10.0674 " fill-rule="nonzero" vector-effect="none"/>
        </g>
    </g>
</svg>
