<?xml version='1.0' encoding='UTF-8' standalone='no'?>
<svg baseProfile="tiny" height="4.7625mm" version="1.2" viewBox="0 0 45 45" width="4.7625mm" xmlns="http://www.w3.org/2000/svg" xmlns:xlink="http://www.w3.org/1999/xlink">
    <style id="current-color-scheme" type="text/css">.ColorScheme-Text {color:#da0016;}</style>
    <title>Qt SVG Document</title>
    <desc>Auto-generated by Klassy window decoration</desc>
    <defs/>
    <g fill="none" fill-rule="evenodd" stroke="black" stroke-linecap="square" stroke-linejoin="bevel" stroke-width="1">
        <g fill="#da0016" fill-opacity="0.719997" font-family="Noto Sans" font-size="33.3333" font-style="normal" font-weight="400" stroke="none" transform="matrix(2.8125,0,0,2.8125,0,0)">
            <path d="M2,3.2 C2,2.53726 2.53726,2 3.2,2 L12.8,2 C13.4627,2 14,2.53726 14,3.2 L14,12.8 C14,13.4627 13.4627,14 12.8,14 L3.2,14 C2.53726,14 2,13.4627 2,12.8 L2,3.2" fill-rule="evenodd" vector-effect="none"/>
        </g>
        <g fill="#31363b" fill-opacity="1" font-family="Noto Sans" font-size="33.3333" font-style="normal" font-weight="400" stroke="none" transform="matrix(2.5,0,0,2.5,0,0)">
            <path d="M5.02469,4.17531 L14.2247,13.3753 C14.4592,13.6099 14.4592,13.9901 14.2247,14.2247 C13.9901,14.4592 13.6099,14.4592 13.3753,14.2247 L4.17531,5.02469 C3.94076,4.79014 3.94076,4.40986 4.17531,4.17531 C4.40986,3.94076 4.79014,3.94076 5.02469,4.17531 " fill-rule="nonzero" vector-effect="none"/>
            <path d="M14.2247,5.02469 L5.02469,14.2247 C4.79014,14.4592 4.40986,14.4592 4.17531,14.2247 C3.94076,13.9901 3.94076,13.6099 4.17531,13.3753 L13.3753,4.17531 C13.6099,3.94076 13.9901,3.94076 14.2247,4.17531 C14.4592,4.40986 14.4592,4.79014 14.2247,5.02469 " fill-rule="nonzero" vector-effect="none"/>
        </g>
    </g>
</svg>
