<?xml version='1.0' encoding='UTF-8' standalone='no'?>
<svg baseProfile="tiny" height="12.7mm" version="1.2" viewBox="0 0 60 60" width="12.7mm" xmlns="http://www.w3.org/2000/svg" xmlns:xlink="http://www.w3.org/1999/xlink">
    <style id="current-color-scheme" type="text/css">.ColorScheme-Text {color:#e93d58;}</style>
    <title>Qt SVG Document</title>
    <desc>Auto-generated by Klassy window decoration</desc>
    <defs/>
    <g fill="none" fill-rule="evenodd" stroke="black" stroke-linecap="square" stroke-linejoin="bevel" stroke-width="1">
        <g class="ColorScheme-Text" fill="currentColor" fill-opacity="1" font-family="Noto Sans" font-size="16.6667" font-style="normal" font-weight="400" stroke="none" transform="matrix(3.33333,0,0,3.33333,0,0)">
            <path d="M4.65,14.0995 L13.65,14.0995 C13.8988,14.0995 14.1004,14.3012 14.1004,14.55 C14.1004,14.7988 13.8988,15.0004 13.65,15.0004 L4.65,15.0004 C4.40122,15.0004 4.19955,14.7988 4.19955,14.55 C4.19955,14.3012 4.40122,14.0995 4.65,14.0995 " fill-rule="nonzero" vector-effect="none"/>
            <path d="M9.45,9.89955 L13.65,9.89955 C13.8988,9.89955 14.1004,10.1012 14.1004,10.35 C14.1004,10.5988 13.8988,10.8004 13.65,10.8004 L9.45,10.8004 C9.20122,10.8004 8.99955,10.5988 8.99955,10.35 C8.99955,10.1012 9.20122,9.89955 9.45,9.89955 " fill-rule="nonzero" vector-effect="none"/>
            <path d="M9.45,5.69955 L13.65,5.69955 C13.8988,5.69955 14.1004,5.90122 14.1004,6.15 C14.1004,6.39878 13.8988,6.60045 13.65,6.60045 L9.45,6.60045 C9.20122,6.60045 8.99955,6.39878 8.99955,6.15 C8.99955,5.90122 9.20122,5.69955 9.45,5.69955 " fill-rule="nonzero" vector-effect="none"/>
            <path d="M4.80045,4.35 L4.80045,12.45 C4.80045,12.6988 4.59878,12.9004 4.35,12.9004 C4.10122,12.9004 3.89955,12.6988 3.89955,12.45 L3.89955,4.35 C3.89955,4.10122 4.10122,3.89955 4.35,3.89955 C4.59878,3.89955 4.80045,4.10122 4.80045,4.35 " fill-rule="nonzero" vector-effect="none"/>
            <path d="M2.89201,10.0569 L4.69201,12.1569 L4.35,12.45 L4.00799,12.1569 L5.80799,10.0569 C5.96989,9.86797 6.25426,9.84609 6.44315,10.008 C6.63203,10.1699 6.65391,10.4543 6.49201,10.6431 L4.69201,12.7431 L4.35,13.1422 L4.00799,12.7431 L2.20799,10.6431 C2.04609,10.4543 2.06797,10.1699 2.25685,10.008 C2.44574,9.84609 2.73011,9.86797 2.89201,10.0569 " fill-rule="nonzero" vector-effect="none"/>
        </g>
    </g>
</svg>
