<?xml version='1.0' encoding='UTF-8' standalone='no'?>
<svg baseProfile="tiny" height="12.7mm" version="1.2" viewBox="0 0 60 60" width="12.7mm" xmlns="http://www.w3.org/2000/svg" xmlns:xlink="http://www.w3.org/1999/xlink">
    <style id="current-color-scheme" type="text/css">.ColorScheme-Text {color:#00ae49;}</style>
    <title>Qt SVG Document</title>
    <desc>Auto-generated by Klassy window decoration</desc>
    <defs/>
    <g fill="none" fill-rule="evenodd" stroke="black" stroke-linecap="square" stroke-linejoin="bevel" stroke-width="1">
        <g fill="#00ae49" fill-opacity="0.900008" font-family="Noto Sans" font-size="16.6667" font-style="normal" font-weight="400" stroke="none" transform="matrix(3.33333,0,0,3.33333,15.5,21.5)">
            <path d="M0,-0.45045 L7.2,-0.45045 L7.65045,0 L7.65045,7.2 L7.2,7.65045 L0,7.65045 L-0.45045,7.2 L-0.45045,0 L0,-0.45045 M0.45045,0 L0.45045,7.2 L0,7.2 L0,6.74955 L7.2,6.74955 L7.2,7.2 L6.74955,7.2 L6.74955,0 L7.2,0 L7.2,0.45045 L0,0.45045 L0,0 L0.45045,0" fill-rule="nonzero" vector-effect="none"/>
        </g>
        <g fill="#00ae49" fill-opacity="0.900008" font-family="Noto Sans" font-size="16.6667" font-style="normal" font-weight="400" stroke="none" transform="matrix(3.33333,0,0,3.33333,15.5,21.5)">
            <path d="M1.34955,-0.45045 L1.34955,-1.8 L1.8,-2.25045 L9,-2.25045 L9.45045,-1.8 L9.45045,5.4 L9,5.85045 L7.65045,5.85045 L7.65045,4.94955 L9,4.94955 L9,5.4 L8.54955,5.4 L8.54955,-1.8 L9,-1.8 L9,-1.34955 L1.8,-1.34955 L1.8,-1.8 L2.25045,-1.8 L2.25045,-0.45045 L1.34955,-0.45045" fill-rule="nonzero" vector-effect="none"/>
        </g>
    </g>
</svg>
