<?xml version='1.0' encoding='UTF-8' standalone='no'?>
<svg baseProfile="tiny" height="4.23333mm" version="1.2" viewBox="0 0 44 44" width="4.23333mm" xmlns="http://www.w3.org/2000/svg" xmlns:xlink="http://www.w3.org/1999/xlink">
    <style id="current-color-scheme" type="text/css">.ColorScheme-Text {color:#da0016;}</style>
    <title>Qt SVG Document</title>
    <desc>Auto-generated by Klassy window decoration</desc>
    <defs/>
    <g fill="none" fill-rule="evenodd" stroke="black" stroke-linecap="square" stroke-linejoin="bevel" stroke-width="1">
        <g fill="#da0016" fill-opacity="0.719997" font-family="Noto Sans" font-size="36.6667" font-style="normal" font-weight="400" stroke="none" transform="matrix(2.75,0,0,2.75,0,0)">
            <path d="M2,3.2 C2,2.53726 2.53726,2 3.2,2 L12.8,2 C13.4627,2 14,2.53726 14,3.2 L14,12.8 C14,13.4627 13.4627,14 12.8,14 L3.2,14 C2.53726,14 2,13.4627 2,12.8 L2,3.2" fill-rule="evenodd" vector-effect="none"/>
        </g>
        <g fill="#dee0e2" fill-opacity="1" font-family="Noto Sans" font-size="36.6667" font-style="normal" font-weight="400" stroke="none" transform="matrix(2.44444,0,0,2.44444,0,0)">
            <path d="M4.78956,4.21044 L13.7896,13.2104 C13.9495,13.3704 13.9495,13.6296 13.7896,13.7896 C13.6296,13.9495 13.3704,13.9495 13.2104,13.7896 L4.21044,4.78956 C4.05052,4.62964 4.05052,4.37036 4.21044,4.21044 C4.37036,4.05052 4.62964,4.05052 4.78956,4.21044 " fill-rule="nonzero" vector-effect="none"/>
            <path d="M13.7896,4.78956 L4.78956,13.7896 C4.62964,13.9495 4.37036,13.9495 4.21044,13.7896 C4.05052,13.6296 4.05052,13.3704 4.21044,13.2104 L13.2104,4.21044 C13.3704,4.05052 13.6296,4.05052 13.7896,4.21044 C13.9495,4.37036 13.9495,4.62964 13.7896,4.78956 " fill-rule="nonzero" vector-effect="none"/>
        </g>
    </g>
</svg>
