<?xml version='1.0' encoding='UTF-8' standalone='no'?>
<svg baseProfile="tiny" height="4.23333mm" version="1.2" viewBox="0 0 44 44" width="4.23333mm" xmlns="http://www.w3.org/2000/svg" xmlns:xlink="http://www.w3.org/1999/xlink">
    <style id="current-color-scheme" type="text/css">.ColorScheme-Text {color:#e93d58;}</style>
    <title>Qt SVG Document</title>
    <desc>Auto-generated by Klassy window decoration</desc>
    <defs/>
    <g fill="none" fill-rule="evenodd" stroke="black" stroke-linecap="square" stroke-linejoin="bevel" stroke-width="1">
        <g class="ColorScheme-Text" fill="currentColor" fill-opacity="1" font-family="Noto Sans" font-size="36.6667" font-style="normal" font-weight="400" stroke="none" transform="matrix(2.44444,0,0,2.44444,0,0)">
            <path d="M4.5,13.9087 L13.5,13.9087 C13.7262,13.9087 13.9095,14.092 13.9095,14.3182 C13.9095,14.5443 13.7262,14.7277 13.5,14.7277 L4.5,14.7277 C4.27384,14.7277 4.0905,14.5443 4.0905,14.3182 C4.0905,14.092 4.27384,13.9087 4.5,13.9087 " fill-rule="nonzero" vector-effect="none"/>
            <path d="M9.40909,9.81777 L13.5,9.81777 C13.7262,9.81777 13.9095,10.0011 13.9095,10.2273 C13.9095,10.4534 13.7262,10.6368 13.5,10.6368 L9.40909,10.6368 C9.18293,10.6368 8.99959,10.4534 8.99959,10.2273 C8.99959,10.0011 9.18293,9.81777 9.40909,9.81777 " fill-rule="nonzero" vector-effect="none"/>
            <path d="M9.40909,5.72686 L13.5,5.72686 C13.7262,5.72686 13.9095,5.9102 13.9095,6.13636 C13.9095,6.36252 13.7262,6.54586 13.5,6.54586 L9.40909,6.54586 C9.18293,6.54586 8.99959,6.36252 8.99959,6.13636 C8.99959,5.9102 9.18293,5.72686 9.40909,5.72686 " fill-rule="nonzero" vector-effect="none"/>
            <path d="M4.9095,4.5 L4.9095,12.6818 C4.9095,12.908 4.72616,13.0913 4.5,13.0913 C4.27384,13.0913 4.0905,12.908 4.0905,12.6818 L4.0905,4.5 C4.0905,4.27384 4.27384,4.0905 4.5,4.0905 C4.72616,4.0905 4.9095,4.27384 4.9095,4.5 " fill-rule="nonzero" vector-effect="none"/>
            <path d="M2.74411,10.3468 L4.78956,12.3923 L4.5,12.6818 L4.21044,12.3923 L6.25589,10.3468 C6.41581,10.1869 6.6751,10.1869 6.83501,10.3468 C6.99493,10.5067 6.99493,10.766 6.83501,10.9259 L4.78956,12.9714 L4.5,13.2609 L4.21044,12.9714 L2.16499,10.9259 C2.00507,10.766 2.00507,10.5067 2.16499,10.3468 C2.3249,10.1869 2.58419,10.1869 2.74411,10.3468 " fill-rule="nonzero" vector-effect="none"/>
        </g>
    </g>
</svg>
