<?xml version='1.0' encoding='UTF-8' standalone='no'?>
<svg baseProfile="tiny" height="4.23333mm" version="1.2" viewBox="0 0 44 44" width="4.23333mm" xmlns="http://www.w3.org/2000/svg" xmlns:xlink="http://www.w3.org/1999/xlink">
    <style id="current-color-scheme" type="text/css">.ColorScheme-Text {color:#00ae49;}</style>
    <title>Qt SVG Document</title>
    <desc>Auto-generated by Klassy window decoration</desc>
    <defs/>
    <g fill="none" fill-rule="evenodd" stroke="black" stroke-linecap="square" stroke-linejoin="bevel" stroke-width="1">
        <g fill="#00ae49" fill-opacity="0.900008" font-family="Noto Sans" font-size="36.6667" font-style="normal" font-weight="400" stroke="none" transform="matrix(2.44444,0,0,2.44444,0,0)">
            <path d="M4.0905,4.50113 C4.0905,4.33088 4.33088,4.0905 4.50113,4.0905 L13.4989,4.0905 C13.6691,4.0905 13.9095,4.33088 13.9095,4.50113 L13.9095,13.4989 C13.9095,13.6691 13.6691,13.9095 13.4989,13.9095 L4.50113,13.9095 C4.33088,13.9095 4.0905,13.6691 4.0905,13.4989 L4.0905,4.50113 M4.9095,4.50113 L4.9095,13.4989 C4.9095,13.3299 4.67012,13.0905 4.50113,13.0905 L13.4989,13.0905 C13.3299,13.0905 13.0905,13.3299 13.0905,13.4989 L13.0905,4.50113 C13.0905,4.67012 13.3299,4.9095 13.4989,4.9095 L4.50113,4.9095 C4.67012,4.9095 4.9095,4.67012 4.9095,4.50113 " fill-rule="nonzero" vector-effect="none"/>
        </g>
    </g>
</svg>
