<?xml version='1.0' encoding='UTF-8' standalone='no'?>
<svg baseProfile="tiny" height="5.86894mm" version="1.2" viewBox="0 0 61 61" width="5.86894mm" xmlns="http://www.w3.org/2000/svg" xmlns:xlink="http://www.w3.org/1999/xlink">
    <style id="current-color-scheme" type="text/css">.ColorScheme-Text {color:#e93d58;}</style>
    <title>Qt SVG Document</title>
    <desc>Auto-generated by Klassy window decoration</desc>
    <defs/>
    <g fill="none" fill-rule="evenodd" stroke="black" stroke-linecap="square" stroke-linejoin="bevel" stroke-width="1">
        <g class="ColorScheme-Text" fill="currentColor" fill-opacity="1" font-family="Noto Sans" font-size="36.6667" font-style="normal" font-weight="400" stroke="none" transform="matrix(3.38889,0,0,3.38889,0,0)">
            <path d="M4.57377,12.393 L8.40984,12.393 C8.65453,12.393 8.8529,12.5914 8.8529,12.8361 C8.8529,13.0808 8.65453,13.2791 8.40984,13.2791 L4.57377,13.2791 C4.32907,13.2791 4.1307,13.0808 4.1307,12.8361 C4.1307,12.5914 4.32907,12.393 4.57377,12.393 " fill-rule="nonzero" vector-effect="none"/>
            <path d="M4.57377,8.26185 L8.40984,8.26185 C8.65453,8.26185 8.8529,8.46022 8.8529,8.70492 C8.8529,8.94962 8.65453,9.14798 8.40984,9.14798 L4.57377,9.14798 C4.32907,9.14798 4.1307,8.94962 4.1307,8.70492 C4.1307,8.46022 4.32907,8.26185 4.57377,8.26185 " fill-rule="nonzero" vector-effect="none"/>
            <path d="M4.57377,4.1307 L13.4262,4.1307 C13.6709,4.1307 13.8693,4.32907 13.8693,4.57377 C13.8693,4.81847 13.6709,5.01684 13.4262,5.01684 L4.57377,5.01684 C4.32907,5.01684 4.1307,4.81847 4.1307,4.57377 C4.1307,4.32907 4.32907,4.1307 4.57377,4.1307 " fill-rule="nonzero" vector-effect="none"/>
            <path d="M13.8693,6.63934 L13.8693,14.6066 C13.8693,14.8513 13.6709,15.0496 13.4262,15.0496 C13.1815,15.0496 12.9832,14.8513 12.9832,14.6066 L12.9832,6.63934 C12.9832,6.39465 13.1815,6.19628 13.4262,6.19628 C13.6709,6.19628 13.8693,6.39465 13.8693,6.63934 " fill-rule="nonzero" vector-effect="none"/>
            <path d="M11.0723,8.07344 L13.1379,6.30294 L13.4262,6.05579 L13.7146,6.30294 L15.7801,8.07344 C15.9659,8.23268 15.9875,8.51239 15.8282,8.69818 C15.669,8.88397 15.3892,8.90548 15.2035,8.74624 L13.1379,6.97574 L13.4262,6.63934 L13.7146,6.97574 L11.649,8.74624 C11.4632,8.90548 11.1835,8.88397 11.0243,8.69818 C10.865,8.51239 10.8865,8.23268 11.0723,8.07344 " fill-rule="nonzero" vector-effect="none"/>
        </g>
    </g>
</svg>
