<?xml version='1.0' encoding='UTF-8' standalone='no'?>
<svg baseProfile="tiny" height="5.87963mm" version="1.2" viewBox="0 0 50 50" width="5.87963mm" xmlns="http://www.w3.org/2000/svg" xmlns:xlink="http://www.w3.org/1999/xlink">
    <style id="current-color-scheme" type="text/css">.ColorScheme-Text {color:#da0016;}</style>
    <title>Qt SVG Document</title>
    <desc>Auto-generated by Klassy window decoration</desc>
    <defs/>
    <g fill="none" fill-rule="evenodd" stroke="black" stroke-linecap="square" stroke-linejoin="bevel" stroke-width="1">
        <g fill="#da0016" fill-opacity="0.719997" font-family="Noto Sans" font-size="30" font-style="normal" font-weight="400" stroke="none" transform="matrix(3.125,0,0,3.125,0,0)">
            <path d="M2,3.2 C2,2.53726 2.53726,2 3.2,2 L12.8,2 C13.4627,2 14,2.53726 14,3.2 L14,12.8 C14,13.4627 13.4627,14 12.8,14 L3.2,14 C2.53726,14 2,13.4627 2,12.8 L2,3.2" fill-rule="evenodd" vector-effect="none"/>
        </g>
        <g fill="#31363b" fill-opacity="1" font-family="Noto Sans" font-size="30" font-style="normal" font-weight="400" stroke="none" transform="matrix(2.77778,0,0,2.77778,0,0)">
            <path d="M4.88222,4.11778 L13.8822,13.1178 C14.0933,13.3289 14.0933,13.6711 13.8822,13.8822 C13.6711,14.0933 13.3289,14.0933 13.1178,13.8822 L4.11778,4.88222 C3.90669,4.67113 3.90669,4.32887 4.11778,4.11778 C4.32887,3.90669 4.67113,3.90669 4.88222,4.11778 " fill-rule="nonzero" vector-effect="none"/>
            <path d="M13.8822,4.88222 L4.88222,13.8822 C4.67113,14.0933 4.32887,14.0933 4.11778,13.8822 C3.90669,13.6711 3.90669,13.3289 4.11778,13.1178 L13.1178,4.11778 C13.3289,3.90669 13.6711,3.90669 13.8822,4.11778 C14.0933,4.32887 14.0933,4.67113 13.8822,4.88222 " fill-rule="nonzero" vector-effect="none"/>
        </g>
    </g>
</svg>
