<?xml version='1.0' encoding='UTF-8' standalone='no'?>
<svg baseProfile="tiny" height="5.87963mm" version="1.2" viewBox="0 0 50 50" width="5.87963mm" xmlns="http://www.w3.org/2000/svg" xmlns:xlink="http://www.w3.org/1999/xlink">
    <style id="current-color-scheme" type="text/css">.ColorScheme-Text {color:#00ae49;}</style>
    <title>Qt SVG Document</title>
    <desc>Auto-generated by Klassy window decoration</desc>
    <defs/>
    <g fill="none" fill-rule="evenodd" stroke="black" stroke-linecap="square" stroke-linejoin="bevel" stroke-width="1">
        <g fill="#00ae49" fill-opacity="0.900008" font-family="Noto Sans" font-size="30" font-style="normal" font-weight="400" stroke="none" transform="matrix(2.77778,0,0,2.77778,12.5,18.5)">
            <path d="M0,-0.54054 L7.2,-0.54054 L7.74054,0 L7.74054,7.2 L7.2,7.74054 L0,7.74054 L-0.54054,7.2 L-0.54054,0 L0,-0.54054 M0.54054,0 L0.54054,7.2 L0,7.2 L0,6.65946 L7.2,6.65946 L7.2,7.2 L6.65946,7.2 L6.65946,0 L7.2,0 L7.2,0.54054 L0,0.54054 L0,0 L0.54054,0" fill-rule="nonzero" vector-effect="none"/>
        </g>
        <g fill="#00ae49" fill-opacity="0.900008" font-family="Noto Sans" font-size="30" font-style="normal" font-weight="400" stroke="none" transform="matrix(2.77778,0,0,2.77778,12.5,18.5)">
            <path d="M1.61946,-0.54054 L1.61946,-2.16 L2.16,-2.70054 L9.36,-2.70054 L9.90054,-2.16 L9.90054,5.04 L9.36,5.58054 L7.74054,5.58054 L7.74054,4.49946 L9.36,4.49946 L9.36,5.04 L8.81946,5.04 L8.81946,-2.16 L9.36,-2.16 L9.36,-1.61946 L2.16,-1.61946 L2.16,-2.16 L2.70054,-2.16 L2.70054,-0.54054 L1.61946,-0.54054" fill-rule="nonzero" vector-effect="none"/>
        </g>
    </g>
</svg>
