<?xml version='1.0' encoding='UTF-8' standalone='no'?>
<svg baseProfile="tiny" height="8.46667mm" version="1.2" viewBox="0 0 88 88" width="8.46667mm" xmlns="http://www.w3.org/2000/svg" xmlns:xlink="http://www.w3.org/1999/xlink">
    <style id="current-color-scheme" type="text/css">.ColorScheme-Text {color:#e93d58;}</style>
    <title>Qt SVG Document</title>
    <desc>Auto-generated by Klassy window decoration</desc>
    <defs/>
    <g fill="none" fill-rule="evenodd" stroke="black" stroke-linecap="square" stroke-linejoin="bevel" stroke-width="1">
        <g class="ColorScheme-Text" fill="currentColor" fill-opacity="1" font-family="Noto Sans" font-size="36.6667" font-style="normal" font-weight="400" stroke="none" transform="matrix(4.88889,0,0,4.88889,0,0)">
            <path d="M4.60227,13.9086 L13.6023,13.9086 C13.885,13.9086 14.1141,14.1378 14.1141,14.4205 C14.1141,14.7032 13.885,14.9323 13.6023,14.9323 L4.60227,14.9323 C4.31957,14.9323 4.0904,14.7032 4.0904,14.4205 C4.0904,14.1378 4.31957,13.9086 4.60227,13.9086 " fill-rule="nonzero" vector-effect="none"/>
            <path d="M9.51136,9.81767 L13.6023,9.81767 C13.885,9.81767 14.1141,10.0468 14.1141,10.3295 C14.1141,10.6122 13.885,10.8414 13.6023,10.8414 L9.51136,10.8414 C9.22866,10.8414 8.99949,10.6122 8.99949,10.3295 C8.99949,10.0468 9.22866,9.81767 9.51136,9.81767 " fill-rule="nonzero" vector-effect="none"/>
            <path d="M9.51136,5.72676 L13.6023,5.72676 C13.885,5.72676 14.1141,5.95594 14.1141,6.23864 C14.1141,6.52134 13.885,6.75051 13.6023,6.75051 L9.51136,6.75051 C9.22866,6.75051 8.99949,6.52134 8.99949,6.23864 C8.99949,5.95594 9.22866,5.72676 9.51136,5.72676 " fill-rule="nonzero" vector-effect="none"/>
            <path d="M4.9096,4.39773 L4.9096,12.5795 C4.9096,12.8622 4.68043,13.0914 4.39773,13.0914 C4.11503,13.0914 3.88585,12.8622 3.88585,12.5795 L3.88585,4.39773 C3.88585,4.11503 4.11503,3.88585 4.39773,3.88585 C4.68043,3.88585 4.9096,4.11503 4.9096,4.39773 " fill-rule="nonzero" vector-effect="none"/>
            <path d="M2.93729,10.1917 L4.7782,12.2371 L4.39773,12.5795 L4.01725,12.2371 L5.85816,10.1917 C6.04728,9.98153 6.37093,9.9645 6.58106,10.1536 C6.79119,10.3427 6.80823,10.6664 6.61911,10.8765 L4.7782,12.922 L4.39773,13.3447 L4.01725,12.922 L2.17634,10.8765 C1.98723,10.6664 2.00426,10.3427 2.21439,10.1536 C2.42452,9.9645 2.74818,9.98153 2.93729,10.1917 " fill-rule="nonzero" vector-effect="none"/>
        </g>
    </g>
</svg>
