<?xml version='1.0' encoding='UTF-8' standalone='no'?>
<svg baseProfile="tiny" height="8.46667mm" version="1.2" viewBox="0 0 88 88" width="8.46667mm" xmlns="http://www.w3.org/2000/svg" xmlns:xlink="http://www.w3.org/1999/xlink">
    <style id="current-color-scheme" type="text/css">.ColorScheme-Text {color:#e93d58;}</style>
    <title>Qt SVG Document</title>
    <desc>Auto-generated by Klassy window decoration</desc>
    <defs/>
    <g fill="none" fill-rule="evenodd" stroke="black" stroke-linecap="square" stroke-linejoin="bevel" stroke-width="1">
        <g class="ColorScheme-Text" fill="currentColor" fill-opacity="1" font-family="Noto Sans" font-size="36.6667" font-style="normal" font-weight="400" stroke="none" transform="matrix(4.88889,0,0,4.88889,0,0)">
            <path d="M4.09091,4.0904 L13.9091,4.0904 C14.1918,4.0904 14.421,4.31957 14.421,4.60227 C14.421,4.88497 14.1918,5.11415 13.9091,5.11415 L4.09091,5.11415 C3.80821,5.11415 3.57903,4.88497 3.57903,4.60227 C3.57903,4.31957 3.80821,4.0904 4.09091,4.0904 " fill-rule="nonzero" vector-effect="none"/>
            <path d="M3.63805,12.638 L8.63805,7.63805 L9,7.2761 L9.36195,7.63805 L14.362,12.638 C14.5618,12.8379 14.5618,13.1621 14.362,13.362 C14.1621,13.5618 13.8379,13.5618 13.638,13.362 L8.63805,8.36195 L9,8 L9.36195,8.36195 L4.36195,13.362 C4.16205,13.5618 3.83795,13.5618 3.63805,13.362 C3.43815,13.1621 3.43815,12.8379 3.63805,12.638 " fill-rule="nonzero" vector-effect="none"/>
        </g>
    </g>
</svg>
