<?xml version='1.0' encoding='UTF-8' standalone='no'?>
<svg baseProfile="tiny" height="5.29167mm" version="1.2" viewBox="0 0 50 50" width="5.29167mm" xmlns="http://www.w3.org/2000/svg" xmlns:xlink="http://www.w3.org/1999/xlink">
    <style id="current-color-scheme" type="text/css">.ColorScheme-Text {color:#e93d58;}</style>
    <title>Qt SVG Document</title>
    <desc>Auto-generated by Klassy window decoration</desc>
    <defs/>
    <g fill="none" fill-rule="evenodd" stroke="black" stroke-linecap="square" stroke-linejoin="bevel" stroke-width="1">
        <g class="ColorScheme-Text" fill="currentColor" fill-opacity="1" font-family="Noto Sans" font-size="33.3333" font-style="normal" font-weight="400" stroke="none" transform="matrix(2.77778,0,0,2.77778,0,0)">
            <path d="M3.96,3.95946 L14.04,3.95946 C14.3385,3.95946 14.5805,4.20147 14.5805,4.5 C14.5805,4.79853 14.3385,5.04054 14.04,5.04054 L3.96,5.04054 C3.66147,5.04054 3.41946,4.79853 3.41946,4.5 C3.41946,4.20147 3.66147,3.95946 3.96,3.95946 " fill-rule="nonzero" vector-effect="none"/>
            <path d="M4.38222,7.61778 L9.38222,12.6178 L9,13 L8.61778,12.6178 L13.6178,7.61778 C13.8289,7.40669 14.1711,7.40669 14.3822,7.61778 C14.5933,7.82887 14.5933,8.17113 14.3822,8.38222 L9.38222,13.3822 L9,13.7644 L8.61778,13.3822 L3.61778,8.38222 C3.40669,8.17113 3.40669,7.82887 3.61778,7.61778 C3.82887,7.40669 4.17113,7.40669 4.38222,7.61778 " fill-rule="nonzero" vector-effect="none"/>
        </g>
    </g>
</svg>
