<?xml version='1.0' encoding='UTF-8' standalone='no'?>
<svg baseProfile="tiny" height="8.46667mm" version="1.2" viewBox="0 0 64 64" width="8.46667mm" xmlns="http://www.w3.org/2000/svg" xmlns:xlink="http://www.w3.org/1999/xlink">
    <style id="current-color-scheme" type="text/css">.ColorScheme-Text {color:#00ae49;}</style>
    <title>Qt SVG Document</title>
    <desc>Auto-generated by Klassy window decoration</desc>
    <defs/>
    <g fill="none" fill-rule="evenodd" stroke="black" stroke-linecap="square" stroke-linejoin="bevel" stroke-width="1">
        <g fill="#00ae49" fill-opacity="0.900008" font-family="Noto Sans" font-size="26.6667" font-style="normal" font-weight="400" stroke="none" transform="matrix(3.55556,0,0,3.55556,16,24)">
            <path d="M0,-0.563063 L7.03125,-0.563063 L7.59431,0 L7.59431,7.03125 L7.03125,7.59431 L0,7.59431 L-0.563063,7.03125 L-0.563063,0 L0,-0.563063 M0.563063,0 L0.563063,7.03125 L0,7.03125 L0,6.46819 L7.03125,6.46819 L7.03125,7.03125 L6.46819,7.03125 L6.46819,0 L7.03125,0 L7.03125,0.563063 L0,0.563063 L0,0 L0.563063,0" fill-rule="nonzero" vector-effect="none"/>
        </g>
        <g fill="#00ae49" fill-opacity="0.900008" font-family="Noto Sans" font-size="26.6667" font-style="normal" font-weight="400" stroke="none" transform="matrix(3.55556,0,0,3.55556,16,24)">
            <path d="M1.68694,-0.563063 L1.68694,-2.25 L2.25,-2.81306 L9.28125,-2.81306 L9.84431,-2.25 L9.84431,4.78125 L9.28125,5.34431 L7.59431,5.34431 L7.59431,4.21819 L9.28125,4.21819 L9.28125,4.78125 L8.71819,4.78125 L8.71819,-2.25 L9.28125,-2.25 L9.28125,-1.68694 L2.25,-1.68694 L2.25,-2.25 L2.81306,-2.25 L2.81306,-0.563063 L1.68694,-0.563063" fill-rule="nonzero" vector-effect="none"/>
        </g>
    </g>
</svg>
