<?xml version='1.0' encoding='UTF-8' standalone='no'?>
<svg baseProfile="tiny" height="5.82083mm" version="1.2" viewBox="0 0 33 33" width="5.82083mm" xmlns="http://www.w3.org/2000/svg" xmlns:xlink="http://www.w3.org/1999/xlink">
    <style id="current-color-scheme" type="text/css">.ColorScheme-Text {color:#00ae49;}</style>
    <title>Qt SVG Document</title>
    <desc>Auto-generated by Klassy window decoration</desc>
    <defs/>
    <g fill="none" fill-rule="evenodd" stroke="black" stroke-linecap="square" stroke-linejoin="bevel" stroke-width="1">
        <g fill="#00ae49" fill-opacity="0.900008" font-family="Noto Sans" font-size="20" font-style="normal" font-weight="400" stroke="none" transform="matrix(1.83333,0,0,1.83333,0,0)">
            <path d="M3.81764,4.36486 C3.81764,4.13803 4.13803,3.81764 4.36486,3.81764 L14.1806,3.81764 C14.3314,3.81764 14.4607,3.87156 14.5673,3.97817 C14.6739,4.08478 14.7278,4.21409 14.7278,4.36486 L14.7278,14.1806 C14.7278,14.3314 14.6739,14.4607 14.5673,14.5673 C14.4607,14.6739 14.3314,14.7278 14.1806,14.7278 L4.36486,14.7278 C4.21409,14.7278 4.08478,14.6739 3.97817,14.5673 C3.87156,14.4607 3.81764,14.3314 3.81764,14.1806 L3.81764,4.36486 M4.90964,4.36486 L4.90964,14.1806 C4.90964,14.0298 4.85694,13.9017 4.75033,13.7951 C4.64372,13.6885 4.51564,13.6358 4.36486,13.6358 L14.1806,13.6358 C14.0298,13.6358 13.9017,13.6885 13.7951,13.7951 C13.6885,13.9017 13.6358,14.0298 13.6358,14.1806 L13.6358,4.36486 C13.6358,4.51564 13.6885,4.64372 13.7951,4.75033 C13.9017,4.85694 14.0298,4.90964 14.1806,4.90964 L4.36486,4.90964 C4.59035,4.90964 4.90964,4.59035 4.90964,4.36486 " fill-rule="nonzero" vector-effect="none"/>
        </g>
    </g>
</svg>
