<?xml version='1.0' encoding='UTF-8' standalone='no'?>
<svg baseProfile="tiny" height="8.46667mm" version="1.2" viewBox="0 0 56 56" width="8.46667mm" xmlns="http://www.w3.org/2000/svg" xmlns:xlink="http://www.w3.org/1999/xlink">
    <style id="current-color-scheme" type="text/css">.ColorScheme-Text {color:#da0016;}</style>
    <title>Qt SVG Document</title>
    <desc>Auto-generated by Klassy window decoration</desc>
    <defs/>
    <g fill="none" fill-rule="evenodd" stroke="black" stroke-linecap="square" stroke-linejoin="bevel" stroke-width="1">
        <g fill="#da0016" fill-opacity="0.719997" font-family="Noto Sans" font-size="23.3333" font-style="normal" font-weight="400" stroke="none" transform="matrix(3.5,0,0,3.5,0,0)">
            <path d="M2,3.2 C2,2.53726 2.53726,2 3.2,2 L12.8,2 C13.4627,2 14,2.53726 14,3.2 L14,12.8 C14,13.4627 13.4627,14 12.8,14 L3.2,14 C2.53726,14 2,13.4627 2,12.8 L2,3.2" fill-rule="evenodd" vector-effect="none"/>
        </g>
        <g fill="#dee0e2" fill-opacity="1" font-family="Noto Sans" font-size="23.3333" font-style="normal" font-weight="400" stroke="none" transform="matrix(3.11111,0,0,3.11111,0,0)">
            <path d="M4.68055,3.99802 L14.002,13.3194 C14.1905,13.5079 14.1905,13.8135 14.002,14.002 C13.8135,14.1905 13.5079,14.1905 13.3194,14.002 L3.99802,4.68055 C3.80954,4.49208 3.80954,4.1865 3.99802,3.99802 C4.1865,3.80954 4.49208,3.80954 4.68055,3.99802 " fill-rule="nonzero" vector-effect="none"/>
            <path d="M14.002,4.68055 L4.68055,14.002 C4.49208,14.1905 4.1865,14.1905 3.99802,14.002 C3.80954,13.8135 3.80954,13.5079 3.99802,13.3194 L13.3194,3.99802 C13.5079,3.80954 13.8135,3.80954 14.002,3.99802 C14.1905,4.1865 14.1905,4.49208 14.002,4.68055 " fill-rule="nonzero" vector-effect="none"/>
        </g>
    </g>
</svg>
