<?xml version='1.0' encoding='UTF-8' standalone='no'?>
<svg baseProfile="tiny" height="8.46667mm" version="1.2" viewBox="0 0 56 56" width="8.46667mm" xmlns="http://www.w3.org/2000/svg" xmlns:xlink="http://www.w3.org/1999/xlink">
    <style id="current-color-scheme" type="text/css">.ColorScheme-Text {color:#e93d58;}</style>
    <title>Qt SVG Document</title>
    <desc>Auto-generated by Klassy window decoration</desc>
    <defs/>
    <g fill="none" fill-rule="evenodd" stroke="black" stroke-linecap="square" stroke-linejoin="bevel" stroke-width="1">
        <g class="ColorScheme-Text" fill="currentColor" fill-opacity="1" font-family="Noto Sans" font-size="23.3333" font-style="normal" font-weight="400" stroke="none" transform="matrix(3.11111,0,0,3.11111,0,0)">
            <path d="M3.85714,4.17809 L14.1429,4.17809 C14.4094,4.17809 14.6255,4.39417 14.6255,4.66071 C14.6255,4.92726 14.4094,5.14334 14.1429,5.14334 L3.85714,5.14334 C3.5906,5.14334 3.37452,4.92726 3.37452,4.66071 C3.37452,4.39417 3.5906,4.17809 3.85714,4.17809 " fill-rule="nonzero" vector-effect="none"/>
            <path d="M3.65873,12.6587 L8.65873,7.65873 L9,7.31747 L9.34127,7.65873 L14.3413,12.6587 C14.5297,12.8472 14.5297,13.1528 14.3413,13.3413 C14.1528,13.5297 13.8472,13.5297 13.6587,13.3413 L8.65873,8.34127 L9,8 L9.34127,8.34127 L4.34127,13.3413 C4.15279,13.5297 3.84721,13.5297 3.65873,13.3413 C3.47026,13.1528 3.47026,12.8472 3.65873,12.6587 " fill-rule="nonzero" vector-effect="none"/>
        </g>
    </g>
</svg>
