<?xml version='1.0' encoding='UTF-8' standalone='no'?>
<svg baseProfile="tiny" height="8.46667mm" version="1.2" viewBox="0 0 56 56" width="8.46667mm" xmlns="http://www.w3.org/2000/svg" xmlns:xlink="http://www.w3.org/1999/xlink">
    <style id="current-color-scheme" type="text/css">.ColorScheme-Text {color:#00ae49;}</style>
    <title>Qt SVG Document</title>
    <desc>Auto-generated by Klassy window decoration</desc>
    <defs/>
    <g fill="none" fill-rule="evenodd" stroke="black" stroke-linecap="square" stroke-linejoin="bevel" stroke-width="1">
        <g fill="#00ae49" fill-opacity="0.900008" font-family="Noto Sans" font-size="23.3333" font-style="normal" font-weight="400" stroke="none" transform="matrix(3.11111,0,0,3.11111,13.5,20.5)">
            <path d="M0,-0.482625 L7.07143,-0.482625 L7.55405,0 L7.55405,7.07143 L7.07143,7.55405 L0,7.55405 L-0.482625,7.07143 L-0.482625,0 L0,-0.482625 M0.482625,0 L0.482625,7.07143 L0,7.07143 L0,6.5888 L7.07143,6.5888 L7.07143,7.07143 L6.5888,7.07143 L6.5888,0 L7.07143,0 L7.07143,0.482625 L0,0.482625 L0,0 L0.482625,0" fill-rule="nonzero" vector-effect="none"/>
        </g>
        <g fill="#00ae49" fill-opacity="0.900008" font-family="Noto Sans" font-size="23.3333" font-style="normal" font-weight="400" stroke="none" transform="matrix(3.11111,0,0,3.11111,13.5,20.5)">
            <path d="M1.76738,-0.482625 L1.76738,-2.25 L2.25,-2.73263 L9.32143,-2.73263 L9.80405,-2.25 L9.80405,4.82143 L9.32143,5.30405 L7.55405,5.30405 L7.55405,4.3388 L9.32143,4.3388 L9.32143,4.82143 L8.8388,4.82143 L8.8388,-2.25 L9.32143,-2.25 L9.32143,-1.76738 L2.25,-1.76738 L2.25,-2.25 L2.73263,-2.25 L2.73263,-0.482625 L1.76738,-0.482625" fill-rule="nonzero" vector-effect="none"/>
        </g>
    </g>
</svg>
