<?xml version='1.0' encoding='UTF-8' standalone='no'?>
<svg baseProfile="tiny" height="8.46667mm" version="1.2" viewBox="0 0 56 56" width="8.46667mm" xmlns="http://www.w3.org/2000/svg" xmlns:xlink="http://www.w3.org/1999/xlink">
    <style id="current-color-scheme" type="text/css">.ColorScheme-Text {color:#00ae49;}</style>
    <title>Qt SVG Document</title>
    <desc>Auto-generated by Klassy window decoration</desc>
    <defs/>
    <g fill="none" fill-rule="evenodd" stroke="black" stroke-linecap="square" stroke-linejoin="bevel" stroke-width="1">
        <g fill="#00ae49" fill-opacity="0.900008" font-family="Noto Sans" font-size="23.3333" font-style="normal" font-weight="400" stroke="none" transform="matrix(3.11111,0,0,3.11111,0,0)">
            <path d="M3.85666,4.34045 C3.85666,4.1399 4.1399,3.85666 4.34045,3.85666 L13.6595,3.85666 C13.8601,3.85666 14.1433,4.1399 14.1433,4.34045 L14.1433,13.6595 C14.1433,13.8601 13.8601,14.1433 13.6595,14.1433 L4.34045,14.1433 C4.1399,14.1433 3.85666,13.8601 3.85666,13.6595 L3.85666,4.34045 M4.82191,4.34045 L4.82191,13.6595 C4.82191,13.4603 4.53972,13.1781 4.34045,13.1781 L13.6595,13.1781 C13.4603,13.1781 13.1781,13.4603 13.1781,13.6595 L13.1781,4.34045 C13.1781,4.53972 13.4603,4.82191 13.6595,4.82191 L4.34045,4.82191 C4.53972,4.82191 4.82191,4.53972 4.82191,4.34045 " fill-rule="nonzero" vector-effect="none"/>
        </g>
    </g>
</svg>
