<?xml version='1.0' encoding='UTF-8' standalone='no'?>
<svg baseProfile="tiny" height="8.46667mm" version="1.2" viewBox="0 0 56 56" width="8.46667mm" xmlns="http://www.w3.org/2000/svg" xmlns:xlink="http://www.w3.org/1999/xlink">
    <style id="current-color-scheme" type="text/css">.ColorScheme-Text {color:#e93d58;}</style>
    <title>Qt SVG Document</title>
    <desc>Auto-generated by Klassy window decoration</desc>
    <defs/>
    <g fill="none" fill-rule="evenodd" stroke="black" stroke-linecap="square" stroke-linejoin="bevel" stroke-width="1">
        <g class="ColorScheme-Text" fill="currentColor" fill-opacity="1" font-family="Noto Sans" font-size="23.3333" font-style="normal" font-weight="400" stroke="none" transform="matrix(3.11111,0,0,3.11111,0,0)">
            <path d="M4.66071,14.1424 L13.6607,14.1424 C13.9273,14.1424 14.1433,14.3585 14.1433,14.625 C14.1433,14.8915 13.9273,15.1076 13.6607,15.1076 L4.66071,15.1076 C4.39417,15.1076 4.17809,14.8915 4.17809,14.625 C4.17809,14.3585 4.39417,14.1424 4.66071,14.1424 " fill-rule="nonzero" vector-effect="none"/>
            <path d="M9.48214,9.9638 L13.6607,9.9638 C13.9273,9.9638 14.1433,10.1799 14.1433,10.4464 C14.1433,10.713 13.9273,10.9291 13.6607,10.9291 L9.48214,10.9291 C9.2156,10.9291 8.99952,10.713 8.99952,10.4464 C8.99952,10.1799 9.2156,9.9638 9.48214,9.9638 " fill-rule="nonzero" vector-effect="none"/>
            <path d="M9.48214,5.78523 L13.6607,5.78523 C13.9273,5.78523 14.1433,6.00131 14.1433,6.26786 C14.1433,6.5344 13.9273,6.75048 13.6607,6.75048 L9.48214,6.75048 C9.2156,6.75048 8.99952,6.5344 8.99952,6.26786 C8.99952,6.00131 9.2156,5.78523 9.48214,5.78523 " fill-rule="nonzero" vector-effect="none"/>
            <path d="M4.82191,4.33929 L4.82191,12.375 C4.82191,12.6415 4.60583,12.8576 4.33929,12.8576 C4.07274,12.8576 3.85666,12.6415 3.85666,12.375 L3.85666,4.33929 C3.85666,4.07274 4.07274,3.85666 4.33929,3.85666 C4.60583,3.85666 4.82191,4.07274 4.82191,4.33929 " fill-rule="nonzero" vector-effect="none"/>
            <path d="M2.75198,10.1052 L4.68055,12.0337 L4.33929,12.375 L3.99802,12.0337 L5.92659,10.1052 C6.11507,9.91668 6.42065,9.91668 6.60912,10.1052 C6.7976,10.2936 6.7976,10.5992 6.60912,10.7877 L4.68055,12.7163 L4.33929,13.0575 L3.99802,12.7163 L2.06945,10.7877 C1.88097,10.5992 1.88097,10.2936 2.06945,10.1052 C2.25792,9.91668 2.5635,9.91668 2.75198,10.1052 " fill-rule="nonzero" vector-effect="none"/>
        </g>
    </g>
</svg>
