<?xml version='1.0' encoding='UTF-8' standalone='no'?>
<svg baseProfile="tiny" height="5.29167mm" version="1.2" viewBox="0 0 55 55" width="5.29167mm" xmlns="http://www.w3.org/2000/svg" xmlns:xlink="http://www.w3.org/1999/xlink">
    <style id="current-color-scheme" type="text/css">.ColorScheme-Text {color:#e93d58;}</style>
    <title>Qt SVG Document</title>
    <desc>Auto-generated by Klassy window decoration</desc>
    <defs/>
    <g fill="none" fill-rule="evenodd" stroke="black" stroke-linecap="square" stroke-linejoin="bevel" stroke-width="1">
        <g class="ColorScheme-Text" fill="currentColor" fill-opacity="1" font-family="Noto Sans" font-size="36.6667" font-style="normal" font-weight="400" stroke="none" transform="matrix(3.05556,0,0,3.05556,0,0)">
            <path d="M4.41818,14.0722 L13.5818,14.0722 C13.8532,14.0722 14.0732,14.2922 14.0732,14.5636 C14.0732,14.835 13.8532,15.055 13.5818,15.055 L4.41818,15.055 C4.14679,15.055 3.92678,14.835 3.92678,14.5636 C3.92678,14.2922 4.14679,14.0722 4.41818,14.0722 " fill-rule="nonzero" vector-effect="none"/>
            <path d="M9.65455,9.81769 L13.5818,9.81769 C13.8532,9.81769 14.0732,10.0377 14.0732,10.3091 C14.0732,10.5805 13.8532,10.8005 13.5818,10.8005 L9.65455,10.8005 C9.38315,10.8005 9.16315,10.5805 9.16315,10.3091 C9.16315,10.0377 9.38315,9.81769 9.65455,9.81769 " fill-rule="nonzero" vector-effect="none"/>
            <path d="M9.65455,5.56315 L13.5818,5.56315 C13.8532,5.56315 14.0732,5.78315 14.0732,6.05455 C14.0732,6.32594 13.8532,6.54595 13.5818,6.54595 L9.65455,6.54595 C9.38315,6.54595 9.16315,6.32594 9.16315,6.05455 C9.16315,5.78315 9.38315,5.56315 9.65455,5.56315 " fill-rule="nonzero" vector-effect="none"/>
            <path d="M4.90958,4.41818 L4.90958,12.6 C4.90958,12.8714 4.68957,13.0914 4.41818,13.0914 C4.14679,13.0914 3.92678,12.8714 3.92678,12.6 L3.92678,4.41818 C3.92678,4.14679 4.14679,3.92678 4.41818,3.92678 C4.68957,3.92678 4.90958,4.14679 4.90958,4.41818 " fill-rule="nonzero" vector-effect="none"/>
            <path d="M2.80202,10.2889 L4.76565,12.2525 L4.41818,12.6 L4.07071,12.2525 L6.03435,10.2889 C6.22625,10.097 6.53739,10.097 6.72929,10.2889 C6.92119,10.4808 6.92119,10.7919 6.72929,10.9838 L4.76565,12.9475 L4.41818,13.2949 L4.07071,12.9475 L2.10707,10.9838 C1.91517,10.7919 1.91517,10.4808 2.10707,10.2889 C2.29898,10.097 2.61011,10.097 2.80202,10.2889 " fill-rule="nonzero" vector-effect="none"/>
        </g>
    </g>
</svg>
