<?xml version='1.0' encoding='UTF-8' standalone='no'?>
<svg baseProfile="tiny" height="8.46667mm" version="1.2" viewBox="0 0 40 40" width="8.46667mm" xmlns="http://www.w3.org/2000/svg" xmlns:xlink="http://www.w3.org/1999/xlink">
    <style id="current-color-scheme" type="text/css">.ColorScheme-Text {color:#da0016;}</style>
    <title>Qt SVG Document</title>
    <desc>Auto-generated by Klassy window decoration</desc>
    <defs/>
    <g fill="none" fill-rule="evenodd" stroke="black" stroke-linecap="square" stroke-linejoin="bevel" stroke-width="1">
        <g fill="#da0016" fill-opacity="0.719997" font-family="Noto Sans" font-size="16.6667" font-style="normal" font-weight="400" stroke="none" transform="matrix(2.5,0,0,2.5,0,0)">
            <path d="M2,3.2 C2,2.53726 2.53726,2 3.2,2 L12.8,2 C13.4627,2 14,2.53726 14,3.2 L14,12.8 C14,13.4627 13.4627,14 12.8,14 L3.2,14 C2.53726,14 2,13.4627 2,12.8 L2,3.2" fill-rule="evenodd" vector-effect="none"/>
        </g>
        <g fill="#dee0e2" fill-opacity="1" font-family="Noto Sans" font-size="16.6667" font-style="normal" font-weight="400" stroke="none" transform="matrix(2.22222,0,0,2.22222,0,0)">
            <path d="M4.81852,4.18148 L13.8185,13.1815 C13.9944,13.3574 13.9944,13.6426 13.8185,13.8185 C13.6426,13.9944 13.3574,13.9944 13.1815,13.8185 L4.18148,4.81852 C4.00557,4.6426 4.00557,4.3574 4.18148,4.18148 C4.3574,4.00557 4.6426,4.00557 4.81852,4.18148 " fill-rule="nonzero" vector-effect="none"/>
            <path d="M13.8185,4.81852 L4.81852,13.8185 C4.6426,13.9944 4.3574,13.9944 4.18148,13.8185 C4.00557,13.6426 4.00557,13.3574 4.18148,13.1815 L13.1815,4.18148 C13.3574,4.00557 13.6426,4.00557 13.8185,4.18148 C13.9944,4.3574 13.9944,4.6426 13.8185,4.81852 " fill-rule="nonzero" vector-effect="none"/>
        </g>
    </g>
</svg>
