<?xml version='1.0' encoding='UTF-8' standalone='no'?>
<svg baseProfile="tiny" height="5.82083mm" version="1.2" viewBox="0 0 55 55" width="5.82083mm" xmlns="http://www.w3.org/2000/svg" xmlns:xlink="http://www.w3.org/1999/xlink">
    <style id="current-color-scheme" type="text/css">.ColorScheme-Text {color:#e93d58;}</style>
    <title>Qt SVG Document</title>
    <desc>Auto-generated by Klassy window decoration</desc>
    <defs/>
    <g fill="none" fill-rule="evenodd" stroke="black" stroke-linecap="square" stroke-linejoin="bevel" stroke-width="1">
        <g class="ColorScheme-Text" fill="currentColor" fill-opacity="1" font-family="Noto Sans" font-size="33.3333" font-style="normal" font-weight="400" stroke="none" transform="matrix(3.05556,0,0,3.05556,0,0)">
            <path d="M4.41818,12.4359 L8.34545,12.4359 C8.61685,12.4359 8.83685,12.6559 8.83685,12.9273 C8.83685,13.1987 8.61685,13.4187 8.34545,13.4187 L4.41818,13.4187 C4.14679,13.4187 3.92678,13.1987 3.92678,12.9273 C3.92678,12.6559 4.14679,12.4359 4.41818,12.4359 " fill-rule="nonzero" vector-effect="none"/>
            <path d="M4.41818,8.18133 L8.34545,8.18133 C8.61685,8.18133 8.83685,8.40133 8.83685,8.67273 C8.83685,8.94412 8.61685,9.16413 8.34545,9.16413 L4.41818,9.16413 C4.14679,9.16413 3.92678,8.94412 3.92678,8.67273 C3.92678,8.40133 4.14679,8.18133 4.41818,8.18133 " fill-rule="nonzero" vector-effect="none"/>
            <path d="M4.41818,3.92678 L13.5818,3.92678 C13.8532,3.92678 14.0732,4.14679 14.0732,4.41818 C14.0732,4.68957 13.8532,4.90958 13.5818,4.90958 L4.41818,4.90958 C4.14679,4.90958 3.92678,4.68957 3.92678,4.41818 C3.92678,4.14679 4.14679,3.92678 4.41818,3.92678 " fill-rule="nonzero" vector-effect="none"/>
            <path d="M14.0732,6.38182 L14.0732,14.5636 C14.0732,14.835 13.8532,15.055 13.5818,15.055 C13.3104,15.055 13.0904,14.835 13.0904,14.5636 L13.0904,6.38182 C13.0904,6.11043 13.3104,5.89042 13.5818,5.89042 C13.8532,5.89042 14.0732,6.11043 14.0732,6.38182 " fill-rule="nonzero" vector-effect="none"/>
            <path d="M11.2707,7.99798 L13.2343,6.03435 L13.5818,5.68687 L13.9293,6.03435 L15.8929,7.99798 C16.0848,8.18989 16.0848,8.50102 15.8929,8.69293 C15.701,8.88483 15.3899,8.88483 15.198,8.69293 L13.2343,6.72929 L13.5818,6.38182 L13.9293,6.72929 L11.9657,8.69293 C11.7738,8.88483 11.4626,8.88483 11.2707,8.69293 C11.0788,8.50102 11.0788,8.18989 11.2707,7.99798 " fill-rule="nonzero" vector-effect="none"/>
        </g>
    </g>
</svg>
