<?xml version='1.0' encoding='UTF-8' standalone='no'?>
<svg baseProfile="tiny" height="4.7625mm" version="1.2" viewBox="0 0 36 36" width="4.7625mm" xmlns="http://www.w3.org/2000/svg" xmlns:xlink="http://www.w3.org/1999/xlink">
    <style id="current-color-scheme" type="text/css">.ColorScheme-Text {color:#e93d58;}</style>
    <title>Qt SVG Document</title>
    <desc>Auto-generated by Klassy window decoration</desc>
    <defs/>
    <g fill="none" fill-rule="evenodd" stroke="black" stroke-linecap="square" stroke-linejoin="bevel" stroke-width="1">
        <g class="ColorScheme-Text" fill="currentColor" fill-opacity="1" font-family="Noto Sans" font-size="26.6667" font-style="normal" font-weight="400" stroke="none" transform="matrix(2,0,0,2,0,0)">
            <path d="M4,3.9995 L14,3.9995 C14.2764,3.9995 14.5005,4.22358 14.5005,4.5 C14.5005,4.77642 14.2764,5.0005 14,5.0005 L4,5.0005 C3.72358,5.0005 3.4995,4.77642 3.4995,4.5 C3.4995,4.22358 3.72358,3.9995 4,3.9995 " fill-rule="nonzero" vector-effect="none"/>
            <path d="M4.35391,7.64609 L9.35391,12.6461 L9,13 L8.64609,12.6461 L13.6461,7.64609 C13.8416,7.45064 14.1584,7.45064 14.3539,7.64609 C14.5494,7.84155 14.5494,8.15845 14.3539,8.35391 L9.35391,13.3539 L9,13.7078 L8.64609,13.3539 L3.64609,8.35391 C3.45064,8.15845 3.45064,7.84155 3.64609,7.64609 C3.84155,7.45064 4.15845,7.45064 4.35391,7.64609 " fill-rule="nonzero" vector-effect="none"/>
        </g>
    </g>
</svg>
