<?xml version='1.0' encoding='UTF-8' standalone='no'?>
<svg baseProfile="tiny" height="5.86894mm" version="1.2" viewBox="0 0 61 61" width="5.86894mm" xmlns="http://www.w3.org/2000/svg" xmlns:xlink="http://www.w3.org/1999/xlink">
    <style id="current-color-scheme" type="text/css">.ColorScheme-Text {color:#da0016;}</style>
    <title>Qt SVG Document</title>
    <desc>Auto-generated by Klassy window decoration</desc>
    <defs/>
    <g fill="none" fill-rule="evenodd" stroke="black" stroke-linecap="square" stroke-linejoin="bevel" stroke-width="1">
        <g fill="#da0016" fill-opacity="0.719997" font-family="Noto Sans" font-size="36.6667" font-style="normal" font-weight="400" stroke="none" transform="matrix(3.8125,0,0,3.8125,0,0)">
            <path d="M2,3.2 C2,2.53726 2.53726,2 3.2,2 L12.8,2 C13.4627,2 14,2.53726 14,3.2 L14,12.8 C14,13.4627 13.4627,14 12.8,14 L3.2,14 C2.53726,14 2,13.4627 2,12.8 L2,3.2" fill-rule="evenodd" vector-effect="none"/>
        </g>
        <g fill="#31363b" fill-opacity="1" font-family="Noto Sans" font-size="36.6667" font-style="normal" font-weight="400" stroke="none" transform="matrix(3.38889,0,0,3.38889,0,0)">
            <path d="M4.88707,4.26048 L14.0346,13.408 C14.2076,13.581 14.2076,13.8616 14.0346,14.0346 C13.8616,14.2076 13.581,14.2076 13.408,14.0346 L4.26048,4.88707 C4.08745,4.71404 4.08745,4.4335 4.26048,4.26048 C4.4335,4.08745 4.71404,4.08745 4.88707,4.26048 " fill-rule="nonzero" vector-effect="none"/>
            <path d="M14.0346,4.88707 L4.88707,14.0346 C4.71404,14.2076 4.4335,14.2076 4.26048,14.0346 C4.08745,13.8616 4.08745,13.581 4.26048,13.408 L13.408,4.26048 C13.581,4.08745 13.8616,4.08745 14.0346,4.26048 C14.2076,4.4335 14.2076,4.71404 14.0346,4.88707 " fill-rule="nonzero" vector-effect="none"/>
        </g>
    </g>
</svg>
