<?xml version='1.0' encoding='UTF-8' standalone='no'?>
<svg baseProfile="tiny" height="5.86894mm" version="1.2" viewBox="0 0 61 61" width="5.86894mm" xmlns="http://www.w3.org/2000/svg" xmlns:xlink="http://www.w3.org/1999/xlink">
    <style id="current-color-scheme" type="text/css">.ColorScheme-Text {color:#e93d58;}</style>
    <title>Qt SVG Document</title>
    <desc>Auto-generated by Klassy window decoration</desc>
    <defs/>
    <g fill="none" fill-rule="evenodd" stroke="black" stroke-linecap="square" stroke-linejoin="bevel" stroke-width="1">
        <g class="ColorScheme-Text" fill="currentColor" fill-opacity="1" font-family="Noto Sans" font-size="36.6667" font-style="normal" font-weight="400" stroke="none" transform="matrix(3.38889,0,0,3.38889,0,0)">
            <path d="M4.13115,4.1307 L13.8689,4.1307 C14.1136,4.1307 14.3119,4.32907 14.3119,4.57377 C14.3119,4.81847 14.1136,5.01684 13.8689,5.01684 L4.13115,5.01684 C3.88645,5.01684 3.68808,4.81847 3.68808,4.57377 C3.68808,4.32907 3.88645,4.1307 4.13115,4.1307 " fill-rule="nonzero" vector-effect="none"/>
            <path d="M4.31329,7.68671 L9.31329,12.6867 L9,13 L8.68671,12.6867 L13.6867,7.68671 C13.8597,7.51368 14.1403,7.51368 14.3133,7.68671 C14.4863,7.85973 14.4863,8.14027 14.3133,8.31329 L9.31329,13.3133 L9,13.6266 L8.68671,13.3133 L3.68671,8.31329 C3.51368,8.14027 3.51368,7.85973 3.68671,7.68671 C3.85973,7.51368 4.14027,7.51368 4.31329,7.68671 " fill-rule="nonzero" vector-effect="none"/>
        </g>
    </g>
</svg>
