<?xml version='1.0' encoding='UTF-8' standalone='no'?>
<svg baseProfile="tiny" height="5.86894mm" version="1.2" viewBox="0 0 61 61" width="5.86894mm" xmlns="http://www.w3.org/2000/svg" xmlns:xlink="http://www.w3.org/1999/xlink">
    <style id="current-color-scheme" type="text/css">.ColorScheme-Text {color:#e93d58;}</style>
    <title>Qt SVG Document</title>
    <desc>Auto-generated by Klassy window decoration</desc>
    <defs/>
    <g fill="none" fill-rule="evenodd" stroke="black" stroke-linecap="square" stroke-linejoin="bevel" stroke-width="1">
        <g class="ColorScheme-Text" fill="currentColor" fill-opacity="1" font-family="Noto Sans" font-size="36.6667" font-style="normal" font-weight="400" stroke="none" transform="matrix(3.38889,0,0,3.38889,0,0)">
            <path d="M4.57377,14.1635 L13.4262,14.1635 C13.6709,14.1635 13.8693,14.3619 13.8693,14.6066 C13.8693,14.8513 13.6709,15.0496 13.4262,15.0496 L4.57377,15.0496 C4.32907,15.0496 4.1307,14.8513 4.1307,14.6066 C4.1307,14.3619 4.32907,14.1635 4.57377,14.1635 " fill-rule="nonzero" vector-effect="none"/>
            <path d="M9.59016,10.0323 L13.4262,10.0323 C13.6709,10.0323 13.8693,10.2307 13.8693,10.4754 C13.8693,10.7201 13.6709,10.9185 13.4262,10.9185 L9.59016,10.9185 C9.34547,10.9185 9.1471,10.7201 9.1471,10.4754 C9.1471,10.2307 9.34547,10.0323 9.59016,10.0323 " fill-rule="nonzero" vector-effect="none"/>
            <path d="M9.59016,5.9012 L13.4262,5.9012 C13.6709,5.9012 13.8693,6.09956 13.8693,6.34426 C13.8693,6.58896 13.6709,6.78733 13.4262,6.78733 L9.59016,6.78733 C9.34547,6.78733 9.1471,6.58896 9.1471,6.34426 C9.1471,6.09956 9.34547,5.9012 9.59016,5.9012 " fill-rule="nonzero" vector-effect="none"/>
            <path d="M5.01684,4.57377 L5.01684,12.541 C5.01684,12.7857 4.81847,12.984 4.57377,12.984 C4.32907,12.984 4.1307,12.7857 4.1307,12.541 L4.1307,4.57377 C4.1307,4.32907 4.32907,4.1307 4.57377,4.1307 C4.81847,4.1307 5.01684,4.32907 5.01684,4.57377 " fill-rule="nonzero" vector-effect="none"/>
            <path d="M2.82149,10.1621 L4.88707,12.2277 L4.57377,12.541 L4.26048,12.2277 L6.32605,10.1621 C6.49908,9.98909 6.77961,9.98909 6.95264,10.1621 C7.12567,10.3351 7.12567,10.6157 6.95264,10.7887 L4.88707,12.8543 L4.57377,13.1676 L4.26048,12.8543 L2.1949,10.7887 C2.02187,10.6157 2.02187,10.3351 2.1949,10.1621 C2.36793,9.98909 2.64846,9.98909 2.82149,10.1621 " fill-rule="nonzero" vector-effect="none"/>
        </g>
    </g>
</svg>
