<?xml version='1.0' encoding='UTF-8' standalone='no'?>
<svg baseProfile="tiny" height="5.86894mm" version="1.2" viewBox="0 0 61 61" width="5.86894mm" xmlns="http://www.w3.org/2000/svg" xmlns:xlink="http://www.w3.org/1999/xlink">
    <style id="current-color-scheme" type="text/css">.ColorScheme-Text {color:#00ae49;}</style>
    <title>Qt SVG Document</title>
    <desc>Auto-generated by Klassy window decoration</desc>
    <defs/>
    <g fill="none" fill-rule="evenodd" stroke="black" stroke-linecap="square" stroke-linejoin="bevel" stroke-width="1">
        <g fill="#00ae49" fill-opacity="0.900008" font-family="Noto Sans" font-size="36.6667" font-style="normal" font-weight="400" stroke="none" transform="matrix(3.38889,0,0,3.38889,0,0)">
            <path d="M4.1307,4.57491 C4.1307,4.39076 4.39076,4.1307 4.57491,4.1307 L13.7202,4.1307 C13.9043,4.1307 14.1644,4.39076 14.1644,4.57491 L14.1644,13.7202 C14.1644,13.9043 13.9043,14.1644 13.7202,14.1644 L4.57491,14.1644 C4.39076,14.1644 4.1307,13.9043 4.1307,13.7202 L4.1307,4.57491 M5.01684,4.57491 L5.01684,13.7202 C5.01684,13.5373 4.75781,13.2782 4.57491,13.2782 L13.7202,13.2782 C13.5373,13.2782 13.2782,13.5373 13.2782,13.7202 L13.2782,4.57491 C13.2782,4.75781 13.5373,5.01684 13.7202,5.01684 L4.57491,5.01684 C4.75781,5.01684 5.01684,4.75781 5.01684,4.57491 " fill-rule="nonzero" vector-effect="none"/>
        </g>
    </g>
</svg>
