<?xml version='1.0' encoding='UTF-8' standalone='no'?>
<svg baseProfile="tiny" height="5.86894mm" version="1.2" viewBox="0 0 61 61" width="5.86894mm" xmlns="http://www.w3.org/2000/svg" xmlns:xlink="http://www.w3.org/1999/xlink">
    <style id="current-color-scheme" type="text/css">.ColorScheme-Text {color:#e93d58;}</style>
    <title>Qt SVG Document</title>
    <desc>Auto-generated by Klassy window decoration</desc>
    <defs/>
    <g fill="none" fill-rule="evenodd" stroke="black" stroke-linecap="square" stroke-linejoin="bevel" stroke-width="1">
        <g class="ColorScheme-Text" fill="currentColor" fill-opacity="1" font-family="Noto Sans" font-size="36.6667" font-style="normal" font-weight="400" stroke="none" transform="matrix(3.38889,0,0,3.38889,0,0)">
            <path d="M4.13115,4.1307 L13.8689,4.1307 C14.1136,4.1307 14.3119,4.32907 14.3119,4.57377 C14.3119,4.81847 14.1136,5.01684 13.8689,5.01684 L4.13115,5.01684 C3.88645,5.01684 3.68808,4.81847 3.68808,4.57377 C3.68808,4.32907 3.88645,4.1307 4.13115,4.1307 " fill-rule="nonzero" vector-effect="none"/>
            <path d="M3.68671,12.6867 L8.68671,7.68671 L9,7.37341 L9.31329,7.68671 L14.3133,12.6867 C14.4863,12.8597 14.4863,13.1403 14.3133,13.3133 C14.1403,13.4863 13.8597,13.4863 13.6867,13.3133 L8.68671,8.31329 L9,8 L9.31329,8.31329 L4.31329,13.3133 C4.14027,13.4863 3.85973,13.4863 3.68671,13.3133 C3.51368,13.1403 3.51368,12.8597 3.68671,12.6867 " fill-rule="nonzero" vector-effect="none"/>
        </g>
    </g>
</svg>
