<?xml version='1.0' encoding='UTF-8' standalone='no'?>
<svg baseProfile="tiny" height="5.86894mm" version="1.2" viewBox="0 0 61 61" width="5.86894mm" xmlns="http://www.w3.org/2000/svg" xmlns:xlink="http://www.w3.org/1999/xlink">
    <style id="current-color-scheme" type="text/css">.ColorScheme-Text {color:#00ae49;}</style>
    <title>Qt SVG Document</title>
    <desc>Auto-generated by Klassy window decoration</desc>
    <defs/>
    <g fill="none" fill-rule="evenodd" stroke="black" stroke-linecap="square" stroke-linejoin="bevel" stroke-width="1">
        <g fill="#00ae49" fill-opacity="0.900008" font-family="Noto Sans" font-size="36.6667" font-style="normal" font-weight="400" stroke="none" transform="matrix(3.38889,0,0,3.38889,15.5,22.5)">
            <path d="M0,-0.443066 L7.08197,-0.443066 L7.52503,0 L7.52503,7.08197 L7.08197,7.52503 L0,7.52503 L-0.443066,7.08197 L-0.443066,0 L0,-0.443066 M0.443066,0 L0.443066,7.08197 L0,7.08197 L0,6.6389 L7.08197,6.6389 L7.08197,7.08197 L6.6389,7.08197 L6.6389,0 L7.08197,0 L7.08197,0.443066 L0,0.443066 L0,0 L0.443066,0" fill-rule="nonzero" vector-effect="none"/>
        </g>
        <g fill="#00ae49" fill-opacity="0.900008" font-family="Noto Sans" font-size="36.6667" font-style="normal" font-weight="400" stroke="none" transform="matrix(3.38889,0,0,3.38889,15.5,22.5)">
            <path d="M1.62251,-0.443066 L1.62251,-2.06557 L2.06557,-2.50864 L9.14754,-2.50864 L9.59061,-2.06557 L9.59061,5.01639 L9.14754,5.45946 L7.52503,5.45946 L7.52503,4.57333 L9.14754,4.57333 L9.14754,5.01639 L8.70448,5.01639 L8.70448,-2.06557 L9.14754,-2.06557 L9.14754,-1.62251 L2.06557,-1.62251 L2.06557,-2.06557 L2.50864,-2.06557 L2.50864,-0.443066 L1.62251,-0.443066" fill-rule="nonzero" vector-effect="none"/>
        </g>
    </g>
</svg>
