<?xml version='1.0' encoding='UTF-8' standalone='no'?>
<svg baseProfile="tiny" height="12.7mm" version="1.2" viewBox="0 0 84 84" width="12.7mm" xmlns="http://www.w3.org/2000/svg" xmlns:xlink="http://www.w3.org/1999/xlink">
    <style id="current-color-scheme" type="text/css">.ColorScheme-Text {color:#00ae49;}</style>
    <title>Qt SVG Document</title>
    <desc>Auto-generated by Klassy window decoration</desc>
    <defs/>
    <g fill="none" fill-rule="evenodd" stroke="black" stroke-linecap="square" stroke-linejoin="bevel" stroke-width="1">
        <g fill="#00ae49" fill-opacity="0.900008" font-family="Noto Sans" font-size="23.3333" font-style="normal" font-weight="400" stroke="none" transform="matrix(4.66667,0,0,4.66667,0,0)">
            <path d="M3.85661,4.39401 C3.85661,4.17125 4.17125,3.85661 4.39401,3.85661 L13.606,3.85661 C13.7541,3.85661 13.881,3.90954 13.9858,4.01425 C14.0905,4.11896 14.1434,4.24593 14.1434,4.39401 L14.1434,13.606 C14.1434,13.7541 14.0905,13.881 13.9858,13.9858 C13.881,14.0905 13.7541,14.1434 13.606,14.1434 L4.39401,14.1434 C4.24593,14.1434 4.11896,14.0905 4.01425,13.9858 C3.90954,13.881 3.85661,13.7541 3.85661,13.606 L3.85661,4.39401 M4.92911,4.39401 L4.92911,13.606 C4.92911,13.4579 4.87733,13.3321 4.77262,13.2274 C4.66791,13.1227 4.54209,13.0709 4.39401,13.0709 L13.606,13.0709 C13.4579,13.0709 13.3321,13.1227 13.2274,13.2274 C13.1227,13.3321 13.0709,13.4579 13.0709,13.606 L13.0709,4.39401 C13.0709,4.54209 13.1227,4.66791 13.2274,4.77262 C13.3321,4.87733 13.4579,4.92911 13.606,4.92911 L4.39401,4.92911 C4.61549,4.92911 4.92911,4.61549 4.92911,4.39401 " fill-rule="nonzero" vector-effect="none"/>
        </g>
    </g>
</svg>
