<?xml version='1.0' encoding='UTF-8' standalone='no'?>
<svg baseProfile="tiny" height="12.7mm" version="1.2" viewBox="0 0 84 84" width="12.7mm" xmlns="http://www.w3.org/2000/svg" xmlns:xlink="http://www.w3.org/1999/xlink">
    <style id="current-color-scheme" type="text/css">.ColorScheme-Text {color:#e93d58;}</style>
    <title>Qt SVG Document</title>
    <desc>Auto-generated by Klassy window decoration</desc>
    <defs/>
    <g fill="none" fill-rule="evenodd" stroke="black" stroke-linecap="square" stroke-linejoin="bevel" stroke-width="1">
        <g class="ColorScheme-Text" fill="currentColor" fill-opacity="1" font-family="Noto Sans" font-size="23.3333" font-style="normal" font-weight="400" stroke="none" transform="matrix(4.66667,0,0,4.66667,0,0)">
            <path d="M4.60714,13.928 L13.6071,13.928 C13.9033,13.928 14.1434,14.1681 14.1434,14.4643 C14.1434,14.7604 13.9033,15.0005 13.6071,15.0005 L4.60714,15.0005 C4.31098,15.0005 4.07089,14.7604 4.07089,14.4643 C4.07089,14.1681 4.31098,13.928 4.60714,13.928 " fill-rule="nonzero" vector-effect="none"/>
            <path d="M9.53571,9.85661 L13.6071,9.85661 C13.9033,9.85661 14.1434,10.0967 14.1434,10.3929 C14.1434,10.689 13.9033,10.9291 13.6071,10.9291 L9.53571,10.9291 C9.23955,10.9291 8.99946,10.689 8.99946,10.3929 C8.99946,10.0967 9.23955,9.85661 9.53571,9.85661 " fill-rule="nonzero" vector-effect="none"/>
            <path d="M9.53571,5.78518 L13.6071,5.78518 C13.9033,5.78518 14.1434,6.02527 14.1434,6.32143 C14.1434,6.61759 13.9033,6.85768 13.6071,6.85768 L9.53571,6.85768 C9.23955,6.85768 8.99946,6.61759 8.99946,6.32143 C8.99946,6.02527 9.23955,5.78518 9.53571,5.78518 " fill-rule="nonzero" vector-effect="none"/>
            <path d="M4.92911,4.39286 L4.92911,12.5357 C4.92911,12.8319 4.68902,13.072 4.39286,13.072 C4.09669,13.072 3.85661,12.8319 3.85661,12.5357 L3.85661,4.39286 C3.85661,4.09669 4.09669,3.85661 4.39286,3.85661 C4.68902,3.85661 4.92911,4.09669 4.92911,4.39286 " fill-rule="nonzero" vector-effect="none"/>
            <path d="M2.86288,10.0341 L4.79145,12.177 L4.39286,12.5357 L3.99427,12.177 L5.92284,10.0341 C6.12096,9.81399 6.46002,9.79614 6.68016,9.99427 C6.9003,10.1924 6.91814,10.5315 6.72002,10.7516 L4.79145,12.8944 L4.39286,13.3373 L3.99427,12.8944 L2.06569,10.7516 C1.86757,10.5315 1.88542,10.1924 2.10555,9.99427 C2.32569,9.79614 2.66475,9.81399 2.86288,10.0341 " fill-rule="nonzero" vector-effect="none"/>
        </g>
    </g>
</svg>
