<?xml version='1.0' encoding='UTF-8' standalone='no'?>
<svg baseProfile="tiny" height="4.8213mm" version="1.2" viewBox="0 0 41 41" width="4.8213mm" xmlns="http://www.w3.org/2000/svg" xmlns:xlink="http://www.w3.org/1999/xlink">
    <style id="current-color-scheme" type="text/css">.ColorScheme-Text {color:#e93d58;}</style>
    <title>Qt SVG Document</title>
    <desc>Auto-generated by Klassy window decoration</desc>
    <defs/>
    <g fill="none" fill-rule="evenodd" stroke="black" stroke-linecap="square" stroke-linejoin="bevel" stroke-width="1">
        <g class="ColorScheme-Text" fill="currentColor" fill-opacity="1" font-family="Noto Sans" font-size="30" font-style="normal" font-weight="400" stroke="none" transform="matrix(2.27778,0,0,2.27778,0,0)">
            <path d="M4.39024,14.0483 L13.6098,14.0483 C13.8525,14.0483 14.0492,14.2451 14.0492,14.4878 C14.0492,14.7305 13.8525,14.9273 13.6098,14.9273 L4.39024,14.9273 C4.14753,14.9273 3.95078,14.7305 3.95078,14.4878 C3.95078,14.2451 4.14753,14.0483 4.39024,14.0483 " fill-rule="nonzero" vector-effect="none"/>
            <path d="M9.65854,10.0971 L13.6098,10.0971 C13.8525,10.0971 14.0492,10.2939 14.0492,10.5366 C14.0492,10.7793 13.8525,10.976 13.6098,10.976 L9.65854,10.976 C9.41583,10.976 9.21907,10.7793 9.21907,10.5366 C9.21907,10.2939 9.41583,10.0971 9.65854,10.0971 " fill-rule="nonzero" vector-effect="none"/>
            <path d="M9.65854,6.1459 L13.6098,6.1459 C13.8525,6.1459 14.0492,6.34266 14.0492,6.58537 C14.0492,6.82807 13.8525,7.02483 13.6098,7.02483 L9.65854,7.02483 C9.41583,7.02483 9.21907,6.82807 9.21907,6.58537 C9.21907,6.34266 9.41583,6.1459 9.65854,6.1459 " fill-rule="nonzero" vector-effect="none"/>
            <path d="M4.82971,4.39024 L4.82971,12.2927 C4.82971,12.5354 4.63295,12.7321 4.39024,12.7321 C4.14753,12.7321 3.95078,12.5354 3.95078,12.2927 L3.95078,4.39024 C3.95078,4.14753 4.14753,3.95078 4.39024,3.95078 C4.63295,3.95078 4.82971,4.14753 4.82971,4.39024 " fill-rule="nonzero" vector-effect="none"/>
            <path d="M2.94489,10.2258 L4.70099,11.9819 L4.39024,12.2927 L4.0795,11.9819 L5.83559,10.2258 C6.00722,10.0542 6.28547,10.0542 6.45709,10.2258 C6.62871,10.3975 6.62871,10.6757 6.45709,10.8473 L4.70099,12.6034 L4.39024,12.9142 L4.0795,12.6034 L2.3234,10.8473 C2.15178,10.6757 2.15178,10.3975 2.3234,10.2258 C2.49502,10.0542 2.77327,10.0542 2.94489,10.2258 " fill-rule="nonzero" vector-effect="none"/>
        </g>
    </g>
</svg>
