<?xml version='1.0' encoding='UTF-8' standalone='no'?>
<svg baseProfile="tiny" height="4.8213mm" version="1.2" viewBox="0 0 41 41" width="4.8213mm" xmlns="http://www.w3.org/2000/svg" xmlns:xlink="http://www.w3.org/1999/xlink">
    <style id="current-color-scheme" type="text/css">.ColorScheme-Text {color:#da0016;}</style>
    <title>Qt SVG Document</title>
    <desc>Auto-generated by Klassy window decoration</desc>
    <defs/>
    <g fill="none" fill-rule="evenodd" stroke="black" stroke-linecap="square" stroke-linejoin="bevel" stroke-width="1">
        <g fill="#da0016" fill-opacity="1" font-family="Noto Sans" font-size="30" font-style="normal" font-weight="400" stroke="none" transform="matrix(2.27778,0,0,2.27778,0,0)">
            <path d="M4.70099,4.0795 L14.3595,13.738 C14.5311,13.9097 14.5311,14.1879 14.3595,14.3595 C14.1879,14.5311 13.9097,14.5311 13.738,14.3595 L4.0795,4.70099 C3.90788,4.52937 3.90788,4.25112 4.0795,4.0795 C4.25112,3.90788 4.52937,3.90788 4.70099,4.0795 " fill-rule="nonzero" vector-effect="none"/>
            <path d="M14.3595,4.70099 L4.70099,14.3595 C4.52937,14.5311 4.25112,14.5311 4.0795,14.3595 C3.90788,14.1879 3.90788,13.9097 4.0795,13.738 L13.738,4.0795 C13.9097,3.90788 14.1879,3.90788 14.3595,4.0795 C14.5311,4.25112 14.5311,4.52937 14.3595,4.70099 " fill-rule="nonzero" vector-effect="none"/>
        </g>
    </g>
</svg>
