<?xml version='1.0' encoding='UTF-8' standalone='no'?>
<svg baseProfile="tiny" height="4.8213mm" version="1.2" viewBox="0 0 41 41" width="4.8213mm" xmlns="http://www.w3.org/2000/svg" xmlns:xlink="http://www.w3.org/1999/xlink">
    <style id="current-color-scheme" type="text/css">.ColorScheme-Text {color:#00ae49;}</style>
    <title>Qt SVG Document</title>
    <desc>Auto-generated by Klassy window decoration</desc>
    <defs/>
    <g fill="none" fill-rule="evenodd" stroke="black" stroke-linecap="square" stroke-linejoin="bevel" stroke-width="1">
        <g fill="#00ae49" fill-opacity="0.900008" font-family="Noto Sans" font-size="30" font-style="normal" font-weight="400" stroke="none" transform="matrix(2.27778,0,0,2.27778,0,0)">
            <path d="M3.95078,4.39145 C3.95078,4.20875 4.20875,3.95078 4.39145,3.95078 L14.0476,3.95078 C14.2303,3.95078 14.4882,4.20875 14.4882,4.39145 L14.4882,14.0476 C14.4882,14.2303 14.2303,14.4882 14.0476,14.4882 L4.39145,14.4882 C4.20875,14.4882 3.95078,14.2303 3.95078,14.0476 L3.95078,4.39145 M4.82971,4.39145 L4.82971,14.0476 C4.82971,13.8662 4.57282,13.6093 4.39145,13.6093 L14.0476,13.6093 C13.8662,13.6093 13.6093,13.8662 13.6093,14.0476 L13.6093,4.39145 C13.6093,4.57282 13.8662,4.82971 14.0476,4.82971 L4.39145,4.82971 C4.57282,4.82971 4.82971,4.57282 4.82971,4.39145 " fill-rule="nonzero" vector-effect="none"/>
        </g>
    </g>
</svg>
