<?xml version='1.0' encoding='UTF-8' standalone='no'?>
<svg baseProfile="tiny" height="5.89643mm" version="1.2" viewBox="0 0 39 39" width="5.89643mm" xmlns="http://www.w3.org/2000/svg" xmlns:xlink="http://www.w3.org/1999/xlink">
    <style id="current-color-scheme" type="text/css">.ColorScheme-Text {color:#e93d58;}</style>
    <title>Qt SVG Document</title>
    <desc>Auto-generated by Klassy window decoration</desc>
    <defs/>
    <g fill="none" fill-rule="evenodd" stroke="black" stroke-linecap="square" stroke-linejoin="bevel" stroke-width="1">
        <g class="ColorScheme-Text" fill="currentColor" fill-opacity="1" font-family="Noto Sans" font-size="23.3333" font-style="normal" font-weight="400" stroke="none" transform="matrix(2.16667,0,0,2.16667,0,0)">
            <path d="M4.61538,12.4611 L8.30769,12.4611 C8.56285,12.4611 8.76969,12.6679 8.76969,12.9231 C8.76969,13.1782 8.56285,13.3851 8.30769,13.3851 L4.61538,13.3851 C4.36023,13.3851 4.15338,13.1782 4.15338,12.9231 C4.15338,12.6679 4.36023,12.4611 4.61538,12.4611 " fill-rule="nonzero" vector-effect="none"/>
            <path d="M4.61538,8.30723 L8.30769,8.30723 C8.56285,8.30723 8.76969,8.51408 8.76969,8.76923 C8.76969,9.02439 8.56285,9.23123 8.30769,9.23123 L4.61538,9.23123 C4.36023,9.23123 4.15338,9.02439 4.15338,8.76923 C4.15338,8.51408 4.36023,8.30723 4.61538,8.30723 " fill-rule="nonzero" vector-effect="none"/>
            <path d="M4.61538,4.15338 L13.3846,4.15338 C13.6398,4.15338 13.8466,4.36023 13.8466,4.61538 C13.8466,4.87054 13.6398,5.07738 13.3846,5.07738 L4.61538,5.07738 C4.36023,5.07738 4.15338,4.87054 4.15338,4.61538 C4.15338,4.36023 4.36023,4.15338 4.61538,4.15338 " fill-rule="nonzero" vector-effect="none"/>
            <path d="M13.8466,6.46154 L13.8466,14.3077 C13.8466,14.5628 13.6398,14.7697 13.3846,14.7697 C13.1295,14.7697 12.9226,14.5628 12.9226,14.3077 L12.9226,6.46154 C12.9226,6.20638 13.1295,5.99954 13.3846,5.99954 C13.6398,5.99954 13.8466,6.20638 13.8466,6.46154 " fill-rule="nonzero" vector-effect="none"/>
            <path d="M10.7883,7.94693 L13.096,6.10078 L13.3846,5.86989 L13.6732,6.10078 L15.9809,7.94693 C16.1802,8.10633 16.2125,8.39706 16.0531,8.5963 C15.8937,8.79554 15.6029,8.82785 15.4037,8.66845 L13.096,6.8223 L13.3846,6.46154 L13.6732,6.8223 L11.3655,8.66845 C11.1663,8.82785 10.8756,8.79554 10.7162,8.5963 C10.5568,8.39706 10.5891,8.10633 10.7883,7.94693 " fill-rule="nonzero" vector-effect="none"/>
        </g>
    </g>
</svg>
