<?xml version='1.0' encoding='UTF-8' standalone='no'?>
<svg baseProfile="tiny" height="5.89643mm" version="1.2" viewBox="0 0 39 39" width="5.89643mm" xmlns="http://www.w3.org/2000/svg" xmlns:xlink="http://www.w3.org/1999/xlink">
    <style id="current-color-scheme" type="text/css">.ColorScheme-Text {color:#e93d58;}</style>
    <title>Qt SVG Document</title>
    <desc>Auto-generated by Klassy window decoration</desc>
    <defs/>
    <g fill="none" fill-rule="evenodd" stroke="black" stroke-linecap="square" stroke-linejoin="bevel" stroke-width="1">
        <g class="ColorScheme-Text" fill="currentColor" fill-opacity="1" font-family="Noto Sans" font-size="23.3333" font-style="normal" font-weight="400" stroke="none" transform="matrix(2.16667,0,0,2.16667,0,0)">
            <path d="M4.15385,4.15338 L13.8462,4.15338 C14.1013,4.15338 14.3082,4.36023 14.3082,4.61538 C14.3082,4.87054 14.1013,5.07738 13.8462,5.07738 L4.15385,5.07738 C3.89869,5.07738 3.69185,4.87054 3.69185,4.61538 C3.69185,4.36023 3.89869,4.15338 4.15385,4.15338 " fill-rule="nonzero" vector-effect="none"/>
            <path d="M4.32668,7.67332 L9.32668,12.6733 L9,13 L8.67332,12.6733 L13.6733,7.67332 C13.8537,7.49289 14.1463,7.49289 14.3267,7.67332 C14.5071,7.85374 14.5071,8.14626 14.3267,8.32668 L9.32668,13.3267 L9,13.6534 L8.67332,13.3267 L3.67332,8.32668 C3.49289,8.14626 3.49289,7.85374 3.67332,7.67332 C3.85374,7.49289 4.14626,7.49289 4.32668,7.67332 " fill-rule="nonzero" vector-effect="none"/>
        </g>
    </g>
</svg>
