<?xml version='1.0' encoding='UTF-8' standalone='no'?>
<svg baseProfile="tiny" height="5.89643mm" version="1.2" viewBox="0 0 39 39" width="5.89643mm" xmlns="http://www.w3.org/2000/svg" xmlns:xlink="http://www.w3.org/1999/xlink">
    <style id="current-color-scheme" type="text/css">.ColorScheme-Text {color:#da0016;}</style>
    <title>Qt SVG Document</title>
    <desc>Auto-generated by Klassy window decoration</desc>
    <defs/>
    <g fill="none" fill-rule="evenodd" stroke="black" stroke-linecap="square" stroke-linejoin="bevel" stroke-width="1">
        <g fill="#da0016" fill-opacity="0.719997" font-family="Noto Sans" font-size="23.3333" font-style="normal" font-weight="400" stroke="none" transform="matrix(2.4375,0,0,2.4375,0,0)">
            <path d="M2,3.2 C2,2.53726 2.53726,2 3.2,2 L12.8,2 C13.4627,2 14,2.53726 14,3.2 L14,12.8 C14,13.4627 13.4627,14 12.8,14 L3.2,14 C2.53726,14 2,13.4627 2,12.8 L2,3.2" fill-rule="evenodd" vector-effect="none"/>
        </g>
        <g fill="#dee0e2" fill-opacity="1" font-family="Noto Sans" font-size="23.3333" font-style="normal" font-weight="400" stroke="none" transform="matrix(2.16667,0,0,2.16667,0,0)">
            <path d="M4.94207,4.2887 L14.1728,13.5195 C14.3533,13.6999 14.3533,13.9924 14.1728,14.1728 C13.9924,14.3533 13.6999,14.3533 13.5195,14.1728 L4.2887,4.94207 C4.10828,4.76165 4.10828,4.46912 4.2887,4.2887 C4.46912,4.10828 4.76165,4.10828 4.94207,4.2887 " fill-rule="nonzero" vector-effect="none"/>
            <path d="M14.1728,4.94207 L4.94207,14.1728 C4.76165,14.3533 4.46912,14.3533 4.2887,14.1728 C4.10828,13.9924 4.10828,13.6999 4.2887,13.5195 L13.5195,4.2887 C13.6999,4.10828 13.9924,4.10828 14.1728,4.2887 C14.3533,4.46912 14.3533,4.76165 14.1728,4.94207 " fill-rule="nonzero" vector-effect="none"/>
        </g>
    </g>
</svg>
