<?xml version='1.0' encoding='UTF-8' standalone='no'?>
<svg baseProfile="tiny" height="5.89643mm" version="1.2" viewBox="0 0 39 39" width="5.89643mm" xmlns="http://www.w3.org/2000/svg" xmlns:xlink="http://www.w3.org/1999/xlink">
    <style id="current-color-scheme" type="text/css">.ColorScheme-Text {color:#00ae49;}</style>
    <title>Qt SVG Document</title>
    <desc>Auto-generated by Klassy window decoration</desc>
    <defs/>
    <g fill="none" fill-rule="evenodd" stroke="black" stroke-linecap="square" stroke-linejoin="bevel" stroke-width="1">
        <g fill="#00ae49" fill-opacity="0.900008" font-family="Noto Sans" font-size="23.3333" font-style="normal" font-weight="400" stroke="none" transform="matrix(2.16667,0,0,2.16667,9,15)">
            <path d="M0,-0.462 L7.38462,-0.462 L7.84662,0 L7.84662,7.38462 L7.38462,7.84662 L0,7.84662 L-0.462,7.38462 L-0.462,0 L0,-0.462 M0.462,0 L0.462,7.38462 L0,7.38462 L0,6.92262 L7.38462,6.92262 L7.38462,7.38462 L6.92262,7.38462 L6.92262,0 L7.38462,0 L7.38462,0.462 L0,0.462 L0,0 L0.462,0" fill-rule="nonzero" vector-effect="none"/>
        </g>
        <g fill="#00ae49" fill-opacity="0.900008" font-family="Noto Sans" font-size="23.3333" font-style="normal" font-weight="400" stroke="none" transform="matrix(2.16667,0,0,2.16667,9,15)">
            <path d="M1.84569,-0.462 L1.84569,-2.30769 L2.30769,-2.76969 L9.69231,-2.76969 L10.1543,-2.30769 L10.1543,5.07692 L9.69231,5.53892 L7.84662,5.53892 L7.84662,4.61492 L9.69231,4.61492 L9.69231,5.07692 L9.23031,5.07692 L9.23031,-2.30769 L9.69231,-2.30769 L9.69231,-1.84569 L2.30769,-1.84569 L2.30769,-2.30769 L2.76969,-2.30769 L2.76969,-0.462 L1.84569,-0.462" fill-rule="nonzero" vector-effect="none"/>
        </g>
    </g>
</svg>
