<?xml version='1.0' encoding='UTF-8' standalone='no'?>
<svg baseProfile="tiny" height="5.89643mm" version="1.2" viewBox="0 0 39 39" width="5.89643mm" xmlns="http://www.w3.org/2000/svg" xmlns:xlink="http://www.w3.org/1999/xlink">
    <style id="current-color-scheme" type="text/css">.ColorScheme-Text {color:#00ae49;}</style>
    <title>Qt SVG Document</title>
    <desc>Auto-generated by Klassy window decoration</desc>
    <defs/>
    <g fill="none" fill-rule="evenodd" stroke="black" stroke-linecap="square" stroke-linejoin="bevel" stroke-width="1">
        <g fill="#00ae49" fill-opacity="0.900008" font-family="Noto Sans" font-size="23.3333" font-style="normal" font-weight="400" stroke="none" transform="matrix(2.16667,0,0,2.16667,0,0)">
            <path d="M4.15338,4.61654 C4.15338,4.42453 4.42453,4.15338 4.61654,4.15338 L13.845,4.15338 C14.037,4.15338 14.3082,4.42453 14.3082,4.61654 L14.3082,13.845 C14.3082,14.037 14.037,14.3082 13.845,14.3082 L4.61654,14.3082 C4.42453,14.3082 4.15338,14.037 4.15338,13.845 L4.15338,4.61654 M5.07738,4.61654 L5.07738,13.845 C5.07738,13.6543 4.80727,13.3842 4.61654,13.3842 L13.845,13.3842 C13.6543,13.3842 13.3842,13.6543 13.3842,13.845 L13.3842,4.61654 C13.3842,4.80727 13.6543,5.07738 13.845,5.07738 L4.61654,5.07738 C4.80727,5.07738 5.07738,4.80727 5.07738,4.61654 " fill-rule="nonzero" vector-effect="none"/>
        </g>
    </g>
</svg>
