<?xml version='1.0' encoding='UTF-8' standalone='no'?>
<svg baseProfile="tiny" height="8.46667mm" version="1.2" viewBox="0 0 80 80" width="8.46667mm" xmlns="http://www.w3.org/2000/svg" xmlns:xlink="http://www.w3.org/1999/xlink">
    <style id="current-color-scheme" type="text/css">.ColorScheme-Text {color:#e93d58;}</style>
    <title>Qt SVG Document</title>
    <desc>Auto-generated by Klassy window decoration</desc>
    <defs/>
    <g fill="none" fill-rule="evenodd" stroke="black" stroke-linecap="square" stroke-linejoin="bevel" stroke-width="1">
        <g class="ColorScheme-Text" fill="currentColor" fill-opacity="1" font-family="Noto Sans" font-size="33.3333" font-style="normal" font-weight="400" stroke="none" transform="matrix(4.44444,0,0,4.44444,0,0)">
            <path d="M4.05,4.04955 L13.95,4.04955 C14.1988,4.04955 14.4004,4.25122 14.4004,4.5 C14.4004,4.74878 14.1988,4.95045 13.95,4.95045 L4.05,4.95045 C3.80122,4.95045 3.59955,4.74878 3.59955,4.5 C3.59955,4.25122 3.80122,4.04955 4.05,4.04955 " fill-rule="nonzero" vector-effect="none"/>
            <path d="M3.68148,12.6815 L8.68148,7.68148 L9,7.36297 L9.31852,7.68148 L14.3185,12.6815 C14.4944,12.8574 14.4944,13.1426 14.3185,13.3185 C14.1426,13.4944 13.8574,13.4944 13.6815,13.3185 L8.68148,8.31852 L9,8 L9.31852,8.31852 L4.31852,13.3185 C4.1426,13.4944 3.8574,13.4944 3.68148,13.3185 C3.50557,13.1426 3.50557,12.8574 3.68148,12.6815 " fill-rule="nonzero" vector-effect="none"/>
        </g>
    </g>
</svg>
