<?xml version='1.0' encoding='UTF-8' standalone='no'?>
<svg baseProfile="tiny" height="5.82083mm" version="1.2" viewBox="0 0 66 66" width="5.82083mm" xmlns="http://www.w3.org/2000/svg" xmlns:xlink="http://www.w3.org/1999/xlink">
    <style id="current-color-scheme" type="text/css">.ColorScheme-Text {color:#00ae49;}</style>
    <title>Qt SVG Document</title>
    <desc>Auto-generated by Klassy window decoration</desc>
    <defs/>
    <g fill="none" fill-rule="evenodd" stroke="black" stroke-linecap="square" stroke-linejoin="bevel" stroke-width="1">
        <g fill="#00ae49" fill-opacity="0.900008" font-family="Noto Sans" font-size="40" font-style="normal" font-weight="400" stroke="none" transform="matrix(3.66667,0,0,3.66667,0,0)">
            <path d="M3.81764,4.3648 C3.81764,4.13799 4.13799,3.81764 4.3648,3.81764 L13.6352,3.81764 C13.862,3.81764 14.1824,4.13799 14.1824,4.3648 L14.1824,13.6352 C14.1824,13.862 13.862,14.1824 13.6352,14.1824 L4.3648,14.1824 C4.13799,14.1824 3.81764,13.862 3.81764,13.6352 L3.81764,4.3648 M4.90964,4.3648 L4.90964,13.6352 C4.90964,13.4097 4.59032,13.0904 4.3648,13.0904 L13.6352,13.0904 C13.4097,13.0904 13.0904,13.4097 13.0904,13.6352 L13.0904,4.3648 C13.0904,4.59032 13.4097,4.90964 13.6352,4.90964 L4.3648,4.90964 C4.59032,4.90964 4.90964,4.59032 4.90964,4.3648 " fill-rule="nonzero" vector-effect="none"/>
        </g>
    </g>
</svg>
