<?xml version='1.0' encoding='UTF-8' standalone='no'?>
<svg baseProfile="tiny" height="5.82083mm" version="1.2" viewBox="0 0 66 66" width="5.82083mm" xmlns="http://www.w3.org/2000/svg" xmlns:xlink="http://www.w3.org/1999/xlink">
    <style id="current-color-scheme" type="text/css">.ColorScheme-Text {color:#da0016;}</style>
    <title>Qt SVG Document</title>
    <desc>Auto-generated by Klassy window decoration</desc>
    <defs/>
    <g fill="none" fill-rule="evenodd" stroke="black" stroke-linecap="square" stroke-linejoin="bevel" stroke-width="1">
        <g fill="#da0016" fill-opacity="1" font-family="Noto Sans" font-size="40" font-style="normal" font-weight="400" stroke="none" transform="matrix(3.66667,0,0,3.66667,0,0)">
            <path d="M4.74972,3.97756 L14.0224,13.2503 C14.2357,13.4635 14.2357,13.8092 14.0224,14.0224 C13.8092,14.2357 13.4635,14.2357 13.2503,14.0224 L3.97756,4.74972 C3.76433,4.53649 3.76433,4.19078 3.97756,3.97756 C4.19078,3.76433 4.53649,3.76433 4.74972,3.97756 " fill-rule="nonzero" vector-effect="none"/>
            <path d="M14.0224,4.74972 L4.74972,14.0224 C4.53649,14.2357 4.19078,14.2357 3.97756,14.0224 C3.76433,13.8092 3.76433,13.4635 3.97756,13.2503 L13.2503,3.97756 C13.4635,3.76433 13.8092,3.76433 14.0224,3.97756 C14.2357,4.19078 14.2357,4.53649 14.0224,4.74972 " fill-rule="nonzero" vector-effect="none"/>
        </g>
    </g>
</svg>
