<?xml version='1.0' encoding='UTF-8' standalone='no'?>
<svg baseProfile="tiny" height="12.7mm" version="1.2" viewBox="0 0 96 96" width="12.7mm" xmlns="http://www.w3.org/2000/svg" xmlns:xlink="http://www.w3.org/1999/xlink">
    <style id="current-color-scheme" type="text/css">.ColorScheme-Text {color:#00ae49;}</style>
    <title>Qt SVG Document</title>
    <desc>Auto-generated by Klassy window decoration</desc>
    <defs/>
    <g fill="none" fill-rule="evenodd" stroke="black" stroke-linecap="square" stroke-linejoin="bevel" stroke-width="1">
        <g fill="#00ae49" fill-opacity="0.900008" font-family="Noto Sans" font-size="26.6667" font-style="normal" font-weight="400" stroke="none" transform="matrix(5.33333,0,0,5.33333,23.5,34.5)">
            <path d="M0,-0.469219 L7.125,-0.469219 L7.59422,0 L7.59422,7.125 L7.125,7.59422 L0,7.59422 L-0.469219,7.125 L-0.469219,0 L0,-0.469219 M0.469219,0 L0.469219,7.125 L0,7.125 L0,6.65578 L7.125,6.65578 L7.125,7.125 L6.65578,7.125 L6.65578,0 L7.125,0 L7.125,0.469219 L0,0.469219 L0,0 L0.469219,0" fill-rule="nonzero" vector-effect="none"/>
        </g>
        <g fill="#00ae49" fill-opacity="0.900008" font-family="Noto Sans" font-size="26.6667" font-style="normal" font-weight="400" stroke="none" transform="matrix(5.33333,0,0,5.33333,23.5,34.5)">
            <path d="M1.59328,-0.469219 L1.59328,-2.0625 L2.0625,-2.53172 L9.1875,-2.53172 L9.65672,-2.0625 L9.65672,5.0625 L9.1875,5.53172 L7.59422,5.53172 L7.59422,4.59328 L9.1875,4.59328 L9.1875,5.0625 L8.71828,5.0625 L8.71828,-2.0625 L9.1875,-2.0625 L9.1875,-1.59328 L2.0625,-1.59328 L2.0625,-2.0625 L2.53172,-2.0625 L2.53172,-0.469219 L1.59328,-0.469219" fill-rule="nonzero" vector-effect="none"/>
        </g>
    </g>
</svg>
