<?xml version='1.0' encoding='UTF-8' standalone='no'?>
<svg baseProfile="tiny" height="6.35mm" version="1.2" viewBox="0 0 42 42" width="6.35mm" xmlns="http://www.w3.org/2000/svg" xmlns:xlink="http://www.w3.org/1999/xlink">
    <style id="current-color-scheme" type="text/css">.ColorScheme-Text {color:#da0016;}</style>
    <title>Qt SVG Document</title>
    <desc>Auto-generated by Klassy window decoration</desc>
    <defs/>
    <g fill="none" fill-rule="evenodd" stroke="black" stroke-linecap="square" stroke-linejoin="bevel" stroke-width="1">
        <g fill="#da0016" fill-opacity="0.719997" font-family="Noto Sans" font-size="23.3333" font-style="normal" font-weight="400" stroke="none" transform="matrix(2.625,0,0,2.625,0,0)">
            <path d="M2,3.2 C2,2.53726 2.53726,2 3.2,2 L12.8,2 C13.4627,2 14,2.53726 14,3.2 L14,12.8 C14,13.4627 13.4627,14 12.8,14 L3.2,14 C2.53726,14 2,13.4627 2,12.8 L2,3.2" fill-rule="evenodd" vector-effect="none"/>
        </g>
        <g fill="#31363b" fill-opacity="1" font-family="Noto Sans" font-size="23.3333" font-style="normal" font-weight="400" stroke="none" transform="matrix(2.33333,0,0,2.33333,0,0)">
            <path d="M4.58906,3.98237 L14.0176,13.4109 C14.1852,13.5785 14.1852,13.8501 14.0176,14.0176 C13.8501,14.1852 13.5785,14.1852 13.4109,14.0176 L3.98237,4.58906 C3.81483,4.42153 3.81483,4.1499 3.98237,3.98237 C4.1499,3.81483 4.42153,3.81483 4.58906,3.98237 " fill-rule="nonzero" vector-effect="none"/>
            <path d="M14.0176,4.58906 L4.58906,14.0176 C4.42153,14.1852 4.1499,14.1852 3.98237,14.0176 C3.81483,13.8501 3.81483,13.5785 3.98237,13.4109 L13.4109,3.98237 C13.5785,3.81483 13.8501,3.81483 14.0176,3.98237 C14.1852,4.1499 14.1852,4.42153 14.0176,4.58906 " fill-rule="nonzero" vector-effect="none"/>
        </g>
    </g>
</svg>
