<?xml version='1.0' encoding='UTF-8' standalone='no'?>
<svg baseProfile="tiny" height="6.35mm" version="1.2" viewBox="0 0 42 42" width="6.35mm" xmlns="http://www.w3.org/2000/svg" xmlns:xlink="http://www.w3.org/1999/xlink">
    <style id="current-color-scheme" type="text/css">.ColorScheme-Text {color:#e93d58;}</style>
    <title>Qt SVG Document</title>
    <desc>Auto-generated by Klassy window decoration</desc>
    <defs/>
    <g fill="none" fill-rule="evenodd" stroke="black" stroke-linecap="square" stroke-linejoin="bevel" stroke-width="1">
        <g class="ColorScheme-Text" fill="currentColor" fill-opacity="1" font-family="Noto Sans" font-size="23.3333" font-style="normal" font-weight="400" stroke="none" transform="matrix(2.33333,0,0,2.33333,0,0)">
            <path d="M4.71429,14.1424 L13.7143,14.1424 C13.9512,14.1424 14.1433,14.3345 14.1433,14.5714 C14.1433,14.8084 13.9512,15.0004 13.7143,15.0004 L4.71429,15.0004 C4.47736,15.0004 4.28529,14.8084 4.28529,14.5714 C4.28529,14.3345 4.47736,14.1424 4.71429,14.1424 " fill-rule="nonzero" vector-effect="none"/>
            <path d="M9.42857,9.85671 L13.7143,9.85671 C13.9512,9.85671 14.1433,10.0488 14.1433,10.2857 C14.1433,10.5226 13.9512,10.7147 13.7143,10.7147 L9.42857,10.7147 C9.19164,10.7147 8.99957,10.5226 8.99957,10.2857 C8.99957,10.0488 9.19164,9.85671 9.42857,9.85671 " fill-rule="nonzero" vector-effect="none"/>
            <path d="M9.42857,5.571 L13.7143,5.571 C13.9512,5.571 14.1433,5.76307 14.1433,6 C14.1433,6.23693 13.9512,6.429 13.7143,6.429 L9.42857,6.429 C9.19164,6.429 8.99957,6.23693 8.99957,6 C8.99957,5.76307 9.19164,5.571 9.42857,5.571 " fill-rule="nonzero" vector-effect="none"/>
            <path d="M4.71471,4.28571 L4.71471,12.4286 C4.71471,12.6655 4.52264,12.8576 4.28571,12.8576 C4.04878,12.8576 3.85671,12.6655 3.85671,12.4286 L3.85671,4.28571 C3.85671,4.04878 4.04878,3.85671 4.28571,3.85671 C4.52264,3.85671 4.71471,4.04878 4.71471,4.28571 " fill-rule="nonzero" vector-effect="none"/>
            <path d="M2.90642,10.0177 L4.62071,12.1606 L4.28571,12.4286 L3.95072,12.1606 L5.66501,10.0177 C5.81302,9.83271 6.08298,9.80271 6.26799,9.95072 C6.45301,10.0987 6.483,10.3687 6.33499,10.5537 L4.62071,12.6966 L4.28571,13.1153 L3.95072,12.6966 L2.23644,10.5537 C2.08843,10.3687 2.11842,10.0987 2.30343,9.95072 C2.48845,9.80271 2.75841,9.83271 2.90642,10.0177 " fill-rule="nonzero" vector-effect="none"/>
        </g>
    </g>
</svg>
