<?xml version='1.0' encoding='UTF-8' standalone='no'?>
<svg baseProfile="tiny" height="6.35mm" version="1.2" viewBox="0 0 42 42" width="6.35mm" xmlns="http://www.w3.org/2000/svg" xmlns:xlink="http://www.w3.org/1999/xlink">
    <style id="current-color-scheme" type="text/css">.ColorScheme-Text {color:#e93d58;}</style>
    <title>Qt SVG Document</title>
    <desc>Auto-generated by Klassy window decoration</desc>
    <defs/>
    <g fill="none" fill-rule="evenodd" stroke="black" stroke-linecap="square" stroke-linejoin="bevel" stroke-width="1">
        <g class="ColorScheme-Text" fill="currentColor" fill-opacity="1" font-family="Noto Sans" font-size="23.3333" font-style="normal" font-weight="400" stroke="none" transform="matrix(2.33333,0,0,2.33333,0,0)">
            <path d="M3.85714,4.28529 L14.1429,4.28529 C14.3798,4.28529 14.5719,4.47736 14.5719,4.71429 C14.5719,4.95122 14.3798,5.14329 14.1429,5.14329 L3.85714,5.14329 C3.62021,5.14329 3.42814,4.95122 3.42814,4.71429 C3.42814,4.47736 3.62021,4.28529 3.85714,4.28529 " fill-rule="nonzero" vector-effect="none"/>
            <path d="M4.30335,7.69665 L9.30335,12.6967 L9,13 L8.69665,12.6967 L13.6967,7.69665 C13.8642,7.52912 14.1358,7.52912 14.3033,7.69665 C14.4709,7.86419 14.4709,8.13581 14.3033,8.30335 L9.30335,13.3033 L9,13.6067 L8.69665,13.3033 L3.69665,8.30335 C3.52912,8.13581 3.52912,7.86419 3.69665,7.69665 C3.86419,7.52912 4.13581,7.52912 4.30335,7.69665 " fill-rule="nonzero" vector-effect="none"/>
        </g>
    </g>
</svg>
