<?xml version='1.0' encoding='UTF-8' standalone='no'?>
<svg baseProfile="tiny" height="4.8213mm" version="1.2" viewBox="0 0 41 41" width="4.8213mm" xmlns="http://www.w3.org/2000/svg" xmlns:xlink="http://www.w3.org/1999/xlink">
    <style id="current-color-scheme" type="text/css">.ColorScheme-Text {color:#00ae49;}</style>
    <title>Qt SVG Document</title>
    <desc>Auto-generated by Klassy window decoration</desc>
    <defs/>
    <g fill="none" fill-rule="evenodd" stroke="black" stroke-linecap="square" stroke-linejoin="bevel" stroke-width="1">
        <g fill="#00ae49" fill-opacity="0.900008" font-family="Noto Sans" font-size="30" font-style="normal" font-weight="400" stroke="none" transform="matrix(2.27778,0,0,2.27778,10,16)">
            <path d="M0,-0.439463 L7.02439,-0.439463 L7.46385,0 L7.46385,7.02439 L7.02439,7.46385 L0,7.46385 L-0.439463,7.02439 L-0.439463,0 L0,-0.439463 M0.439463,0 L0.439463,7.02439 L0,7.02439 L0,6.58493 L7.02439,6.58493 L7.02439,7.02439 L6.58493,7.02439 L6.58493,0 L7.02439,0 L7.02439,0.439463 L0,0.439463 L0,0 L0.439463,0" fill-rule="nonzero" vector-effect="none"/>
        </g>
        <g fill="#00ae49" fill-opacity="0.900008" font-family="Noto Sans" font-size="30" font-style="normal" font-weight="400" stroke="none" transform="matrix(2.27778,0,0,2.27778,10,16)">
            <path d="M1.75566,-0.439463 L1.75566,-2.19512 L2.19512,-2.63459 L9.21951,-2.63459 L9.65898,-2.19512 L9.65898,4.82927 L9.21951,5.26873 L7.46385,5.26873 L7.46385,4.3898 L9.21951,4.3898 L9.21951,4.82927 L8.78005,4.82927 L8.78005,-2.19512 L9.21951,-2.19512 L9.21951,-1.75566 L2.19512,-1.75566 L2.19512,-2.19512 L2.63459,-2.19512 L2.63459,-0.439463 L1.75566,-0.439463" fill-rule="nonzero" vector-effect="none"/>
        </g>
    </g>
</svg>
