<?xml version='1.0' encoding='UTF-8' standalone='no'?>
<svg baseProfile="tiny" height="4.8213mm" version="1.2" viewBox="0 0 41 41" width="4.8213mm" xmlns="http://www.w3.org/2000/svg" xmlns:xlink="http://www.w3.org/1999/xlink">
    <style id="current-color-scheme" type="text/css">.ColorScheme-Text {color:#e93d58;}</style>
    <title>Qt SVG Document</title>
    <desc>Auto-generated by Klassy window decoration</desc>
    <defs/>
    <g fill="none" fill-rule="evenodd" stroke="black" stroke-linecap="square" stroke-linejoin="bevel" stroke-width="1">
        <g class="ColorScheme-Text" fill="currentColor" fill-opacity="1" font-family="Noto Sans" font-size="30" font-style="normal" font-weight="400" stroke="none" transform="matrix(2.27778,0,0,2.27778,0,0)">
            <path d="M3.95122,3.95078 L14.0488,3.95078 C14.2915,3.95078 14.4882,4.14753 14.4882,4.39024 C14.4882,4.63295 14.2915,4.82971 14.0488,4.82971 L3.95122,4.82971 C3.70851,4.82971 3.51176,4.63295 3.51176,4.39024 C3.51176,4.14753 3.70851,3.95078 3.95122,3.95078 " fill-rule="nonzero" vector-effect="none"/>
            <path d="M4.31075,7.68925 L9.31075,12.6893 L9,13 L8.68925,12.6893 L13.6893,7.68925 C13.8609,7.51763 14.1391,7.51763 14.3107,7.68925 C14.4824,7.86087 14.4824,8.13913 14.3107,8.31075 L9.31075,13.3107 L9,13.6215 L8.68925,13.3107 L3.68925,8.31075 C3.51763,8.13913 3.51763,7.86087 3.68925,7.68925 C3.86087,7.51763 4.13913,7.51763 4.31075,7.68925 " fill-rule="nonzero" vector-effect="none"/>
        </g>
    </g>
</svg>
