<?xml version='1.0' encoding='UTF-8' standalone='no'?>
<svg baseProfile="tiny" height="4.8213mm" version="1.2" viewBox="0 0 41 41" width="4.8213mm" xmlns="http://www.w3.org/2000/svg" xmlns:xlink="http://www.w3.org/1999/xlink">
    <style id="current-color-scheme" type="text/css">.ColorScheme-Text {color:#e93d58;}</style>
    <title>Qt SVG Document</title>
    <desc>Auto-generated by Klassy window decoration</desc>
    <defs/>
    <g fill="none" fill-rule="evenodd" stroke="black" stroke-linecap="square" stroke-linejoin="bevel" stroke-width="1">
        <g class="ColorScheme-Text" fill="currentColor" fill-opacity="1" font-family="Noto Sans" font-size="30" font-style="normal" font-weight="400" stroke="none" transform="matrix(2.27778,0,0,2.27778,0,0)">
            <path d="M4.39024,11.8532 L8.34146,11.8532 C8.58417,11.8532 8.78093,12.05 8.78093,12.2927 C8.78093,12.5354 8.58417,12.7321 8.34146,12.7321 L4.39024,12.7321 C4.14753,12.7321 3.95078,12.5354 3.95078,12.2927 C3.95078,12.05 4.14753,11.8532 4.39024,11.8532 " fill-rule="nonzero" vector-effect="none"/>
            <path d="M4.39024,7.902 L8.34146,7.902 C8.58417,7.902 8.78093,8.09875 8.78093,8.34146 C8.78093,8.58417 8.58417,8.78093 8.34146,8.78093 L4.39024,8.78093 C4.14753,8.78093 3.95078,8.58417 3.95078,8.34146 C3.95078,8.09875 4.14753,7.902 4.39024,7.902 " fill-rule="nonzero" vector-effect="none"/>
            <path d="M4.39024,3.95078 L13.6098,3.95078 C13.8525,3.95078 14.0492,4.14753 14.0492,4.39024 C14.0492,4.63295 13.8525,4.82971 13.6098,4.82971 L4.39024,4.82971 C4.14753,4.82971 3.95078,4.63295 3.95078,4.39024 C3.95078,4.14753 4.14753,3.95078 4.39024,3.95078 " fill-rule="nonzero" vector-effect="none"/>
            <path d="M14.0492,6.58537 L14.0492,14.4878 C14.0492,14.7305 13.8525,14.9273 13.6098,14.9273 C13.367,14.9273 13.1703,14.7305 13.1703,14.4878 L13.1703,6.58537 C13.1703,6.34266 13.367,6.1459 13.6098,6.1459 C13.8525,6.1459 14.0492,6.34266 14.0492,6.58537 " fill-rule="nonzero" vector-effect="none"/>
            <path d="M11.5429,8.03072 L13.299,6.27462 L13.6098,5.96387 L13.9205,6.27462 L15.6766,8.03072 C15.8482,8.20234 15.8482,8.48059 15.6766,8.65221 C15.505,8.82383 15.2267,8.82383 15.0551,8.65221 L13.299,6.89611 L13.6098,6.58537 L13.9205,6.89611 L12.1644,8.65221 C11.9928,8.82383 11.7145,8.82383 11.5429,8.65221 C11.3713,8.48059 11.3713,8.20234 11.5429,8.03072 " fill-rule="nonzero" vector-effect="none"/>
        </g>
    </g>
</svg>
