<?xml version='1.0' encoding='UTF-8' standalone='no'?>
<svg baseProfile="tiny" height="8.46667mm" version="1.2" viewBox="0 0 88 88" width="8.46667mm" xmlns="http://www.w3.org/2000/svg" xmlns:xlink="http://www.w3.org/1999/xlink">
    <style id="current-color-scheme" type="text/css">.ColorScheme-Text {color:#da0016;}</style>
    <title>Qt SVG Document</title>
    <desc>Auto-generated by Klassy window decoration</desc>
    <defs/>
    <g fill="none" fill-rule="evenodd" stroke="black" stroke-linecap="square" stroke-linejoin="bevel" stroke-width="1">
        <g fill="#da0016" fill-opacity="0.719997" font-family="Noto Sans" font-size="36.6667" font-style="normal" font-weight="400" stroke="none" transform="matrix(5.5,0,0,5.5,0,0)">
            <path d="M2,3.2 C2,2.53726 2.53726,2 3.2,2 L12.8,2 C13.4627,2 14,2.53726 14,3.2 L14,12.8 C14,13.4627 13.4627,14 12.8,14 L3.2,14 C2.53726,14 2,13.4627 2,12.8 L2,3.2" fill-rule="evenodd" vector-effect="none"/>
        </g>
        <g fill="#dee0e2" fill-opacity="1" font-family="Noto Sans" font-size="36.6667" font-style="normal" font-weight="400" stroke="none" transform="matrix(4.88889,0,0,4.88889,0,0)">
            <path d="M4.75968,4.03578 L13.9642,13.2403 C14.1641,13.4402 14.1641,13.7643 13.9642,13.9642 C13.7643,14.1641 13.4402,14.1641 13.2403,13.9642 L4.03578,4.75968 C3.83588,4.55978 3.83588,4.23568 4.03578,4.03578 C4.23568,3.83588 4.55978,3.83588 4.75968,4.03578 " fill-rule="nonzero" vector-effect="none"/>
            <path d="M13.9642,4.75968 L4.75968,13.9642 C4.55978,14.1641 4.23568,14.1641 4.03578,13.9642 C3.83588,13.7643 3.83588,13.4402 4.03578,13.2403 L13.2403,4.03578 C13.4402,3.83588 13.7643,3.83588 13.9642,4.03578 C14.1641,4.23568 14.1641,4.55978 13.9642,4.75968 " fill-rule="nonzero" vector-effect="none"/>
        </g>
    </g>
</svg>
