<?xml version='1.0' encoding='UTF-8' standalone='no'?>
<svg baseProfile="tiny" height="8.46667mm" version="1.2" viewBox="0 0 88 88" width="8.46667mm" xmlns="http://www.w3.org/2000/svg" xmlns:xlink="http://www.w3.org/1999/xlink">
    <style id="current-color-scheme" type="text/css">.ColorScheme-Text {color:#00ae49;}</style>
    <title>Qt SVG Document</title>
    <desc>Auto-generated by Klassy window decoration</desc>
    <defs/>
    <g fill="none" fill-rule="evenodd" stroke="black" stroke-linecap="square" stroke-linejoin="bevel" stroke-width="1">
        <g fill="#00ae49" fill-opacity="0.900008" font-family="Noto Sans" font-size="36.6667" font-style="normal" font-weight="400" stroke="none" transform="matrix(4.88889,0,0,4.88889,0,0)">
            <path d="M3.88585,4.39888 C3.88585,4.18622 4.18622,3.88585 4.39888,3.88585 L13.6011,3.88585 C13.8138,3.88585 14.1141,4.18622 14.1141,4.39888 L14.1141,13.6011 C14.1141,13.8138 13.8138,14.1141 13.6011,14.1141 L4.39888,14.1141 C4.18622,14.1141 3.88585,13.8138 3.88585,13.6011 L3.88585,4.39888 M4.9096,4.39888 L4.9096,13.6011 C4.9096,13.3897 4.61027,13.0904 4.39888,13.0904 L13.6011,13.0904 C13.3897,13.0904 13.0904,13.3897 13.0904,13.6011 L13.0904,4.39888 C13.0904,4.61027 13.3897,4.9096 13.6011,4.9096 L4.39888,4.9096 C4.61027,4.9096 4.9096,4.61027 4.9096,4.39888 " fill-rule="nonzero" vector-effect="none"/>
        </g>
    </g>
</svg>
