<?xml version='1.0' encoding='UTF-8' standalone='no'?>
<svg baseProfile="tiny" height="8.46667mm" version="1.2" viewBox="0 0 88 88" width="8.46667mm" xmlns="http://www.w3.org/2000/svg" xmlns:xlink="http://www.w3.org/1999/xlink">
    <style id="current-color-scheme" type="text/css">.ColorScheme-Text {color:#00ae49;}</style>
    <title>Qt SVG Document</title>
    <desc>Auto-generated by Klassy window decoration</desc>
    <defs/>
    <g fill="none" fill-rule="evenodd" stroke="black" stroke-linecap="square" stroke-linejoin="bevel" stroke-width="1">
        <g fill="#00ae49" fill-opacity="0.900008" font-family="Noto Sans" font-size="36.6667" font-style="normal" font-weight="400" stroke="none" transform="matrix(4.88889,0,0,4.88889,21.5,31.5)">
            <path d="M0,-0.511875 L7.15909,-0.511875 L7.67097,0 L7.67097,7.15909 L7.15909,7.67097 L0,7.67097 L-0.511875,7.15909 L-0.511875,0 L0,-0.511875 M0.511875,0 L0.511875,7.15909 L0,7.15909 L0,6.64722 L7.15909,6.64722 L7.15909,7.15909 L6.64722,7.15909 L6.64722,0 L7.15909,0 L7.15909,0.511875 L0,0.511875 L0,0 L0.511875,0" fill-rule="nonzero" vector-effect="none"/>
        </g>
        <g fill="#00ae49" fill-opacity="0.900008" font-family="Noto Sans" font-size="36.6667" font-style="normal" font-weight="400" stroke="none" transform="matrix(4.88889,0,0,4.88889,21.5,31.5)">
            <path d="M1.53358,-0.511875 L1.53358,-2.04545 L2.04545,-2.55733 L9.20455,-2.55733 L9.71642,-2.04545 L9.71642,5.11364 L9.20455,5.62551 L7.67097,5.62551 L7.67097,4.60176 L9.20455,4.60176 L9.20455,5.11364 L8.69267,5.11364 L8.69267,-2.04545 L9.20455,-2.04545 L9.20455,-1.53358 L2.04545,-1.53358 L2.04545,-2.04545 L2.55733,-2.04545 L2.55733,-0.511875 L1.53358,-0.511875" fill-rule="nonzero" vector-effect="none"/>
        </g>
    </g>
</svg>
