<?xml version='1.0' encoding='UTF-8' standalone='no'?>
<svg baseProfile="tiny" height="8.46667mm" version="1.2" viewBox="0 0 88 88" width="8.46667mm" xmlns="http://www.w3.org/2000/svg" xmlns:xlink="http://www.w3.org/1999/xlink">
    <style id="current-color-scheme" type="text/css">.ColorScheme-Text {color:#e93d58;}</style>
    <title>Qt SVG Document</title>
    <desc>Auto-generated by Klassy window decoration</desc>
    <defs/>
    <g fill="none" fill-rule="evenodd" stroke="black" stroke-linecap="square" stroke-linejoin="bevel" stroke-width="1">
        <g class="ColorScheme-Text" fill="currentColor" fill-opacity="1" font-family="Noto Sans" font-size="36.6667" font-style="normal" font-weight="400" stroke="none" transform="matrix(4.88889,0,0,4.88889,0,0)">
            <path d="M4.39773,12.0677 L8.48864,12.0677 C8.77134,12.0677 9.00051,12.2968 9.00051,12.5795 C9.00051,12.8622 8.77134,13.0914 8.48864,13.0914 L4.39773,13.0914 C4.11503,13.0914 3.88585,12.8622 3.88585,12.5795 C3.88585,12.2968 4.11503,12.0677 4.39773,12.0677 " fill-rule="nonzero" vector-effect="none"/>
            <path d="M4.39773,7.97676 L8.48864,7.97676 C8.77134,7.97676 9.00051,8.20594 9.00051,8.48864 C9.00051,8.77134 8.77134,9.00051 8.48864,9.00051 L4.39773,9.00051 C4.11503,9.00051 3.88585,8.77134 3.88585,8.48864 C3.88585,8.20594 4.11503,7.97676 4.39773,7.97676 " fill-rule="nonzero" vector-effect="none"/>
            <path d="M4.39773,3.88585 L13.3977,3.88585 C13.6804,3.88585 13.9096,4.11503 13.9096,4.39773 C13.9096,4.68043 13.6804,4.9096 13.3977,4.9096 L4.39773,4.9096 C4.11503,4.9096 3.88585,4.68043 3.88585,4.39773 C3.88585,4.11503 4.11503,3.88585 4.39773,3.88585 " fill-rule="nonzero" vector-effect="none"/>
            <path d="M14.1141,6.44318 L14.1141,14.4205 C14.1141,14.7032 13.885,14.9323 13.6023,14.9323 C13.3196,14.9323 13.0904,14.7032 13.0904,14.4205 L13.0904,6.44318 C13.0904,6.16048 13.3196,5.93131 13.6023,5.93131 C13.885,5.93131 14.1141,6.16048 14.1141,6.44318 " fill-rule="nonzero" vector-effect="none"/>
            <path d="M11.3809,8.14621 L13.2218,6.10076 L13.6023,5.67801 L13.9827,6.10076 L15.8237,8.14621 C16.0128,8.35634 15.9957,8.67999 15.7856,8.86911 C15.5755,9.05823 15.2518,9.04119 15.0627,8.83106 L13.2218,6.78561 L13.6023,6.44318 L13.9827,6.78561 L12.1418,8.83106 C11.9527,9.04119 11.6291,9.05823 11.4189,8.86911 C11.2088,8.67999 11.1918,8.35634 11.3809,8.14621 " fill-rule="nonzero" vector-effect="none"/>
        </g>
    </g>
</svg>
