<?xml version='1.0' encoding='UTF-8' standalone='no'?>
<svg baseProfile="tiny" height="12.7mm" version="1.2" viewBox="0 0 132 132" width="12.7mm" xmlns="http://www.w3.org/2000/svg" xmlns:xlink="http://www.w3.org/1999/xlink">
    <style id="current-color-scheme" type="text/css">.ColorScheme-Text {color:#da0016;}</style>
    <title>Qt SVG Document</title>
    <desc>Auto-generated by Klassy window decoration</desc>
    <defs/>
    <g fill="none" fill-rule="evenodd" stroke="black" stroke-linecap="square" stroke-linejoin="bevel" stroke-width="1">
        <g fill="#da0016" fill-opacity="1" font-family="Noto Sans" font-size="36.6667" font-style="normal" font-weight="400" stroke="none" transform="matrix(7.33333,0,0,7.33333,0,0)">
            <path d="M4.76964,4.094 L13.906,13.2304 C14.0926,13.4169 14.0926,13.7194 13.906,13.906 C13.7194,14.0926 13.4169,14.0926 13.2304,13.906 L4.094,4.76964 C3.90742,4.58307 3.90742,4.28057 4.094,4.094 C4.28057,3.90742 4.58307,3.90742 4.76964,4.094 " fill-rule="nonzero" vector-effect="none"/>
            <path d="M13.906,4.76964 L4.76964,13.906 C4.58307,14.0926 4.28057,14.0926 4.094,13.906 C3.90742,13.7194 3.90742,13.4169 4.094,13.2304 L13.2304,4.094 C13.4169,3.90742 13.7194,3.90742 13.906,4.094 C14.0926,4.28057 14.0926,4.58307 13.906,4.76964 " fill-rule="nonzero" vector-effect="none"/>
        </g>
    </g>
</svg>
