<?xml version='1.0' encoding='UTF-8' standalone='no'?>
<svg baseProfile="tiny" height="4.81061mm" version="1.2" viewBox="0 0 50 50" width="4.81061mm" xmlns="http://www.w3.org/2000/svg" xmlns:xlink="http://www.w3.org/1999/xlink">
    <style id="current-color-scheme" type="text/css">.ColorScheme-Text {color:#00ae49;}</style>
    <title>Qt SVG Document</title>
    <desc>Auto-generated by Klassy window decoration</desc>
    <defs/>
    <g fill="none" fill-rule="evenodd" stroke="black" stroke-linecap="square" stroke-linejoin="bevel" stroke-width="1">
        <g fill="#00ae49" fill-opacity="0.900008" font-family="Noto Sans" font-size="36.6667" font-style="normal" font-weight="400" stroke="none" transform="matrix(2.77778,0,0,2.77778,0,0)">
            <path d="M3.95946,4.50113 C3.95946,4.2766 4.2766,3.95946 4.50113,3.95946 L13.4989,3.95946 C13.7234,3.95946 14.0405,4.2766 14.0405,4.50113 L14.0405,13.4989 C14.0405,13.7234 13.7234,14.0405 13.4989,14.0405 L4.50113,14.0405 C4.2766,14.0405 3.95946,13.7234 3.95946,13.4989 L3.95946,4.50113 M5.04054,4.50113 L5.04054,13.4989 C5.04054,13.2756 4.7244,12.9595 4.50113,12.9595 L13.4989,12.9595 C13.2756,12.9595 12.9595,13.2756 12.9595,13.4989 L12.9595,4.50113 C12.9595,4.7244 13.2756,5.04054 13.4989,5.04054 L4.50113,5.04054 C4.7244,5.04054 5.04054,4.7244 5.04054,4.50113 " fill-rule="nonzero" vector-effect="none"/>
        </g>
    </g>
</svg>
