<?xml version='1.0' encoding='UTF-8' standalone='no'?>
<svg baseProfile="tiny" height="12.7mm" version="1.2" viewBox="0 0 132 132" width="12.7mm" xmlns="http://www.w3.org/2000/svg" xmlns:xlink="http://www.w3.org/1999/xlink">
    <style id="current-color-scheme" type="text/css">.ColorScheme-Text {color:#00ae49;}</style>
    <title>Qt SVG Document</title>
    <desc>Auto-generated by Klassy window decoration</desc>
    <defs/>
    <g fill="none" fill-rule="evenodd" stroke="black" stroke-linecap="square" stroke-linejoin="bevel" stroke-width="1">
        <g fill="#00ae49" fill-opacity="0.900008" font-family="Noto Sans" font-size="36.6667" font-style="normal" font-weight="400" stroke="none" transform="matrix(7.33333,0,0,7.33333,0,0)">
            <path d="M3.95407,4.43296 C3.95407,4.23444 4.23444,3.95407 4.43296,3.95407 L13.567,3.95407 C13.699,3.95407 13.8121,4.00128 13.9054,4.09457 C13.9987,4.18786 14.0459,4.30103 14.0459,4.43296 L14.0459,13.567 C14.0459,13.699 13.9987,13.8121 13.9054,13.9054 C13.8121,13.9987 13.699,14.0459 13.567,14.0459 L4.43296,14.0459 C4.30103,14.0459 4.18786,13.9987 4.09457,13.9054 C4.00128,13.8121 3.95407,13.699 3.95407,13.567 L3.95407,4.43296 M4.90957,4.43296 L4.90957,13.567 C4.90957,13.4351 4.8635,13.3231 4.77021,13.2298 C4.67692,13.1365 4.56489,13.0904 4.43296,13.0904 L13.567,13.0904 C13.4351,13.0904 13.3231,13.1365 13.2298,13.2298 C13.1365,13.3231 13.0904,13.4351 13.0904,13.567 L13.0904,4.43296 C13.0904,4.56489 13.1365,4.67692 13.2298,4.77021 C13.3231,4.8635 13.4351,4.90957 13.567,4.90957 L4.43296,4.90957 C4.63022,4.90957 4.90957,4.63022 4.90957,4.43296 " fill-rule="nonzero" vector-effect="none"/>
        </g>
    </g>
</svg>
