<?xml version='1.0' encoding='UTF-8' standalone='no'?>
<svg baseProfile="tiny" height="12.7mm" version="1.2" viewBox="0 0 132 132" width="12.7mm" xmlns="http://www.w3.org/2000/svg" xmlns:xlink="http://www.w3.org/1999/xlink">
    <style id="current-color-scheme" type="text/css">.ColorScheme-Text {color:#00ae49;}</style>
    <title>Qt SVG Document</title>
    <desc>Auto-generated by Klassy window decoration</desc>
    <defs/>
    <g fill="none" fill-rule="evenodd" stroke="black" stroke-linecap="square" stroke-linejoin="bevel" stroke-width="1">
        <g fill="#00ae49" fill-opacity="0.900008" font-family="Noto Sans" font-size="36.6667" font-style="normal" font-weight="400" stroke="none" transform="matrix(7.33333,0,0,7.33333,32.5,47.5)">
            <path d="M0,-0.47775 L7.09091,-0.47775 L7.56866,0 L7.56866,7.09091 L7.09091,7.56866 L0,7.56866 L-0.47775,7.09091 L-0.47775,0 L0,-0.47775 M0.47775,0 L0.47775,7.09091 L0,7.09091 L0,6.61316 L7.09091,6.61316 L7.09091,7.09091 L6.61316,7.09091 L6.61316,0 L7.09091,0 L7.09091,0.47775 L0,0.47775 L0,0 L0.47775,0" fill-rule="nonzero" vector-effect="none"/>
        </g>
        <g fill="#00ae49" fill-opacity="0.900008" font-family="Noto Sans" font-size="36.6667" font-style="normal" font-weight="400" stroke="none" transform="matrix(7.33333,0,0,7.33333,32.5,47.5)">
            <path d="M1.5677,-0.47775 L1.5677,-2.04545 L2.04545,-2.5232 L9.13636,-2.5232 L9.61411,-2.04545 L9.61411,5.04545 L9.13636,5.5232 L7.56866,5.5232 L7.56866,4.5677 L9.13636,4.5677 L9.13636,5.04545 L8.65861,5.04545 L8.65861,-2.04545 L9.13636,-2.04545 L9.13636,-1.5677 L2.04545,-1.5677 L2.04545,-2.04545 L2.5232,-2.04545 L2.5232,-0.47775 L1.5677,-0.47775" fill-rule="nonzero" vector-effect="none"/>
        </g>
    </g>
</svg>
