<?xml version='1.0' encoding='UTF-8' standalone='no'?>
<svg baseProfile="tiny" height="12.7mm" version="1.2" viewBox="0 0 132 132" width="12.7mm" xmlns="http://www.w3.org/2000/svg" xmlns:xlink="http://www.w3.org/1999/xlink">
    <style id="current-color-scheme" type="text/css">.ColorScheme-Text {color:#e93d58;}</style>
    <title>Qt SVG Document</title>
    <desc>Auto-generated by Klassy window decoration</desc>
    <defs/>
    <g fill="none" fill-rule="evenodd" stroke="black" stroke-linecap="square" stroke-linejoin="bevel" stroke-width="1">
        <g class="ColorScheme-Text" fill="currentColor" fill-opacity="1" font-family="Noto Sans" font-size="36.6667" font-style="normal" font-weight="400" stroke="none" transform="matrix(7.33333,0,0,7.33333,0,0)">
            <path d="M4.43182,12.1359 L8.52273,12.1359 C8.78658,12.1359 9.00048,12.3498 9.00048,12.6136 C9.00048,12.8775 8.78658,13.0914 8.52273,13.0914 L4.43182,13.0914 C4.16796,13.0914 3.95407,12.8775 3.95407,12.6136 C3.95407,12.3498 4.16796,12.1359 4.43182,12.1359 " fill-rule="nonzero" vector-effect="none"/>
            <path d="M4.43182,8.04498 L8.52273,8.04498 C8.78658,8.04498 9.00048,8.25887 9.00048,8.52273 C9.00048,8.78658 8.78658,9.00048 8.52273,9.00048 L4.43182,9.00048 C4.16796,9.00048 3.95407,8.78658 3.95407,8.52273 C3.95407,8.25887 4.16796,8.04498 4.43182,8.04498 " fill-rule="nonzero" vector-effect="none"/>
            <path d="M4.43182,3.95407 L13.4318,3.95407 C13.6957,3.95407 13.9096,4.16796 13.9096,4.43182 C13.9096,4.69567 13.6957,4.90957 13.4318,4.90957 L4.43182,4.90957 C4.16796,4.90957 3.95407,4.69567 3.95407,4.43182 C3.95407,4.16796 4.16796,3.95407 4.43182,3.95407 " fill-rule="nonzero" vector-effect="none"/>
            <path d="M14.0459,6.47727 L14.0459,14.5227 C14.0459,14.7866 13.832,15.0005 13.5682,15.0005 C13.3043,15.0005 13.0904,14.7866 13.0904,14.5227 L13.0904,6.47727 C13.0904,6.21342 13.3043,5.99952 13.5682,5.99952 C13.832,5.99952 14.0459,6.21342 14.0459,6.47727 " fill-rule="nonzero" vector-effect="none"/>
            <path d="M11.3098,8.19675 L13.2189,6.1513 L13.5682,5.77709 L13.9174,6.1513 L15.8265,8.19675 C16.0066,8.38964 15.9961,8.69196 15.8033,8.87199 C15.6104,9.05202 15.308,9.0416 15.128,8.8487 L13.2189,6.80325 L13.5682,6.47727 L13.9174,6.80325 L12.0084,8.8487 C11.8283,9.0416 11.526,9.05202 11.3331,8.87199 C11.1402,8.69196 11.1298,8.38964 11.3098,8.19675 " fill-rule="nonzero" vector-effect="none"/>
        </g>
    </g>
</svg>
