<?xml version='1.0' encoding='UTF-8' standalone='no'?>
<svg baseProfile="tiny" height="12.7mm" version="1.2" viewBox="0 0 132 132" width="12.7mm" xmlns="http://www.w3.org/2000/svg" xmlns:xlink="http://www.w3.org/1999/xlink">
    <style id="current-color-scheme" type="text/css">.ColorScheme-Text {color:#e93d58;}</style>
    <title>Qt SVG Document</title>
    <desc>Auto-generated by Klassy window decoration</desc>
    <defs/>
    <g fill="none" fill-rule="evenodd" stroke="black" stroke-linecap="square" stroke-linejoin="bevel" stroke-width="1">
        <g class="ColorScheme-Text" fill="currentColor" fill-opacity="1" font-family="Noto Sans" font-size="36.6667" font-style="normal" font-weight="400" stroke="none" transform="matrix(7.33333,0,0,7.33333,0,0)">
            <path d="M3.95455,4.09043 L14.0455,4.09043 C14.3093,4.09043 14.5232,4.30433 14.5232,4.56818 C14.5232,4.83204 14.3093,5.04593 14.0455,5.04593 L3.95455,5.04593 C3.69069,5.04593 3.4768,4.83204 3.4768,4.56818 C3.4768,4.30433 3.69069,4.09043 3.95455,4.09043 " fill-rule="nonzero" vector-effect="none"/>
            <path d="M3.66218,12.6622 L8.66218,7.66218 L9,7.32436 L9.33782,7.66218 L14.3378,12.6622 C14.5244,12.8488 14.5244,13.1512 14.3378,13.3378 C14.1512,13.5244 13.8488,13.5244 13.6622,13.3378 L8.66218,8.33782 L9,8 L9.33782,8.33782 L4.33782,13.3378 C4.15125,13.5244 3.84875,13.5244 3.66218,13.3378 C3.47561,13.1512 3.47561,12.8488 3.66218,12.6622 " fill-rule="nonzero" vector-effect="none"/>
        </g>
    </g>
</svg>
