<?xml version='1.0' encoding='UTF-8' standalone='no'?>
<svg baseProfile="tiny" height="12.7mm" version="1.2" viewBox="0 0 132 132" width="12.7mm" xmlns="http://www.w3.org/2000/svg" xmlns:xlink="http://www.w3.org/1999/xlink">
    <style id="current-color-scheme" type="text/css">.ColorScheme-Text {color:#e93d58;}</style>
    <title>Qt SVG Document</title>
    <desc>Auto-generated by Klassy window decoration</desc>
    <defs/>
    <g fill="none" fill-rule="evenodd" stroke="black" stroke-linecap="square" stroke-linejoin="bevel" stroke-width="1">
        <g class="ColorScheme-Text" fill="currentColor" fill-opacity="1" font-family="Noto Sans" font-size="36.6667" font-style="normal" font-weight="400" stroke="none" transform="matrix(7.33333,0,0,7.33333,0,0)">
            <path d="M4.56818,14.045 L13.5682,14.045 C13.832,14.045 14.0459,14.2589 14.0459,14.5227 C14.0459,14.7866 13.832,15.0005 13.5682,15.0005 L4.56818,15.0005 C4.30433,15.0005 4.09043,14.7866 4.09043,14.5227 C4.09043,14.2589 4.30433,14.045 4.56818,14.045 " fill-rule="nonzero" vector-effect="none"/>
            <path d="M9.47727,9.95407 L13.5682,9.95407 C13.832,9.95407 14.0459,10.168 14.0459,10.4318 C14.0459,10.6957 13.832,10.9096 13.5682,10.9096 L9.47727,10.9096 C9.21342,10.9096 8.99952,10.6957 8.99952,10.4318 C8.99952,10.168 9.21342,9.95407 9.47727,9.95407 " fill-rule="nonzero" vector-effect="none"/>
            <path d="M9.47727,5.86316 L13.5682,5.86316 C13.832,5.86316 14.0459,6.07706 14.0459,6.34091 C14.0459,6.60476 13.832,6.81866 13.5682,6.81866 L9.47727,6.81866 C9.21342,6.81866 8.99952,6.60476 8.99952,6.34091 C8.99952,6.07706 9.21342,5.86316 9.47727,5.86316 " fill-rule="nonzero" vector-effect="none"/>
            <path d="M4.90957,4.43182 L4.90957,12.4773 C4.90957,12.7411 4.69567,12.955 4.43182,12.955 C4.16796,12.955 3.95407,12.7411 3.95407,12.4773 L3.95407,4.43182 C3.95407,4.16796 4.16796,3.95407 4.43182,3.95407 C4.69567,3.95407 4.90957,4.16796 4.90957,4.43182 " fill-rule="nonzero" vector-effect="none"/>
            <path d="M2.87199,10.1058 L4.78108,12.1513 L4.43182,12.4773 L4.08256,12.1513 L5.99165,10.1058 C6.17168,9.91295 6.47399,9.90252 6.66689,10.0826 C6.85978,10.2626 6.8702,10.5649 6.69017,10.7578 L4.78108,12.8033 L4.43182,13.1775 L4.08256,12.8033 L2.17347,10.7578 C1.99343,10.5649 2.00386,10.2626 2.19675,10.0826 C2.38964,9.90252 2.69196,9.91295 2.87199,10.1058 " fill-rule="nonzero" vector-effect="none"/>
        </g>
    </g>
</svg>
