<?xml version='1.0' encoding='UTF-8' standalone='no'?>
<svg baseProfile="tiny" height="5.82083mm" version="1.2" viewBox="0 0 33 33" width="5.82083mm" xmlns="http://www.w3.org/2000/svg" xmlns:xlink="http://www.w3.org/1999/xlink">
    <style id="current-color-scheme" type="text/css">.ColorScheme-Text {color:#00ae49;}</style>
    <title>Qt SVG Document</title>
    <desc>Auto-generated by Klassy window decoration</desc>
    <defs/>
    <g fill="none" fill-rule="evenodd" stroke="black" stroke-linecap="square" stroke-linejoin="bevel" stroke-width="1">
        <g fill="#00ae49" fill-opacity="0.900008" font-family="Noto Sans" font-size="20" font-style="normal" font-weight="400" stroke="none" transform="matrix(1.83333,0,0,1.83333,8,13)">
            <path d="M0,-0.546 L7.09091,-0.546 L7.63691,0 L7.63691,7.09091 L7.09091,7.63691 L0,7.63691 L-0.546,7.09091 L-0.546,0 L0,-0.546 M0.546,0 L0.546,7.09091 L0,7.09091 L0,6.54491 L7.09091,6.54491 L7.09091,7.09091 L6.54491,7.09091 L6.54491,0 L7.09091,0 L7.09091,0.546 L0,0.546 L0,0 L0.546,0" fill-rule="nonzero" vector-effect="none"/>
        </g>
        <g fill="#00ae49" fill-opacity="0.900008" font-family="Noto Sans" font-size="20" font-style="normal" font-weight="400" stroke="none" transform="matrix(1.83333,0,0,1.83333,8,13)">
            <path d="M1.63582,-0.546 L1.63582,-2.18182 L2.18182,-2.72782 L9.27273,-2.72782 L9.81873,-2.18182 L9.81873,4.90909 L9.27273,5.45509 L7.63691,5.45509 L7.63691,4.36309 L9.27273,4.36309 L9.27273,4.90909 L8.72673,4.90909 L8.72673,-2.18182 L9.27273,-2.18182 L9.27273,-1.63582 L2.18182,-1.63582 L2.18182,-2.18182 L2.72782,-2.18182 L2.72782,-0.546 L1.63582,-0.546" fill-rule="nonzero" vector-effect="none"/>
        </g>
    </g>
</svg>
