<?xml version='1.0' encoding='UTF-8' standalone='no'?>
<svg baseProfile="tiny" height="5.82083mm" version="1.2" viewBox="0 0 33 33" width="5.82083mm" xmlns="http://www.w3.org/2000/svg" xmlns:xlink="http://www.w3.org/1999/xlink">
    <style id="current-color-scheme" type="text/css">.ColorScheme-Text {color:#da0016;}</style>
    <title>Qt SVG Document</title>
    <desc>Auto-generated by Klassy window decoration</desc>
    <defs/>
    <g fill="none" fill-rule="evenodd" stroke="black" stroke-linecap="square" stroke-linejoin="bevel" stroke-width="1">
        <g fill="#da0016" fill-opacity="1" font-family="Noto Sans" font-size="20" font-style="normal" font-weight="400" stroke="none" transform="matrix(1.83333,0,0,1.83333,0,0)">
            <path d="M4.74972,3.97756 L14.5679,13.7957 C14.7811,14.009 14.7811,14.3547 14.5679,14.5679 C14.3547,14.7811 14.009,14.7811 13.7957,14.5679 L3.97756,4.74972 C3.76433,4.53649 3.76433,4.19078 3.97756,3.97756 C4.19078,3.76433 4.53649,3.76433 4.74972,3.97756 " fill-rule="nonzero" vector-effect="none"/>
            <path d="M14.5679,4.74972 L4.74972,14.5679 C4.53649,14.7811 4.19078,14.7811 3.97756,14.5679 C3.76433,14.3547 3.76433,14.009 3.97756,13.7957 L13.7957,3.97756 C14.009,3.76433 14.3547,3.76433 14.5679,3.97756 C14.7811,4.19078 14.7811,4.53649 14.5679,4.74972 " fill-rule="nonzero" vector-effect="none"/>
        </g>
    </g>
</svg>
