<?xml version='1.0' encoding='UTF-8' standalone='no'?>
<svg baseProfile="tiny" height="5.29167mm" version="1.2" viewBox="0 0 25 25" width="5.29167mm" xmlns="http://www.w3.org/2000/svg" xmlns:xlink="http://www.w3.org/1999/xlink">
    <style id="current-color-scheme" type="text/css">.ColorScheme-Text {color:#e93d58;}</style>
    <title>Qt SVG Document</title>
    <desc>Auto-generated by Klassy window decoration</desc>
    <defs/>
    <g fill="none" fill-rule="evenodd" stroke="black" stroke-linecap="square" stroke-linejoin="bevel" stroke-width="1">
        <g class="ColorScheme-Text" fill="currentColor" fill-opacity="1" font-family="Noto Sans" font-size="16.6667" font-style="normal" font-weight="400" stroke="none" transform="matrix(1.38889,0,0,1.38889,0,0)">
            <path d="M4.68,12.9596 L8.28,12.9596 C8.47902,12.9596 8.64036,13.121 8.64036,13.32 C8.64036,13.519 8.47902,13.6804 8.28,13.6804 L4.68,13.6804 C4.48098,13.6804 4.31964,13.519 4.31964,13.32 C4.31964,13.121 4.48098,12.9596 4.68,12.9596 " fill-rule="nonzero" vector-effect="none"/>
            <path d="M4.68,8.63964 L8.28,8.63964 C8.47902,8.63964 8.64036,8.80098 8.64036,9 C8.64036,9.19902 8.47902,9.36036 8.28,9.36036 L4.68,9.36036 C4.48098,9.36036 4.31964,9.19902 4.31964,9 C4.31964,8.80098 4.48098,8.63964 4.68,8.63964 " fill-rule="nonzero" vector-effect="none"/>
            <path d="M4.68,4.31964 L13.32,4.31964 C13.519,4.31964 13.6804,4.48098 13.6804,4.68 C13.6804,4.87902 13.519,5.04036 13.32,5.04036 L4.68,5.04036 C4.48098,5.04036 4.31964,4.87902 4.31964,4.68 C4.31964,4.48098 4.48098,4.31964 4.68,4.31964 " fill-rule="nonzero" vector-effect="none"/>
            <path d="M13.6804,6.84 L13.6804,14.76 C13.6804,14.959 13.519,15.1204 13.32,15.1204 C13.121,15.1204 12.9596,14.959 12.9596,14.76 L12.9596,6.84 C12.9596,6.64098 13.121,6.47964 13.32,6.47964 C13.519,6.47964 13.6804,6.64098 13.6804,6.84 " fill-rule="nonzero" vector-effect="none"/>
            <path d="M10.9601,7.98016 L13.1201,6.54016 L13.32,6.4069 L13.5199,6.54016 L15.6799,7.98016 C15.8455,8.09056 15.8902,8.3143 15.7798,8.47989 C15.6694,8.64549 15.4457,8.69023 15.2801,8.57984 L13.1201,7.13984 L13.32,6.84 L13.5199,7.13984 L11.3599,8.57984 C11.1943,8.69023 10.9706,8.64549 10.8602,8.47989 C10.7498,8.3143 10.7945,8.09056 10.9601,7.98016 " fill-rule="nonzero" vector-effect="none"/>
        </g>
    </g>
</svg>
