<?xml version='1.0' encoding='UTF-8' standalone='no'?>
<svg baseProfile="tiny" height="5.29167mm" version="1.2" viewBox="0 0 25 25" width="5.29167mm" xmlns="http://www.w3.org/2000/svg" xmlns:xlink="http://www.w3.org/1999/xlink">
    <style id="current-color-scheme" type="text/css">.ColorScheme-Text {color:#da0016;}</style>
    <title>Qt SVG Document</title>
    <desc>Auto-generated by Klassy window decoration</desc>
    <defs/>
    <g fill="none" fill-rule="evenodd" stroke="black" stroke-linecap="square" stroke-linejoin="bevel" stroke-width="1">
        <g fill="#da0016" fill-opacity="1" font-family="Noto Sans" font-size="16.6667" font-style="normal" font-weight="400" stroke="none" transform="matrix(1.38889,0,0,1.38889,0,0)">
            <path d="M4.93481,4.42519 L14.2948,13.7852 C14.4355,13.9259 14.4355,14.1541 14.2948,14.2948 C14.1541,14.4355 13.9259,14.4355 13.7852,14.2948 L4.42519,4.93481 C4.28446,4.79408 4.28446,4.56592 4.42519,4.42519 C4.56592,4.28446 4.79408,4.28446 4.93481,4.42519 " fill-rule="nonzero" vector-effect="none"/>
            <path d="M14.2948,4.93481 L4.93481,14.2948 C4.79408,14.4355 4.56592,14.4355 4.42519,14.2948 C4.28446,14.1541 4.28446,13.9259 4.42519,13.7852 L13.7852,4.42519 C13.9259,4.28446 14.1541,4.28446 14.2948,4.42519 C14.4355,4.56592 14.4355,4.79408 14.2948,4.93481 " fill-rule="nonzero" vector-effect="none"/>
        </g>
    </g>
</svg>
