<?xml version='1.0' encoding='UTF-8' standalone='no'?>
<svg baseProfile="tiny" height="5.29167mm" version="1.2" viewBox="0 0 25 25" width="5.29167mm" xmlns="http://www.w3.org/2000/svg" xmlns:xlink="http://www.w3.org/1999/xlink">
    <style id="current-color-scheme" type="text/css">.ColorScheme-Text {color:#00ae49;}</style>
    <title>Qt SVG Document</title>
    <desc>Auto-generated by Klassy window decoration</desc>
    <defs/>
    <g fill="none" fill-rule="evenodd" stroke="black" stroke-linecap="square" stroke-linejoin="bevel" stroke-width="1">
        <g fill="#00ae49" fill-opacity="0.900008" font-family="Noto Sans" font-size="16.6667" font-style="normal" font-weight="400" stroke="none" transform="matrix(1.38889,0,0,1.38889,0,0)">
            <path d="M4.31964,4.68117 C4.31964,4.53126 4.53126,4.31964 4.68117,4.31964 L14.0388,4.31964 C14.1887,4.31964 14.4004,4.53126 14.4004,4.68117 L14.4004,14.0388 C14.4004,14.1887 14.1887,14.4004 14.0388,14.4004 L4.68117,14.4004 C4.53126,14.4004 4.31964,14.1887 4.31964,14.0388 L4.31964,4.68117 M5.04036,4.68117 L5.04036,14.0388 C5.04036,13.8902 4.82979,13.6796 4.68117,13.6796 L14.0388,13.6796 C13.8902,13.6796 13.6796,13.8902 13.6796,14.0388 L13.6796,4.68117 C13.6796,4.82979 13.8902,5.04036 14.0388,5.04036 L4.68117,5.04036 C4.82979,5.04036 5.04036,4.82979 5.04036,4.68117 " fill-rule="nonzero" vector-effect="none"/>
        </g>
    </g>
</svg>
