<?xml version='1.0' encoding='UTF-8' standalone='no'?>
<svg baseProfile="tiny" height="12.7mm" version="1.2" viewBox="0 0 84 84" width="12.7mm" xmlns="http://www.w3.org/2000/svg" xmlns:xlink="http://www.w3.org/1999/xlink">
    <style id="current-color-scheme" type="text/css">.ColorScheme-Text {color:#da0016;}</style>
    <title>Qt SVG Document</title>
    <desc>Auto-generated by Klassy window decoration</desc>
    <defs/>
    <g fill="none" fill-rule="evenodd" stroke="black" stroke-linecap="square" stroke-linejoin="bevel" stroke-width="1">
        <g fill="#da0016" fill-opacity="0.719997" font-family="Noto Sans" font-size="23.3333" font-style="normal" font-weight="400" stroke="none" transform="matrix(5.25,0,0,5.25,0,0)">
            <path d="M2,3.2 C2,2.53726 2.53726,2 3.2,2 L12.8,2 C13.4627,2 14,2.53726 14,3.2 L14,12.8 C14,13.4627 13.4627,14 12.8,14 L3.2,14 C2.53726,14 2,13.4627 2,12.8 L2,3.2" fill-rule="evenodd" vector-effect="none"/>
        </g>
        <g fill="#31363b" fill-opacity="1" font-family="Noto Sans" font-size="23.3333" font-style="normal" font-weight="400" stroke="none" transform="matrix(4.66667,0,0,4.66667,0,0)">
            <path d="M4.77204,4.01367 L13.9863,13.228 C14.1957,13.4374 14.1957,13.7769 13.9863,13.9863 C13.7769,14.1957 13.4374,14.1957 13.228,13.9863 L4.01367,4.77204 C3.80425,4.56262 3.80425,4.22309 4.01367,4.01367 C4.22309,3.80425 4.56262,3.80425 4.77204,4.01367 " fill-rule="nonzero" vector-effect="none"/>
            <path d="M13.9863,4.77204 L4.77204,13.9863 C4.56262,14.1957 4.22309,14.1957 4.01367,13.9863 C3.80425,13.7769 3.80425,13.4374 4.01367,13.228 L13.228,4.01367 C13.4374,3.80425 13.7769,3.80425 13.9863,4.01367 C14.1957,4.22309 14.1957,4.56262 13.9863,4.77204 " fill-rule="nonzero" vector-effect="none"/>
        </g>
    </g>
</svg>
