<?xml version='1.0' encoding='UTF-8' standalone='no'?>
<svg baseProfile="tiny" height="12.7mm" version="1.2" viewBox="0 0 84 84" width="12.7mm" xmlns="http://www.w3.org/2000/svg" xmlns:xlink="http://www.w3.org/1999/xlink">
    <style id="current-color-scheme" type="text/css">.ColorScheme-Text {color:#e93d58;}</style>
    <title>Qt SVG Document</title>
    <desc>Auto-generated by Klassy window decoration</desc>
    <defs/>
    <g fill="none" fill-rule="evenodd" stroke="black" stroke-linecap="square" stroke-linejoin="bevel" stroke-width="1">
        <g class="ColorScheme-Text" fill="currentColor" fill-opacity="1" font-family="Noto Sans" font-size="23.3333" font-style="normal" font-weight="400" stroke="none" transform="matrix(4.66667,0,0,4.66667,0,0)">
            <path d="M4.07143,4.07089 L13.9286,4.07089 C14.2247,4.07089 14.4648,4.31098 14.4648,4.60714 C14.4648,4.90331 14.2247,5.14339 13.9286,5.14339 L4.07143,5.14339 C3.77527,5.14339 3.53518,4.90331 3.53518,4.60714 C3.53518,4.31098 3.77527,4.07089 4.07143,4.07089 " fill-rule="nonzero" vector-effect="none"/>
            <path d="M4.37919,7.62081 L9.37919,12.6208 L9,13 L8.62081,12.6208 L13.6208,7.62081 C13.8302,7.4114 14.1698,7.4114 14.3792,7.62081 C14.5886,7.83023 14.5886,8.16977 14.3792,8.37919 L9.37919,13.3792 L9,13.7584 L8.62081,13.3792 L3.62081,8.37919 C3.4114,8.16977 3.4114,7.83023 3.62081,7.62081 C3.83023,7.4114 4.16977,7.4114 4.37919,7.62081 " fill-rule="nonzero" vector-effect="none"/>
        </g>
    </g>
</svg>
