<?xml version='1.0' encoding='UTF-8' standalone='no'?>
<svg baseProfile="tiny" height="12.7mm" version="1.2" viewBox="0 0 84 84" width="12.7mm" xmlns="http://www.w3.org/2000/svg" xmlns:xlink="http://www.w3.org/1999/xlink">
    <style id="current-color-scheme" type="text/css">.ColorScheme-Text {color:#00ae49;}</style>
    <title>Qt SVG Document</title>
    <desc>Auto-generated by Klassy window decoration</desc>
    <defs/>
    <g fill="none" fill-rule="evenodd" stroke="black" stroke-linecap="square" stroke-linejoin="bevel" stroke-width="1">
        <g fill="#00ae49" fill-opacity="0.900008" font-family="Noto Sans" font-size="23.3333" font-style="normal" font-weight="400" stroke="none" transform="matrix(4.66667,0,0,4.66667,20.5,30.5)">
            <path d="M0,-0.53625 L7.07143,-0.53625 L7.60768,0 L7.60768,7.07143 L7.07143,7.60768 L0,7.60768 L-0.53625,7.07143 L-0.53625,0 L0,-0.53625 M0.53625,0 L0.53625,7.07143 L0,7.07143 L0,6.53518 L7.07143,6.53518 L7.07143,7.07143 L6.53518,7.07143 L6.53518,0 L7.07143,0 L7.07143,0.53625 L0,0.53625 L0,0 L0.53625,0" fill-rule="nonzero" vector-effect="none"/>
        </g>
        <g fill="#00ae49" fill-opacity="0.900008" font-family="Noto Sans" font-size="23.3333" font-style="normal" font-weight="400" stroke="none" transform="matrix(4.66667,0,0,4.66667,20.5,30.5)">
            <path d="M1.60661,-0.53625 L1.60661,-2.14286 L2.14286,-2.67911 L9.21429,-2.67911 L9.75054,-2.14286 L9.75054,4.92857 L9.21429,5.46482 L7.60768,5.46482 L7.60768,4.39232 L9.21429,4.39232 L9.21429,4.92857 L8.67804,4.92857 L8.67804,-2.14286 L9.21429,-2.14286 L9.21429,-1.60661 L2.14286,-1.60661 L2.14286,-2.14286 L2.67911,-2.14286 L2.67911,-0.53625 L1.60661,-0.53625" fill-rule="nonzero" vector-effect="none"/>
        </g>
    </g>
</svg>
