<?xml version='1.0' encoding='UTF-8' standalone='no'?>
<svg baseProfile="tiny" height="12.7mm" version="1.2" viewBox="0 0 84 84" width="12.7mm" xmlns="http://www.w3.org/2000/svg" xmlns:xlink="http://www.w3.org/1999/xlink">
    <style id="current-color-scheme" type="text/css">.ColorScheme-Text {color:#e93d58;}</style>
    <title>Qt SVG Document</title>
    <desc>Auto-generated by Klassy window decoration</desc>
    <defs/>
    <g fill="none" fill-rule="evenodd" stroke="black" stroke-linecap="square" stroke-linejoin="bevel" stroke-width="1">
        <g class="ColorScheme-Text" fill="currentColor" fill-opacity="1" font-family="Noto Sans" font-size="23.3333" font-style="normal" font-weight="400" stroke="none" transform="matrix(4.66667,0,0,4.66667,0,0)">
            <path d="M4.07143,4.07089 L13.9286,4.07089 C14.2247,4.07089 14.4648,4.31098 14.4648,4.60714 C14.4648,4.90331 14.2247,5.14339 13.9286,5.14339 L4.07143,5.14339 C3.77527,5.14339 3.53518,4.90331 3.53518,4.60714 C3.53518,4.31098 3.77527,4.07089 4.07143,4.07089 " fill-rule="nonzero" vector-effect="none"/>
            <path d="M3.62081,12.6208 L8.62081,7.62081 L9,7.24163 L9.37919,7.62081 L14.3792,12.6208 C14.5886,12.8302 14.5886,13.1698 14.3792,13.3792 C14.1698,13.5886 13.8302,13.5886 13.6208,13.3792 L8.62081,8.37919 L9,8 L9.37919,8.37919 L4.37919,13.3792 C4.16977,13.5886 3.83023,13.5886 3.62081,13.3792 C3.4114,13.1698 3.4114,12.8302 3.62081,12.6208 " fill-rule="nonzero" vector-effect="none"/>
        </g>
    </g>
</svg>
