<?xml version='1.0' encoding='UTF-8' standalone='no'?>
<svg baseProfile="tiny" height="12.7mm" version="1.2" viewBox="0 0 84 84" width="12.7mm" xmlns="http://www.w3.org/2000/svg" xmlns:xlink="http://www.w3.org/1999/xlink">
    <style id="current-color-scheme" type="text/css">.ColorScheme-Text {color:#e93d58;}</style>
    <title>Qt SVG Document</title>
    <desc>Auto-generated by Klassy window decoration</desc>
    <defs/>
    <g fill="none" fill-rule="evenodd" stroke="black" stroke-linecap="square" stroke-linejoin="bevel" stroke-width="1">
        <g class="ColorScheme-Text" fill="currentColor" fill-opacity="1" font-family="Noto Sans" font-size="23.3333" font-style="normal" font-weight="400" stroke="none" transform="matrix(4.66667,0,0,4.66667,0,0)">
            <path d="M4.39286,11.9995 L8.46429,11.9995 C8.76045,11.9995 9.00054,12.2396 9.00054,12.5357 C9.00054,12.8319 8.76045,13.072 8.46429,13.072 L4.39286,13.072 C4.09669,13.072 3.85661,12.8319 3.85661,12.5357 C3.85661,12.2396 4.09669,11.9995 4.39286,11.9995 " fill-rule="nonzero" vector-effect="none"/>
            <path d="M4.39286,7.92804 L8.46429,7.92804 C8.76045,7.92804 9.00054,8.16812 9.00054,8.46429 C9.00054,8.76045 8.76045,9.00054 8.46429,9.00054 L4.39286,9.00054 C4.09669,9.00054 3.85661,8.76045 3.85661,8.46429 C3.85661,8.16812 4.09669,7.92804 4.39286,7.92804 " fill-rule="nonzero" vector-effect="none"/>
            <path d="M4.39286,3.85661 L13.3929,3.85661 C13.689,3.85661 13.9291,4.09669 13.9291,4.39286 C13.9291,4.68902 13.689,4.92911 13.3929,4.92911 L4.39286,4.92911 C4.09669,4.92911 3.85661,4.68902 3.85661,4.39286 C3.85661,4.09669 4.09669,3.85661 4.39286,3.85661 " fill-rule="nonzero" vector-effect="none"/>
            <path d="M14.1434,6.53571 L14.1434,14.4643 C14.1434,14.7604 13.9033,15.0005 13.6071,15.0005 C13.311,15.0005 13.0709,14.7604 13.0709,14.4643 L13.0709,6.53571 C13.0709,6.23955 13.311,5.99946 13.6071,5.99946 C13.9033,5.99946 14.1434,6.23955 14.1434,6.53571 " fill-rule="nonzero" vector-effect="none"/>
            <path d="M11.2994,8.0851 L13.228,6.15653 L13.6071,5.77734 L13.9863,6.15653 L15.9149,8.0851 C16.1243,8.29452 16.1243,8.63405 15.9149,8.84347 C15.7055,9.05289 15.3659,9.05289 15.1565,8.84347 L13.228,6.9149 L13.6071,6.53571 L13.9863,6.9149 L12.0578,8.84347 C11.8483,9.05289 11.5088,9.05289 11.2994,8.84347 C11.09,8.63405 11.09,8.29452 11.2994,8.0851 " fill-rule="nonzero" vector-effect="none"/>
        </g>
    </g>
</svg>
