<?xml version='1.0' encoding='UTF-8' standalone='no'?>
<svg baseProfile="tiny" height="5.89643mm" version="1.2" viewBox="0 0 39 39" width="5.89643mm" xmlns="http://www.w3.org/2000/svg" xmlns:xlink="http://www.w3.org/1999/xlink">
    <style id="current-color-scheme" type="text/css">.ColorScheme-Text {color:#e93d58;}</style>
    <title>Qt SVG Document</title>
    <desc>Auto-generated by Klassy window decoration</desc>
    <defs/>
    <g fill="none" fill-rule="evenodd" stroke="black" stroke-linecap="square" stroke-linejoin="bevel" stroke-width="1">
        <g class="ColorScheme-Text" fill="currentColor" fill-opacity="1" font-family="Noto Sans" font-size="23.3333" font-style="normal" font-weight="400" stroke="none" transform="matrix(2.16667,0,0,2.16667,0,0)">
            <path d="M4.61538,13.8457 L13.3846,13.8457 C13.6398,13.8457 13.8466,14.0525 13.8466,14.3077 C13.8466,14.5628 13.6398,14.7697 13.3846,14.7697 L4.61538,14.7697 C4.36023,14.7697 4.15338,14.5628 4.15338,14.3077 C4.15338,14.0525 4.36023,13.8457 4.61538,13.8457 " fill-rule="nonzero" vector-effect="none"/>
            <path d="M9.69231,9.69185 L13.3846,9.69185 C13.6398,9.69185 13.8466,9.89869 13.8466,10.1538 C13.8466,10.409 13.6398,10.6158 13.3846,10.6158 L9.69231,10.6158 C9.43715,10.6158 9.23031,10.409 9.23031,10.1538 C9.23031,9.89869 9.43715,9.69185 9.69231,9.69185 " fill-rule="nonzero" vector-effect="none"/>
            <path d="M9.69231,5.538 L13.3846,5.538 C13.6398,5.538 13.8466,5.74484 13.8466,6 C13.8466,6.25516 13.6398,6.462 13.3846,6.462 L9.69231,6.462 C9.43715,6.462 9.23031,6.25516 9.23031,6 C9.23031,5.74484 9.43715,5.538 9.69231,5.538 " fill-rule="nonzero" vector-effect="none"/>
            <path d="M5.07738,4.61538 L5.07738,12.4615 C5.07738,12.7167 4.87054,12.9235 4.61538,12.9235 C4.36023,12.9235 4.15338,12.7167 4.15338,12.4615 L4.15338,4.61538 C4.15338,4.36023 4.36023,4.15338 4.61538,4.15338 C4.87054,4.15338 5.07738,4.36023 5.07738,4.61538 " fill-rule="nonzero" vector-effect="none"/>
            <path d="M2.5963,10.2546 L4.90399,12.1008 L4.61538,12.4615 L4.32678,12.1008 L6.63447,10.2546 C6.83371,10.0952 7.12444,10.1275 7.28384,10.3268 C7.44323,10.526 7.41093,10.8168 7.21169,10.9761 L4.90399,12.8223 L4.61538,13.0532 L4.32678,12.8223 L2.01908,10.9761 C1.81984,10.8168 1.78754,10.526 1.94693,10.3268 C2.10633,10.1275 2.39706,10.0952 2.5963,10.2546 " fill-rule="nonzero" vector-effect="none"/>
        </g>
    </g>
</svg>
