<?xml version='1.0' encoding='UTF-8' standalone='no'?>
<svg baseProfile="tiny" height="5.29167mm" version="1.2" viewBox="0 0 40 40" width="5.29167mm" xmlns="http://www.w3.org/2000/svg" xmlns:xlink="http://www.w3.org/1999/xlink">
    <style id="current-color-scheme" type="text/css">.ColorScheme-Text {color:#00ae49;}</style>
    <title>Qt SVG Document</title>
    <desc>Auto-generated by Klassy window decoration</desc>
    <defs/>
    <g fill="none" fill-rule="evenodd" stroke="black" stroke-linecap="square" stroke-linejoin="bevel" stroke-width="1">
        <g fill="#00ae49" fill-opacity="0.900008" font-family="Noto Sans" font-size="26.6667" font-style="normal" font-weight="400" stroke="none" transform="matrix(2.22222,0,0,2.22222,10,15)">
            <path d="M0,-0.45045 L7.2,-0.45045 L7.65045,0 L7.65045,7.2 L7.2,7.65045 L0,7.65045 L-0.45045,7.2 L-0.45045,0 L0,-0.45045 M0.45045,0 L0.45045,7.2 L0,7.2 L0,6.74955 L7.2,6.74955 L7.2,7.2 L6.74955,7.2 L6.74955,0 L7.2,0 L7.2,0.45045 L0,0.45045 L0,0 L0.45045,0" fill-rule="nonzero" vector-effect="none"/>
        </g>
        <g fill="#00ae49" fill-opacity="0.900008" font-family="Noto Sans" font-size="26.6667" font-style="normal" font-weight="400" stroke="none" transform="matrix(2.22222,0,0,2.22222,10,15)">
            <path d="M1.79955,-0.45045 L1.79955,-2.25 L2.25,-2.70045 L9.45,-2.70045 L9.90045,-2.25 L9.90045,4.95 L9.45,5.40045 L7.65045,5.40045 L7.65045,4.49955 L9.45,4.49955 L9.45,4.95 L8.99955,4.95 L8.99955,-2.25 L9.45,-2.25 L9.45,-1.79955 L2.25,-1.79955 L2.25,-2.25 L2.70045,-2.25 L2.70045,-0.45045 L1.79955,-0.45045" fill-rule="nonzero" vector-effect="none"/>
        </g>
    </g>
</svg>
