<?xml version='1.0' encoding='UTF-8' standalone='no'?>
<svg baseProfile="tiny" height="4.86833mm" version="1.2" viewBox="0 0 23 23" width="4.86833mm" xmlns="http://www.w3.org/2000/svg" xmlns:xlink="http://www.w3.org/1999/xlink">
    <style id="current-color-scheme" type="text/css">.ColorScheme-Text {color:#e93d58;}</style>
    <title>Qt SVG Document</title>
    <desc>Auto-generated by Klassy window decoration</desc>
    <defs/>
    <g fill="none" fill-rule="evenodd" stroke="black" stroke-linecap="square" stroke-linejoin="bevel" stroke-width="1">
        <g class="ColorScheme-Text" fill="currentColor" fill-opacity="1" font-family="Noto Sans" font-size="16.6667" font-style="normal" font-weight="400" stroke="none" transform="matrix(1.27778,0,0,1.27778,0,0)">
            <path d="M4.30435,11.7387 L8.21739,11.7387 L8.21739,12.5221 L4.30435,12.5221 L4.30435,11.7387" fill-rule="nonzero" vector-effect="none"/>
            <path d="M4.30435,7.8257 L8.21739,7.8257 L8.21739,8.60909 L4.30435,8.60909 L4.30435,7.8257" fill-rule="nonzero" vector-effect="none"/>
            <path d="M4.30435,3.91265 L13.6957,3.91265 L13.6957,4.69604 L4.30435,4.69604 L4.30435,3.91265" fill-rule="nonzero" vector-effect="none"/>
            <path d="M14.0873,6.65217 L14.0873,14.4783 L13.304,14.4783 L13.304,6.65217 L14.0873,6.65217" fill-rule="nonzero" vector-effect="none"/>
            <path d="M11.4204,9.16364 L13.3769,6.42451 L13.6957,5.97828 L14.0144,6.42451 L15.9709,9.16364 L15.3334,9.61897 L13.3769,6.87984 L13.6957,6.65217 L14.0144,6.87984 L12.0579,9.61897 L11.4204,9.16364" fill-rule="nonzero" vector-effect="none"/>
        </g>
    </g>
</svg>
