<?xml version='1.0' encoding='UTF-8' standalone='no'?>
<svg baseProfile="tiny" height="4.23333mm" version="1.2" viewBox="0 0 44 44" width="4.23333mm" xmlns="http://www.w3.org/2000/svg" xmlns:xlink="http://www.w3.org/1999/xlink">
    <style id="current-color-scheme" type="text/css">.ColorScheme-Text {color:#00ae49;}</style>
    <title>Qt SVG Document</title>
    <desc>Auto-generated by Klassy window decoration</desc>
    <defs/>
    <g fill="none" fill-rule="evenodd" stroke="black" stroke-linecap="square" stroke-linejoin="bevel" stroke-width="1">
        <g fill="#00ae49" fill-opacity="0.900008" font-family="Noto Sans" font-size="36.6667" font-style="normal" font-weight="400" stroke="none" transform="matrix(2.44444,0,0,2.44444,11,16)">
            <path d="M0,-0.4095 L7.36364,-0.4095 L7.77314,0 L7.77314,7.36364 L7.36364,7.77314 L0,7.77314 L-0.4095,7.36364 L-0.4095,0 L0,-0.4095 M0.4095,0 L0.4095,7.36364 L0,7.36364 L0,6.95414 L7.36364,6.95414 L7.36364,7.36364 L6.95414,7.36364 L6.95414,0 L7.36364,0 L7.36364,0.4095 L0,0.4095 L0,0 L0.4095,0" fill-rule="nonzero" vector-effect="none"/>
        </g>
        <g fill="#00ae49" fill-opacity="0.900008" font-family="Noto Sans" font-size="36.6667" font-style="normal" font-weight="400" stroke="none" transform="matrix(2.44444,0,0,2.44444,11,16)">
            <path d="M1.63595,-0.4095 L1.63595,-2.04545 L2.04545,-2.45495 L9.40909,-2.45495 L9.81859,-2.04545 L9.81859,5.31818 L9.40909,5.72768 L7.77314,5.72768 L7.77314,4.90868 L9.40909,4.90868 L9.40909,5.31818 L8.99959,5.31818 L8.99959,-2.04545 L9.40909,-2.04545 L9.40909,-1.63595 L2.04545,-1.63595 L2.04545,-2.04545 L2.45495,-2.04545 L2.45495,-0.4095 L1.63595,-0.4095" fill-rule="nonzero" vector-effect="none"/>
        </g>
    </g>
</svg>
