<?xml version='1.0' encoding='UTF-8' standalone='no'?>
<svg baseProfile="tiny" height="4.23333mm" version="1.2" viewBox="0 0 44 44" width="4.23333mm" xmlns="http://www.w3.org/2000/svg" xmlns:xlink="http://www.w3.org/1999/xlink">
    <style id="current-color-scheme" type="text/css">.ColorScheme-Text {color:#e93d58;}</style>
    <title>Qt SVG Document</title>
    <desc>Auto-generated by Klassy window decoration</desc>
    <defs/>
    <g fill="none" fill-rule="evenodd" stroke="black" stroke-linecap="square" stroke-linejoin="bevel" stroke-width="1">
        <g class="ColorScheme-Text" fill="currentColor" fill-opacity="1" font-family="Noto Sans" font-size="36.6667" font-style="normal" font-weight="400" stroke="none" transform="matrix(2.44444,0,0,2.44444,0,0)">
            <path d="M4.09091,4.0905 L13.9091,4.0905 C14.1353,4.0905 14.3186,4.27384 14.3186,4.5 C14.3186,4.72616 14.1353,4.9095 13.9091,4.9095 L4.09091,4.9095 C3.86475,4.9095 3.68141,4.72616 3.68141,4.5 C3.68141,4.27384 3.86475,4.0905 4.09091,4.0905 " fill-rule="nonzero" vector-effect="none"/>
            <path d="M3.71044,12.7104 L8.71044,7.71044 L9,7.42088 L9.28956,7.71044 L14.2896,12.7104 C14.4495,12.8704 14.4495,13.1296 14.2896,13.2896 C14.1296,13.4495 13.8704,13.4495 13.7104,13.2896 L8.71044,8.28956 L9,8 L9.28956,8.28956 L4.28956,13.2896 C4.12964,13.4495 3.87036,13.4495 3.71044,13.2896 C3.55052,13.1296 3.55052,12.8704 3.71044,12.7104 " fill-rule="nonzero" vector-effect="none"/>
        </g>
    </g>
</svg>
