<?xml version='1.0' encoding='UTF-8' standalone='no'?>
<svg baseProfile="tiny" height="8.46667mm" version="1.2" viewBox="0 0 96 96" width="8.46667mm" xmlns="http://www.w3.org/2000/svg" xmlns:xlink="http://www.w3.org/1999/xlink">
    <style id="current-color-scheme" type="text/css">.ColorScheme-Text {color:#e93d58;}</style>
    <title>Qt SVG Document</title>
    <desc>Auto-generated by Klassy window decoration</desc>
    <defs/>
    <g fill="none" fill-rule="evenodd" stroke="black" stroke-linecap="square" stroke-linejoin="bevel" stroke-width="1">
        <g class="ColorScheme-Text" fill="currentColor" fill-opacity="1" font-family="Noto Sans" font-size="40" font-style="normal" font-weight="400" stroke="none" transform="matrix(5.33333,0,0,5.33333,0,0)">
            <path d="M4.40625,12.187 L8.53125,12.187 C8.79039,12.187 9.00047,12.3971 9.00047,12.6563 C9.00047,12.9154 8.79039,13.1255 8.53125,13.1255 L4.40625,13.1255 C4.14711,13.1255 3.93703,12.9154 3.93703,12.6563 C3.93703,12.3971 4.14711,12.187 4.40625,12.187 " fill-rule="nonzero" vector-effect="none"/>
            <path d="M4.40625,8.06203 L8.53125,8.06203 C8.79039,8.06203 9.00047,8.27211 9.00047,8.53125 C9.00047,8.79039 8.79039,9.00047 8.53125,9.00047 L4.40625,9.00047 C4.14711,9.00047 3.93703,8.79039 3.93703,8.53125 C3.93703,8.27211 4.14711,8.06203 4.40625,8.06203 " fill-rule="nonzero" vector-effect="none"/>
            <path d="M4.40625,3.93703 L13.4063,3.93703 C13.6654,3.93703 13.8755,4.14711 13.8755,4.40625 C13.8755,4.66539 13.6654,4.87547 13.4063,4.87547 L4.40625,4.87547 C4.14711,4.87547 3.93703,4.66539 3.93703,4.40625 C3.93703,4.14711 4.14711,3.93703 4.40625,3.93703 " fill-rule="nonzero" vector-effect="none"/>
            <path d="M14.063,6.46875 L14.063,14.5313 C14.063,14.7904 13.8529,15.0005 13.5938,15.0005 C13.3346,15.0005 13.1245,14.7904 13.1245,14.5313 L13.1245,6.46875 C13.1245,6.20961 13.3346,5.99953 13.5938,5.99953 C13.8529,5.99953 14.063,6.20961 14.063,6.46875 " fill-rule="nonzero" vector-effect="none"/>
            <path d="M11.3716,8.21562 L13.2466,6.15312 L13.5938,5.77121 L13.9409,6.15312 L15.8159,8.21562 C15.9903,8.40737 15.9761,8.70413 15.7844,8.87844 C15.5926,9.05276 15.2959,9.03863 15.1216,8.84688 L13.2466,6.78438 L13.5938,6.46875 L13.9409,6.78438 L12.0659,8.84688 C11.8916,9.03863 11.5949,9.05276 11.4031,8.87844 C11.2114,8.70413 11.1972,8.40737 11.3716,8.21562 " fill-rule="nonzero" vector-effect="none"/>
        </g>
    </g>
</svg>
