<?xml version='1.0' encoding='UTF-8' standalone='no'?>
<svg baseProfile="tiny" height="8.46667mm" version="1.2" viewBox="0 0 96 96" width="8.46667mm" xmlns="http://www.w3.org/2000/svg" xmlns:xlink="http://www.w3.org/1999/xlink">
    <style id="current-color-scheme" type="text/css">.ColorScheme-Text {color:#da0016;}</style>
    <title>Qt SVG Document</title>
    <desc>Auto-generated by Klassy window decoration</desc>
    <defs/>
    <g fill="none" fill-rule="evenodd" stroke="black" stroke-linecap="square" stroke-linejoin="bevel" stroke-width="1">
        <g fill="#da0016" fill-opacity="1" font-family="Noto Sans" font-size="40" font-style="normal" font-weight="400" stroke="none" transform="matrix(5.33333,0,0,5.33333,0,0)">
            <path d="M4.73804,4.07446 L13.9255,13.262 C14.1088,13.4452 14.1088,13.7423 13.9255,13.9255 C13.7423,14.1088 13.4452,14.1088 13.262,13.9255 L4.07446,4.73804 C3.89122,4.5548 3.89122,4.2577 4.07446,4.07446 C4.2577,3.89122 4.5548,3.89122 4.73804,4.07446 " fill-rule="nonzero" vector-effect="none"/>
            <path d="M13.9255,4.73804 L4.73804,13.9255 C4.5548,14.1088 4.2577,14.1088 4.07446,13.9255 C3.89122,13.7423 3.89122,13.4452 4.07446,13.262 L13.262,4.07446 C13.4452,3.89122 13.7423,3.89122 13.9255,4.07446 C14.1088,4.2577 14.1088,4.5548 13.9255,4.73804 " fill-rule="nonzero" vector-effect="none"/>
        </g>
    </g>
</svg>
