<?xml version='1.0' encoding='UTF-8' standalone='no'?>
<svg baseProfile="tiny" height="8.46667mm" version="1.2" viewBox="0 0 96 96" width="8.46667mm" xmlns="http://www.w3.org/2000/svg" xmlns:xlink="http://www.w3.org/1999/xlink">
    <style id="current-color-scheme" type="text/css">.ColorScheme-Text {color:#e93d58;}</style>
    <title>Qt SVG Document</title>
    <desc>Auto-generated by Klassy window decoration</desc>
    <defs/>
    <g fill="none" fill-rule="evenodd" stroke="black" stroke-linecap="square" stroke-linejoin="bevel" stroke-width="1">
        <g class="ColorScheme-Text" fill="currentColor" fill-opacity="1" font-family="Noto Sans" font-size="40" font-style="normal" font-weight="400" stroke="none" transform="matrix(5.33333,0,0,5.33333,0,0)">
            <path d="M4.59375,14.062 L13.5938,14.062 C13.8529,14.062 14.063,14.2721 14.063,14.5313 C14.063,14.7904 13.8529,15.0005 13.5938,15.0005 L4.59375,15.0005 C4.33461,15.0005 4.12453,14.7904 4.12453,14.5313 C4.12453,14.2721 4.33461,14.062 4.59375,14.062 " fill-rule="nonzero" vector-effect="none"/>
            <path d="M9.46875,9.93703 L13.5938,9.93703 C13.8529,9.93703 14.063,10.1471 14.063,10.4063 C14.063,10.6654 13.8529,10.8755 13.5938,10.8755 L9.46875,10.8755 C9.20961,10.8755 8.99953,10.6654 8.99953,10.4063 C8.99953,10.1471 9.20961,9.93703 9.46875,9.93703 " fill-rule="nonzero" vector-effect="none"/>
            <path d="M9.46875,5.81203 L13.5938,5.81203 C13.8529,5.81203 14.063,6.02211 14.063,6.28125 C14.063,6.54039 13.8529,6.75047 13.5938,6.75047 L9.46875,6.75047 C9.20961,6.75047 8.99953,6.54039 8.99953,6.28125 C8.99953,6.02211 9.20961,5.81203 9.46875,5.81203 " fill-rule="nonzero" vector-effect="none"/>
            <path d="M4.87547,4.40625 L4.87547,12.4688 C4.87547,12.7279 4.66539,12.938 4.40625,12.938 C4.14711,12.938 3.93703,12.7279 3.93703,12.4688 L3.93703,4.40625 C3.93703,4.14711 4.14711,3.93703 4.40625,3.93703 C4.66539,3.93703 4.87547,4.14711 4.87547,4.40625 " fill-rule="nonzero" vector-effect="none"/>
            <path d="M2.87844,10.0906 L4.75344,12.1531 L4.40625,12.4688 L4.05906,12.1531 L5.93406,10.0906 C6.10837,9.89887 6.40513,9.88474 6.59688,10.0591 C6.78863,10.2334 6.80276,10.5301 6.62844,10.7219 L4.75344,12.7844 L4.40625,13.1663 L4.05906,12.7844 L2.18406,10.7219 C2.00974,10.5301 2.02387,10.2334 2.21562,10.0591 C2.40737,9.88474 2.70413,9.89887 2.87844,10.0906 " fill-rule="nonzero" vector-effect="none"/>
        </g>
    </g>
</svg>
