<?xml version='1.0' encoding='UTF-8' standalone='no'?>
<svg baseProfile="tiny" height="8.46667mm" version="1.2" viewBox="0 0 96 96" width="8.46667mm" xmlns="http://www.w3.org/2000/svg" xmlns:xlink="http://www.w3.org/1999/xlink">
    <style id="current-color-scheme" type="text/css">.ColorScheme-Text {color:#00ae49;}</style>
    <title>Qt SVG Document</title>
    <desc>Auto-generated by Klassy window decoration</desc>
    <defs/>
    <g fill="none" fill-rule="evenodd" stroke="black" stroke-linecap="square" stroke-linejoin="bevel" stroke-width="1">
        <g fill="#00ae49" fill-opacity="0.900008" font-family="Noto Sans" font-size="40" font-style="normal" font-weight="400" stroke="none" transform="matrix(5.33333,0,0,5.33333,0,0)">
            <path d="M3.93703,4.4074 C3.93703,4.21241 4.21241,3.93703 4.4074,3.93703 L13.5926,3.93703 C13.7222,3.93703 13.8333,3.98342 13.925,4.07504 C14.0166,4.16666 14.063,4.27783 14.063,4.4074 L14.063,13.5926 C14.063,13.7222 14.0166,13.8333 13.925,13.925 C13.8333,14.0166 13.7222,14.063 13.5926,14.063 L4.4074,14.063 C4.27783,14.063 4.16666,14.0166 4.07504,13.925 C3.98342,13.8333 3.93703,13.7222 3.93703,13.5926 L3.93703,4.4074 M4.87547,4.4074 L4.87547,13.5926 C4.87547,13.463 4.83023,13.353 4.73861,13.2614 C4.64699,13.1698 4.53697,13.1245 4.4074,13.1245 L13.5926,13.1245 C13.463,13.1245 13.353,13.1698 13.2614,13.2614 C13.1698,13.353 13.1245,13.463 13.1245,13.5926 L13.1245,4.4074 C13.1245,4.53697 13.1698,4.64699 13.2614,4.73861 C13.353,4.83023 13.463,4.87547 13.5926,4.87547 L4.4074,4.87547 C4.60112,4.87547 4.87547,4.60112 4.87547,4.4074 " fill-rule="nonzero" vector-effect="none"/>
        </g>
    </g>
</svg>
