<?xml version='1.0' encoding='UTF-8' standalone='no'?>
<svg baseProfile="tiny" height="6.35mm" version="1.2" viewBox="0 0 42 42" width="6.35mm" xmlns="http://www.w3.org/2000/svg" xmlns:xlink="http://www.w3.org/1999/xlink">
    <style id="current-color-scheme" type="text/css">.ColorScheme-Text {color:#e93d58;}</style>
    <title>Qt SVG Document</title>
    <desc>Auto-generated by Klassy window decoration</desc>
    <defs/>
    <g fill="none" fill-rule="evenodd" stroke="black" stroke-linecap="square" stroke-linejoin="bevel" stroke-width="1">
        <g class="ColorScheme-Text" fill="currentColor" fill-opacity="1" font-family="Noto Sans" font-size="23.3333" font-style="normal" font-weight="400" stroke="none" transform="matrix(2.33333,0,0,2.33333,0,0)">
            <path d="M4.28571,12.4281 L8.57143,12.4281 C8.80836,12.4281 9.00043,12.6202 9.00043,12.8571 C9.00043,13.0941 8.80836,13.2861 8.57143,13.2861 L4.28571,13.2861 C4.04878,13.2861 3.85671,13.0941 3.85671,12.8571 C3.85671,12.6202 4.04878,12.4281 4.28571,12.4281 " fill-rule="nonzero" vector-effect="none"/>
            <path d="M4.28571,8.14243 L8.57143,8.14243 C8.80836,8.14243 9.00043,8.3345 9.00043,8.57143 C9.00043,8.80836 8.80836,9.00043 8.57143,9.00043 L4.28571,9.00043 C4.04878,9.00043 3.85671,8.80836 3.85671,8.57143 C3.85671,8.3345 4.04878,8.14243 4.28571,8.14243 " fill-rule="nonzero" vector-effect="none"/>
            <path d="M4.28571,3.85671 L13.2857,3.85671 C13.5226,3.85671 13.7147,4.04878 13.7147,4.28571 C13.7147,4.52264 13.5226,4.71471 13.2857,4.71471 L4.28571,4.71471 C4.04878,4.71471 3.85671,4.52264 3.85671,4.28571 C3.85671,4.04878 4.04878,3.85671 4.28571,3.85671 " fill-rule="nonzero" vector-effect="none"/>
            <path d="M14.1433,6.42857 L14.1433,14.5714 C14.1433,14.8084 13.9512,15.0004 13.7143,15.0004 C13.4774,15.0004 13.2853,14.8084 13.2853,14.5714 L13.2853,6.42857 C13.2853,6.19164 13.4774,5.99957 13.7143,5.99957 C13.9512,5.99957 14.1433,6.19164 14.1433,6.42857 " fill-rule="nonzero" vector-effect="none"/>
            <path d="M11.665,8.30343 L13.3793,6.16058 L13.7143,5.74184 L14.0493,6.16058 L15.7636,8.30343 C15.9116,8.48845 15.8816,8.75841 15.6966,8.90642 C15.5116,9.05443 15.2416,9.02443 15.0936,8.83942 L13.3793,6.69657 L13.7143,6.42857 L14.0493,6.69657 L12.335,8.83942 C12.187,9.02443 11.917,9.05443 11.732,8.90642 C11.547,8.75841 11.517,8.48845 11.665,8.30343 " fill-rule="nonzero" vector-effect="none"/>
        </g>
    </g>
</svg>
