<?xml version='1.0' encoding='UTF-8' standalone='no'?>
<svg baseProfile="tiny" height="6.35mm" version="1.2" viewBox="0 0 42 42" width="6.35mm" xmlns="http://www.w3.org/2000/svg" xmlns:xlink="http://www.w3.org/1999/xlink">
    <style id="current-color-scheme" type="text/css">.ColorScheme-Text {color:#00ae49;}</style>
    <title>Qt SVG Document</title>
    <desc>Auto-generated by Klassy window decoration</desc>
    <defs/>
    <g fill="none" fill-rule="evenodd" stroke="black" stroke-linecap="square" stroke-linejoin="bevel" stroke-width="1">
        <g fill="#00ae49" fill-opacity="0.900008" font-family="Noto Sans" font-size="23.3333" font-style="normal" font-weight="400" stroke="none" transform="matrix(2.33333,0,0,2.33333,10,15)">
            <path d="M0,-0.429 L7.28571,-0.429 L7.71471,0 L7.71471,7.28571 L7.28571,7.71471 L0,7.71471 L-0.429,7.28571 L-0.429,0 L0,-0.429 M0.429,0 L0.429,7.28571 L0,7.28571 L0,6.85671 L7.28571,6.85671 L7.28571,7.28571 L6.85671,7.28571 L6.85671,0 L7.28571,0 L7.28571,0.429 L0,0.429 L0,0 L0.429,0" fill-rule="nonzero" vector-effect="none"/>
        </g>
        <g fill="#00ae49" fill-opacity="0.900008" font-family="Noto Sans" font-size="23.3333" font-style="normal" font-weight="400" stroke="none" transform="matrix(2.33333,0,0,2.33333,10,15)">
            <path d="M1.71386,-0.429 L1.71386,-2.14286 L2.14286,-2.57186 L9.42857,-2.57186 L9.85757,-2.14286 L9.85757,5.14286 L9.42857,5.57186 L7.71471,5.57186 L7.71471,4.71386 L9.42857,4.71386 L9.42857,5.14286 L8.99957,5.14286 L8.99957,-2.14286 L9.42857,-2.14286 L9.42857,-1.71386 L2.14286,-1.71386 L2.14286,-2.14286 L2.57186,-2.14286 L2.57186,-0.429 L1.71386,-0.429" fill-rule="nonzero" vector-effect="none"/>
        </g>
    </g>
</svg>
