<?xml version='1.0' encoding='UTF-8' standalone='no'?>
<svg baseProfile="tiny" height="6.35mm" version="1.2" viewBox="0 0 42 42" width="6.35mm" xmlns="http://www.w3.org/2000/svg" xmlns:xlink="http://www.w3.org/1999/xlink">
    <style id="current-color-scheme" type="text/css">.ColorScheme-Text {color:#00ae49;}</style>
    <title>Qt SVG Document</title>
    <desc>Auto-generated by Klassy window decoration</desc>
    <defs/>
    <g fill="none" fill-rule="evenodd" stroke="black" stroke-linecap="square" stroke-linejoin="bevel" stroke-width="1">
        <g fill="#00ae49" fill-opacity="0.900008" font-family="Noto Sans" font-size="23.3333" font-style="normal" font-weight="400" stroke="none" transform="matrix(2.33333,0,0,2.33333,0,0)">
            <path d="M3.85671,4.28689 C3.85671,4.10854 4.10854,3.85671 4.28689,3.85671 L13.7131,3.85671 C13.8915,3.85671 14.1433,4.10854 14.1433,4.28689 L14.1433,13.7131 C14.1433,13.8915 13.8915,14.1433 13.7131,14.1433 L4.28689,14.1433 C4.10854,14.1433 3.85671,13.8915 3.85671,13.7131 L3.85671,4.28689 M4.71471,4.28689 L4.71471,13.7131 C4.71471,13.5361 4.46394,13.2853 4.28689,13.2853 L13.7131,13.2853 C13.5361,13.2853 13.2853,13.5361 13.2853,13.7131 L13.2853,4.28689 C13.2853,4.46394 13.5361,4.71471 13.7131,4.71471 L4.28689,4.71471 C4.46394,4.71471 4.71471,4.46394 4.71471,4.28689 " fill-rule="nonzero" vector-effect="none"/>
        </g>
    </g>
</svg>
