<?xml version='1.0' encoding='UTF-8' standalone='no'?>
<svg baseProfile="tiny" height="6.35mm" version="1.2" viewBox="0 0 42 42" width="6.35mm" xmlns="http://www.w3.org/2000/svg" xmlns:xlink="http://www.w3.org/1999/xlink">
    <style id="current-color-scheme" type="text/css">.ColorScheme-Text {color:#e93d58;}</style>
    <title>Qt SVG Document</title>
    <desc>Auto-generated by Klassy window decoration</desc>
    <defs/>
    <g fill="none" fill-rule="evenodd" stroke="black" stroke-linecap="square" stroke-linejoin="bevel" stroke-width="1">
        <g class="ColorScheme-Text" fill="currentColor" fill-opacity="1" font-family="Noto Sans" font-size="23.3333" font-style="normal" font-weight="400" stroke="none" transform="matrix(2.33333,0,0,2.33333,0,0)">
            <path d="M3.85714,4.28529 L14.1429,4.28529 C14.3798,4.28529 14.5719,4.47736 14.5719,4.71429 C14.5719,4.95122 14.3798,5.14329 14.1429,5.14329 L3.85714,5.14329 C3.62021,5.14329 3.42814,4.95122 3.42814,4.71429 C3.42814,4.47736 3.62021,4.28529 3.85714,4.28529 " fill-rule="nonzero" vector-effect="none"/>
            <path d="M3.69665,12.6967 L8.69665,7.69665 L9,7.3933 L9.30335,7.69665 L14.3033,12.6967 C14.4709,12.8642 14.4709,13.1358 14.3033,13.3033 C14.1358,13.4709 13.8642,13.4709 13.6967,13.3033 L8.69665,8.30335 L9,8 L9.30335,8.30335 L4.30335,13.3033 C4.13581,13.4709 3.86419,13.4709 3.69665,13.3033 C3.52912,13.1358 3.52912,12.8642 3.69665,12.6967 " fill-rule="nonzero" vector-effect="none"/>
        </g>
    </g>
</svg>
