<?xml version='1.0' encoding='UTF-8' standalone='no'?>
<svg baseProfile="tiny" height="12.7mm" version="1.2" viewBox="0 0 60 60" width="12.7mm" xmlns="http://www.w3.org/2000/svg" xmlns:xlink="http://www.w3.org/1999/xlink">
    <style id="current-color-scheme" type="text/css">.ColorScheme-Text {color:#e93d58;}</style>
    <title>Qt SVG Document</title>
    <desc>Auto-generated by Klassy window decoration</desc>
    <defs/>
    <g fill="none" fill-rule="evenodd" stroke="black" stroke-linecap="square" stroke-linejoin="bevel" stroke-width="1">
        <g class="ColorScheme-Text" fill="currentColor" fill-opacity="1" font-family="Noto Sans" font-size="16.6667" font-style="normal" font-weight="400" stroke="none" transform="matrix(3.33333,0,0,3.33333,0,0)">
            <path d="M3.9,4.19955 L14.1,4.19955 C14.3488,4.19955 14.5504,4.40122 14.5504,4.65 C14.5504,4.89878 14.3488,5.10045 14.1,5.10045 L3.9,5.10045 C3.65122,5.10045 3.44955,4.89878 3.44955,4.65 C3.44955,4.40122 3.65122,4.19955 3.9,4.19955 " fill-rule="nonzero" vector-effect="none"/>
            <path d="M3.68148,12.6815 L8.68148,7.68148 L9,7.36297 L9.31852,7.68148 L14.3185,12.6815 C14.4944,12.8574 14.4944,13.1426 14.3185,13.3185 C14.1426,13.4944 13.8574,13.4944 13.6815,13.3185 L8.68148,8.31852 L9,8 L9.31852,8.31852 L4.31852,13.3185 C4.1426,13.4944 3.8574,13.4944 3.68148,13.3185 C3.50557,13.1426 3.50557,12.8574 3.68148,12.6815 " fill-rule="nonzero" vector-effect="none"/>
        </g>
    </g>
</svg>
