<?xml version='1.0' encoding='UTF-8' standalone='no'?>
<svg baseProfile="tiny" height="5.29167mm" version="1.2" viewBox="0 0 55 55" width="5.29167mm" xmlns="http://www.w3.org/2000/svg" xmlns:xlink="http://www.w3.org/1999/xlink">
    <style id="current-color-scheme" type="text/css">.ColorScheme-Text {color:#da0016;}</style>
    <title>Qt SVG Document</title>
    <desc>Auto-generated by Klassy window decoration</desc>
    <defs/>
    <g fill="none" fill-rule="evenodd" stroke="black" stroke-linecap="square" stroke-linejoin="bevel" stroke-width="1">
        <g fill="#da0016" fill-opacity="0.719997" font-family="Noto Sans" font-size="36.6667" font-style="normal" font-weight="400" stroke="none" transform="matrix(3.4375,0,0,3.4375,0,0)">
            <path d="M2,3.2 C2,2.53726 2.53726,2 3.2,2 L12.8,2 C13.4627,2 14,2.53726 14,3.2 L14,12.8 C14,13.4627 13.4627,14 12.8,14 L3.2,14 C2.53726,14 2,13.4627 2,12.8 L2,3.2" fill-rule="evenodd" vector-effect="none"/>
        </g>
        <g fill="#dee0e2" fill-opacity="1" font-family="Noto Sans" font-size="36.6667" font-style="normal" font-weight="400" stroke="none" transform="matrix(3.05556,0,0,3.05556,0,0)">
            <path d="M4.76565,4.07071 L14.2566,13.5616 C14.4485,13.7535 14.4485,14.0647 14.2566,14.2566 C14.0647,14.4485 13.7535,14.4485 13.5616,14.2566 L4.07071,4.76565 C3.87881,4.57375 3.87881,4.26261 4.07071,4.07071 C4.26261,3.87881 4.57375,3.87881 4.76565,4.07071 " fill-rule="nonzero" vector-effect="none"/>
            <path d="M14.2566,4.76565 L4.76565,14.2566 C4.57375,14.4485 4.26261,14.4485 4.07071,14.2566 C3.87881,14.0647 3.87881,13.7535 4.07071,13.5616 L13.5616,4.07071 C13.7535,3.87881 14.0647,3.87881 14.2566,4.07071 C14.4485,4.26261 14.4485,4.57375 14.2566,4.76565 " fill-rule="nonzero" vector-effect="none"/>
        </g>
    </g>
</svg>
