<?xml version='1.0' encoding='UTF-8' standalone='no'?>
<svg baseProfile="tiny" height="5.29167mm" version="1.2" viewBox="0 0 55 55" width="5.29167mm" xmlns="http://www.w3.org/2000/svg" xmlns:xlink="http://www.w3.org/1999/xlink">
    <style id="current-color-scheme" type="text/css">.ColorScheme-Text {color:#00ae49;}</style>
    <title>Qt SVG Document</title>
    <desc>Auto-generated by Klassy window decoration</desc>
    <defs/>
    <g fill="none" fill-rule="evenodd" stroke="black" stroke-linecap="square" stroke-linejoin="bevel" stroke-width="1">
        <g fill="#00ae49" fill-opacity="0.900008" font-family="Noto Sans" font-size="36.6667" font-style="normal" font-weight="400" stroke="none" transform="matrix(3.05556,0,0,3.05556,13.5,20.5)">
            <path d="M0,-0.4914 L7.2,-0.4914 L7.6914,0 L7.6914,7.2 L7.2,7.6914 L0,7.6914 L-0.4914,7.2 L-0.4914,0 L0,-0.4914 M0.4914,0 L0.4914,7.2 L0,7.2 L0,6.7086 L7.2,6.7086 L7.2,7.2 L6.7086,7.2 L6.7086,0 L7.2,0 L7.2,0.4914 L0,0.4914 L0,0 L0.4914,0" fill-rule="nonzero" vector-effect="none"/>
        </g>
        <g fill="#00ae49" fill-opacity="0.900008" font-family="Noto Sans" font-size="36.6667" font-style="normal" font-weight="400" stroke="none" transform="matrix(3.05556,0,0,3.05556,13.5,20.5)">
            <path d="M1.79951,-0.4914 L1.79951,-2.29091 L2.29091,-2.78231 L9.49091,-2.78231 L9.98231,-2.29091 L9.98231,4.90909 L9.49091,5.40049 L7.6914,5.40049 L7.6914,4.41769 L9.49091,4.41769 L9.49091,4.90909 L8.99951,4.90909 L8.99951,-2.29091 L9.49091,-2.29091 L9.49091,-1.79951 L2.29091,-1.79951 L2.29091,-2.29091 L2.78231,-2.29091 L2.78231,-0.4914 L1.79951,-0.4914" fill-rule="nonzero" vector-effect="none"/>
        </g>
    </g>
</svg>
