<?xml version='1.0' encoding='UTF-8' standalone='no'?>
<svg baseProfile="tiny" height="5.29167mm" version="1.2" viewBox="0 0 55 55" width="5.29167mm" xmlns="http://www.w3.org/2000/svg" xmlns:xlink="http://www.w3.org/1999/xlink">
    <style id="current-color-scheme" type="text/css">.ColorScheme-Text {color:#e93d58;}</style>
    <title>Qt SVG Document</title>
    <desc>Auto-generated by Klassy window decoration</desc>
    <defs/>
    <g fill="none" fill-rule="evenodd" stroke="black" stroke-linecap="square" stroke-linejoin="bevel" stroke-width="1">
        <g class="ColorScheme-Text" fill="currentColor" fill-opacity="1" font-family="Noto Sans" font-size="36.6667" font-style="normal" font-weight="400" stroke="none" transform="matrix(3.05556,0,0,3.05556,0,0)">
            <path d="M3.92727,3.92678 L14.0727,3.92678 C14.3441,3.92678 14.5641,4.14679 14.5641,4.41818 C14.5641,4.68957 14.3441,4.90958 14.0727,4.90958 L3.92727,4.90958 C3.65588,4.90958 3.43587,4.68957 3.43587,4.41818 C3.43587,4.14679 3.65588,3.92678 3.92727,3.92678 " fill-rule="nonzero" vector-effect="none"/>
            <path d="M3.65253,12.6525 L8.65253,7.65253 L9,7.30506 L9.34747,7.65253 L14.3475,12.6525 C14.5394,12.8444 14.5394,13.1556 14.3475,13.3475 C14.1556,13.5394 13.8444,13.5394 13.6525,13.3475 L8.65253,8.34747 L9,8 L9.34747,8.34747 L4.34747,13.3475 C4.15557,13.5394 3.84443,13.5394 3.65253,13.3475 C3.46062,13.1556 3.46062,12.8444 3.65253,12.6525 " fill-rule="nonzero" vector-effect="none"/>
        </g>
    </g>
</svg>
