<?xml version='1.0' encoding='UTF-8' standalone='no'?>
<svg baseProfile="tiny" height="5.29167mm" version="1.2" viewBox="0 0 55 55" width="5.29167mm" xmlns="http://www.w3.org/2000/svg" xmlns:xlink="http://www.w3.org/1999/xlink">
    <style id="current-color-scheme" type="text/css">.ColorScheme-Text {color:#00ae49;}</style>
    <title>Qt SVG Document</title>
    <desc>Auto-generated by Klassy window decoration</desc>
    <defs/>
    <g fill="none" fill-rule="evenodd" stroke="black" stroke-linecap="square" stroke-linejoin="bevel" stroke-width="1">
        <g fill="#00ae49" fill-opacity="0.900008" font-family="Noto Sans" font-size="36.6667" font-style="normal" font-weight="400" stroke="none" transform="matrix(3.05556,0,0,3.05556,0,0)">
            <path d="M3.92678,4.41937 C3.92678,4.21517 4.21517,3.92678 4.41937,3.92678 L13.9079,3.92678 C14.1121,3.92678 14.4005,4.21517 14.4005,4.41937 L14.4005,13.9079 C14.4005,14.1121 14.1121,14.4005 13.9079,14.4005 L4.41937,14.4005 C4.21517,14.4005 3.92678,14.1121 3.92678,13.9079 L3.92678,4.41937 M4.90958,4.41937 L4.90958,13.9079 C4.90958,13.705 4.62226,13.4177 4.41937,13.4177 L13.9079,13.4177 C13.705,13.4177 13.4177,13.705 13.4177,13.9079 L13.4177,4.41937 C13.4177,4.62226 13.705,4.90958 13.9079,4.90958 L4.41937,4.90958 C4.62226,4.90958 4.90958,4.62226 4.90958,4.41937 " fill-rule="nonzero" vector-effect="none"/>
        </g>
    </g>
</svg>
