<?xml version='1.0' encoding='UTF-8' standalone='no'?>
<svg baseProfile="tiny" height="5.29167mm" version="1.2" viewBox="0 0 55 55" width="5.29167mm" xmlns="http://www.w3.org/2000/svg" xmlns:xlink="http://www.w3.org/1999/xlink">
    <style id="current-color-scheme" type="text/css">.ColorScheme-Text {color:#e93d58;}</style>
    <title>Qt SVG Document</title>
    <desc>Auto-generated by Klassy window decoration</desc>
    <defs/>
    <g fill="none" fill-rule="evenodd" stroke="black" stroke-linecap="square" stroke-linejoin="bevel" stroke-width="1">
        <g class="ColorScheme-Text" fill="currentColor" fill-opacity="1" font-family="Noto Sans" font-size="36.6667" font-style="normal" font-weight="400" stroke="none" transform="matrix(3.05556,0,0,3.05556,0,0)">
            <path d="M3.92727,3.92678 L14.0727,3.92678 C14.3441,3.92678 14.5641,4.14679 14.5641,4.41818 C14.5641,4.68957 14.3441,4.90958 14.0727,4.90958 L3.92727,4.90958 C3.65588,4.90958 3.43587,4.68957 3.43587,4.41818 C3.43587,4.14679 3.65588,3.92678 3.92727,3.92678 " fill-rule="nonzero" vector-effect="none"/>
            <path d="M4.34747,7.65253 L9.34747,12.6525 L9,13 L8.65253,12.6525 L13.6525,7.65253 C13.8444,7.46062 14.1556,7.46062 14.3475,7.65253 C14.5394,7.84443 14.5394,8.15557 14.3475,8.34747 L9.34747,13.3475 L9,13.6949 L8.65253,13.3475 L3.65253,8.34747 C3.46062,8.15557 3.46062,7.84443 3.65253,7.65253 C3.84443,7.46062 4.15557,7.46062 4.34747,7.65253 " fill-rule="nonzero" vector-effect="none"/>
        </g>
    </g>
</svg>
