<?xml version='1.0' encoding='UTF-8' standalone='no'?>
<svg baseProfile="tiny" height="8.46667mm" version="1.2" viewBox="0 0 56 56" width="8.46667mm" xmlns="http://www.w3.org/2000/svg" xmlns:xlink="http://www.w3.org/1999/xlink">
    <style id="current-color-scheme" type="text/css">.ColorScheme-Text {color:#e93d58;}</style>
    <title>Qt SVG Document</title>
    <desc>Auto-generated by Klassy window decoration</desc>
    <defs/>
    <g fill="none" fill-rule="evenodd" stroke="black" stroke-linecap="square" stroke-linejoin="bevel" stroke-width="1">
        <g class="ColorScheme-Text" fill="currentColor" fill-opacity="1" font-family="Noto Sans" font-size="23.3333" font-style="normal" font-weight="400" stroke="none" transform="matrix(3.11111,0,0,3.11111,0,0)">
            <path d="M4.33929,12.2138 L8.51786,12.2138 C8.7844,12.2138 9.00048,12.4299 9.00048,12.6964 C9.00048,12.963 8.7844,13.1791 8.51786,13.1791 L4.33929,13.1791 C4.07274,13.1791 3.85666,12.963 3.85666,12.6964 C3.85666,12.4299 4.07274,12.2138 4.33929,12.2138 " fill-rule="nonzero" vector-effect="none"/>
            <path d="M4.33929,8.03523 L8.51786,8.03523 C8.7844,8.03523 9.00048,8.25131 9.00048,8.51786 C9.00048,8.7844 8.7844,9.00048 8.51786,9.00048 L4.33929,9.00048 C4.07274,9.00048 3.85666,8.7844 3.85666,8.51786 C3.85666,8.25131 4.07274,8.03523 4.33929,8.03523 " fill-rule="nonzero" vector-effect="none"/>
            <path d="M4.33929,3.85666 L13.3393,3.85666 C13.6058,3.85666 13.8219,4.07274 13.8219,4.33929 C13.8219,4.60583 13.6058,4.82191 13.3393,4.82191 L4.33929,4.82191 C4.07274,4.82191 3.85666,4.60583 3.85666,4.33929 C3.85666,4.07274 4.07274,3.85666 4.33929,3.85666 " fill-rule="nonzero" vector-effect="none"/>
            <path d="M14.1433,6.58929 L14.1433,14.625 C14.1433,14.8915 13.9273,15.1076 13.6607,15.1076 C13.3942,15.1076 13.1781,14.8915 13.1781,14.625 L13.1781,6.58929 C13.1781,6.32274 13.3942,6.10666 13.6607,6.10666 C13.9273,6.10666 14.1433,6.32274 14.1433,6.58929 " fill-rule="nonzero" vector-effect="none"/>
            <path d="M11.3909,8.17659 L13.3194,6.24802 L13.6607,5.90675 L14.002,6.24802 L15.9306,8.17659 C16.119,8.36507 16.119,8.67065 15.9306,8.85912 C15.7421,9.0476 15.4365,9.0476 15.248,8.85912 L13.3194,6.93055 L13.6607,6.58929 L14.002,6.93055 L12.0734,8.85912 C11.8849,9.0476 11.5794,9.0476 11.3909,8.85912 C11.2024,8.67065 11.2024,8.36507 11.3909,8.17659 " fill-rule="nonzero" vector-effect="none"/>
        </g>
    </g>
</svg>
