<?xml version='1.0' encoding='UTF-8' standalone='no'?>
<svg baseProfile="tiny" height="8.46667mm" version="1.2" viewBox="0 0 56 56" width="8.46667mm" xmlns="http://www.w3.org/2000/svg" xmlns:xlink="http://www.w3.org/1999/xlink">
    <style id="current-color-scheme" type="text/css">.ColorScheme-Text {color:#e93d58;}</style>
    <title>Qt SVG Document</title>
    <desc>Auto-generated by Klassy window decoration</desc>
    <defs/>
    <g fill="none" fill-rule="evenodd" stroke="black" stroke-linecap="square" stroke-linejoin="bevel" stroke-width="1">
        <g class="ColorScheme-Text" fill="currentColor" fill-opacity="1" font-family="Noto Sans" font-size="23.3333" font-style="normal" font-weight="400" stroke="none" transform="matrix(3.11111,0,0,3.11111,0,0)">
            <path d="M3.85714,4.17809 L14.1429,4.17809 C14.4094,4.17809 14.6255,4.39417 14.6255,4.66071 C14.6255,4.92726 14.4094,5.14334 14.1429,5.14334 L3.85714,5.14334 C3.5906,5.14334 3.37452,4.92726 3.37452,4.66071 C3.37452,4.39417 3.5906,4.17809 3.85714,4.17809 " fill-rule="nonzero" vector-effect="none"/>
            <path d="M4.34127,7.65873 L9.34127,12.6587 L9,13 L8.65873,12.6587 L13.6587,7.65873 C13.8472,7.47026 14.1528,7.47026 14.3413,7.65873 C14.5297,7.84721 14.5297,8.15279 14.3413,8.34127 L9.34127,13.3413 L9,13.6825 L8.65873,13.3413 L3.65873,8.34127 C3.47026,8.15279 3.47026,7.84721 3.65873,7.65873 C3.84721,7.47026 4.15279,7.47026 4.34127,7.65873 " fill-rule="nonzero" vector-effect="none"/>
        </g>
    </g>
</svg>
