<?xml version='1.0' encoding='UTF-8' standalone='no'?>
<svg baseProfile="tiny" height="6.35mm" version="1.2" viewBox="0 0 30 30" width="6.35mm" xmlns="http://www.w3.org/2000/svg" xmlns:xlink="http://www.w3.org/1999/xlink">
    <style id="current-color-scheme" type="text/css">.ColorScheme-Text {color:#da0016;}</style>
    <title>Qt SVG Document</title>
    <desc>Auto-generated by Klassy window decoration</desc>
    <defs/>
    <g fill="none" fill-rule="evenodd" stroke="black" stroke-linecap="square" stroke-linejoin="bevel" stroke-width="1">
        <g fill="#da0016" fill-opacity="1" font-family="Noto Sans" font-size="16.6667" font-style="normal" font-weight="400" stroke="none" transform="matrix(1.66667,0,0,1.66667,0,0)">
            <path d="M4.62469,3.77531 L14.2247,13.3753 C14.4592,13.6099 14.4592,13.9901 14.2247,14.2247 C13.9901,14.4592 13.6099,14.4592 13.3753,14.2247 L3.77531,4.62469 C3.54076,4.39014 3.54076,4.00986 3.77531,3.77531 C4.00986,3.54076 4.39014,3.54076 4.62469,3.77531 " fill-rule="nonzero" vector-effect="none"/>
            <path d="M14.2247,4.62469 L4.62469,14.2247 C4.39014,14.4592 4.00986,14.4592 3.77531,14.2247 C3.54076,13.9901 3.54076,13.6099 3.77531,13.3753 L13.3753,3.77531 C13.6099,3.54076 13.9901,3.54076 14.2247,3.77531 C14.4592,4.00986 14.4592,4.39014 14.2247,4.62469 " fill-rule="nonzero" vector-effect="none"/>
        </g>
    </g>
</svg>
