<?xml version='1.0' encoding='UTF-8' standalone='no'?>
<svg baseProfile="tiny" height="5.29167mm" version="1.2" viewBox="0 0 40 40" width="5.29167mm" xmlns="http://www.w3.org/2000/svg" xmlns:xlink="http://www.w3.org/1999/xlink">
    <style id="current-color-scheme" type="text/css">.ColorScheme-Text {color:#e93d58;}</style>
    <title>Qt SVG Document</title>
    <desc>Auto-generated by Klassy window decoration</desc>
    <defs/>
    <g fill="none" fill-rule="evenodd" stroke="black" stroke-linecap="square" stroke-linejoin="bevel" stroke-width="1">
        <g class="ColorScheme-Text" fill="currentColor" fill-opacity="1" font-family="Noto Sans" font-size="26.6667" font-style="normal" font-weight="400" stroke="none" transform="matrix(2.22222,0,0,2.22222,0,0)">
            <path d="M4.5,12.1496 L8.55,12.1496 C8.79878,12.1496 9.00045,12.3512 9.00045,12.6 C9.00045,12.8488 8.79878,13.0505 8.55,13.0505 L4.5,13.0505 C4.25122,13.0505 4.04955,12.8488 4.04955,12.6 C4.04955,12.3512 4.25122,12.1496 4.5,12.1496 " fill-rule="nonzero" vector-effect="none"/>
            <path d="M4.5,8.09955 L8.55,8.09955 C8.79878,8.09955 9.00045,8.30122 9.00045,8.55 C9.00045,8.79878 8.79878,9.00045 8.55,9.00045 L4.5,9.00045 C4.25122,9.00045 4.04955,8.79878 4.04955,8.55 C4.04955,8.30122 4.25122,8.09955 4.5,8.09955 " fill-rule="nonzero" vector-effect="none"/>
            <path d="M4.5,4.04955 L13.5,4.04955 C13.7488,4.04955 13.9505,4.25122 13.9505,4.5 C13.9505,4.74878 13.7488,4.95045 13.5,4.95045 L4.5,4.95045 C4.25122,4.95045 4.04955,4.74878 4.04955,4.5 C4.04955,4.25122 4.25122,4.04955 4.5,4.04955 " fill-rule="nonzero" vector-effect="none"/>
            <path d="M13.9505,6.3 L13.9505,14.4 C13.9505,14.6488 13.7488,14.8504 13.5,14.8504 C13.2512,14.8504 13.0495,14.6488 13.0495,14.4 L13.0495,6.3 C13.0495,6.05122 13.2512,5.84955 13.5,5.84955 C13.7488,5.84955 13.9505,6.05122 13.9505,6.3 " fill-rule="nonzero" vector-effect="none"/>
            <path d="M11.3483,8.26861 L13.1483,6.01861 L13.5,5.57893 L13.8517,6.01861 L15.6517,8.26861 C15.8072,8.46287 15.7757,8.74633 15.5814,8.90174 C15.3871,9.05715 15.1037,9.02566 14.9483,8.83139 L13.1483,6.58139 L13.5,6.3 L13.8517,6.58139 L12.0517,8.83139 C11.8963,9.02566 11.6129,9.05715 11.4186,8.90174 C11.2243,8.74633 11.1928,8.46287 11.3483,8.26861 " fill-rule="nonzero" vector-effect="none"/>
        </g>
    </g>
</svg>
