<?xml version='1.0' encoding='UTF-8' standalone='no'?>
<svg baseProfile="tiny" height="6.35mm" version="1.2" viewBox="0 0 60 60" width="6.35mm" xmlns="http://www.w3.org/2000/svg" xmlns:xlink="http://www.w3.org/1999/xlink">
    <style id="current-color-scheme" type="text/css">.ColorScheme-Text {color:#da0016;}</style>
    <title>Qt SVG Document</title>
    <desc>Auto-generated by Klassy window decoration</desc>
    <defs/>
    <g fill="none" fill-rule="evenodd" stroke="black" stroke-linecap="square" stroke-linejoin="bevel" stroke-width="1">
        <g fill="#da0016" fill-opacity="0.719997" font-family="Noto Sans" font-size="33.3333" font-style="normal" font-weight="400" stroke="none" transform="matrix(3.75,0,0,3.75,0,0)">
            <path d="M2,3.2 C2,2.53726 2.53726,2 3.2,2 L12.8,2 C13.4627,2 14,2.53726 14,3.2 L14,12.8 C14,13.4627 13.4627,14 12.8,14 L3.2,14 C2.53726,14 2,13.4627 2,12.8 L2,3.2" fill-rule="evenodd" vector-effect="none"/>
        </g>
        <g fill="#dee0e2" fill-opacity="1" font-family="Noto Sans" font-size="33.3333" font-style="normal" font-weight="400" stroke="none" transform="matrix(3.33333,0,0,3.33333,0,0)">
            <path d="M4.66852,4.03148 L13.9685,13.3315 C14.1444,13.5074 14.1444,13.7926 13.9685,13.9685 C13.7926,14.1444 13.5074,14.1444 13.3315,13.9685 L4.03148,4.66852 C3.85557,4.4926 3.85557,4.2074 4.03148,4.03148 C4.2074,3.85557 4.4926,3.85557 4.66852,4.03148 " fill-rule="nonzero" vector-effect="none"/>
            <path d="M13.9685,4.66852 L4.66852,13.9685 C4.4926,14.1444 4.2074,14.1444 4.03148,13.9685 C3.85557,13.7926 3.85557,13.5074 4.03148,13.3315 L13.3315,4.03148 C13.5074,3.85557 13.7926,3.85557 13.9685,4.03148 C14.1444,4.2074 14.1444,4.4926 13.9685,4.66852 " fill-rule="nonzero" vector-effect="none"/>
        </g>
    </g>
</svg>
