<?xml version='1.0' encoding='UTF-8' standalone='no'?>
<svg baseProfile="tiny" height="6.35mm" version="1.2" viewBox="0 0 60 60" width="6.35mm" xmlns="http://www.w3.org/2000/svg" xmlns:xlink="http://www.w3.org/1999/xlink">
    <style id="current-color-scheme" type="text/css">.ColorScheme-Text {color:#00ae49;}</style>
    <title>Qt SVG Document</title>
    <desc>Auto-generated by Klassy window decoration</desc>
    <defs/>
    <g fill="none" fill-rule="evenodd" stroke="black" stroke-linecap="square" stroke-linejoin="bevel" stroke-width="1">
        <g fill="#00ae49" fill-opacity="0.900008" font-family="Noto Sans" font-size="33.3333" font-style="normal" font-weight="400" stroke="none" transform="matrix(3.33333,0,0,3.33333,0,0)">
            <path d="M3.89955,4.35116 C3.89955,4.16394 4.16394,3.89955 4.35116,3.89955 L13.6488,3.89955 C13.7732,3.89955 13.88,3.94411 13.9679,4.03207 C14.0559,4.12002 14.1005,4.22677 14.1004,4.35116 L14.1004,13.6488 C14.1005,13.7732 14.0559,13.88 13.9679,13.9679 C13.88,14.0559 13.7732,14.1005 13.6488,14.1004 L4.35116,14.1004 C4.22677,14.1005 4.12002,14.0559 4.03207,13.9679 C3.94411,13.88 3.89955,13.7732 3.89955,13.6488 L3.89955,4.35116 M4.80045,4.35116 L4.80045,13.6488 C4.80045,13.5244 4.75705,13.4189 4.6691,13.3309 C4.58114,13.2429 4.47555,13.1995 4.35116,13.1995 L13.6488,13.1995 C13.5244,13.1995 13.4189,13.2429 13.3309,13.3309 C13.2429,13.4189 13.1995,13.5244 13.1995,13.6488 L13.1995,4.35116 C13.1995,4.47555 13.2429,4.58114 13.3309,4.6691 C13.4189,4.75705 13.5244,4.80045 13.6488,4.80045 L4.35116,4.80045 C4.5371,4.80045 4.80045,4.5371 4.80045,4.35116 " fill-rule="nonzero" vector-effect="none"/>
        </g>
    </g>
</svg>
