<?xml version='1.0' encoding='UTF-8' standalone='no'?>
<svg baseProfile="tiny" height="6.35mm" version="1.2" viewBox="0 0 60 60" width="6.35mm" xmlns="http://www.w3.org/2000/svg" xmlns:xlink="http://www.w3.org/1999/xlink">
    <style id="current-color-scheme" type="text/css">.ColorScheme-Text {color:#e93d58;}</style>
    <title>Qt SVG Document</title>
    <desc>Auto-generated by Klassy window decoration</desc>
    <defs/>
    <g fill="none" fill-rule="evenodd" stroke="black" stroke-linecap="square" stroke-linejoin="bevel" stroke-width="1">
        <g class="ColorScheme-Text" fill="currentColor" fill-opacity="1" font-family="Noto Sans" font-size="33.3333" font-style="normal" font-weight="400" stroke="none" transform="matrix(3.33333,0,0,3.33333,0,0)">
            <path d="M4.35,12.2995 L8.55,12.2995 C8.79878,12.2995 9.00045,12.5012 9.00045,12.75 C9.00045,12.9988 8.79878,13.2004 8.55,13.2004 L4.35,13.2004 C4.10122,13.2004 3.89955,12.9988 3.89955,12.75 C3.89955,12.5012 4.10122,12.2995 4.35,12.2995 " fill-rule="nonzero" vector-effect="none"/>
            <path d="M4.35,8.09955 L8.55,8.09955 C8.79878,8.09955 9.00045,8.30122 9.00045,8.55 C9.00045,8.79878 8.79878,9.00045 8.55,9.00045 L4.35,9.00045 C4.10122,9.00045 3.89955,8.79878 3.89955,8.55 C3.89955,8.30122 4.10122,8.09955 4.35,8.09955 " fill-rule="nonzero" vector-effect="none"/>
            <path d="M4.35,3.89955 L13.35,3.89955 C13.5988,3.89955 13.8004,4.10122 13.8004,4.35 C13.8004,4.59878 13.5988,4.80045 13.35,4.80045 L4.35,4.80045 C4.10122,4.80045 3.89955,4.59878 3.89955,4.35 C3.89955,4.10122 4.10122,3.89955 4.35,3.89955 " fill-rule="nonzero" vector-effect="none"/>
            <path d="M14.1004,6.45 L14.1004,14.55 C14.1004,14.7988 13.8988,15.0004 13.65,15.0004 C13.4012,15.0004 13.1995,14.7988 13.1995,14.55 L13.1995,6.45 C13.1995,6.20122 13.4012,5.99955 13.65,5.99955 C13.8988,5.99955 14.1004,6.20122 14.1004,6.45 " fill-rule="nonzero" vector-effect="none"/>
            <path d="M11.508,8.25685 L13.308,6.15685 L13.65,5.75784 L13.992,6.15685 L15.792,8.25685 C15.9539,8.44574 15.932,8.73011 15.7431,8.89201 C15.5543,9.05391 15.2699,9.03203 15.108,8.84315 L13.308,6.74315 L13.65,6.45 L13.992,6.74315 L12.192,8.84315 C12.0301,9.03203 11.7457,9.05391 11.5569,8.89201 C11.368,8.73011 11.3461,8.44574 11.508,8.25685 " fill-rule="nonzero" vector-effect="none"/>
        </g>
    </g>
</svg>
