<?xml version='1.0' encoding='UTF-8' standalone='no'?>
<svg baseProfile="tiny" height="8.46667mm" version="1.2" viewBox="0 0 96 96" width="8.46667mm" xmlns="http://www.w3.org/2000/svg" xmlns:xlink="http://www.w3.org/1999/xlink">
    <style id="current-color-scheme" type="text/css">.ColorScheme-Text {color:#e93d58;}</style>
    <title>Qt SVG Document</title>
    <desc>Auto-generated by Klassy window decoration</desc>
    <defs/>
    <g fill="none" fill-rule="evenodd" stroke="black" stroke-linecap="square" stroke-linejoin="bevel" stroke-width="1">
        <g class="ColorScheme-Text" fill="currentColor" fill-opacity="1" font-family="Noto Sans" font-size="40" font-style="normal" font-weight="400" stroke="none" transform="matrix(5.33333,0,0,5.33333,0,0)">
            <path d="M3.9375,4.12453 L14.0625,4.12453 C14.3216,4.12453 14.5317,4.33461 14.5317,4.59375 C14.5317,4.85289 14.3216,5.06297 14.0625,5.06297 L3.9375,5.06297 C3.67836,5.06297 3.46828,4.85289 3.46828,4.59375 C3.46828,4.33461 3.67836,4.12453 3.9375,4.12453 " fill-rule="nonzero" vector-effect="none"/>
            <path d="M4.33179,7.66821 L9.33179,12.6682 L9,13 L8.66821,12.6682 L13.6682,7.66821 C13.8515,7.48497 14.1485,7.48497 14.3318,7.66821 C14.515,7.85145 14.515,8.14855 14.3318,8.33179 L9.33179,13.3318 L9,13.6636 L8.66821,13.3318 L3.66821,8.33179 C3.48497,8.14855 3.48497,7.85145 3.66821,7.66821 C3.85145,7.48497 4.14855,7.48497 4.33179,7.66821 " fill-rule="nonzero" vector-effect="none"/>
        </g>
    </g>
</svg>
