<?xml version='1.0' encoding='UTF-8' standalone='no'?>
<svg baseProfile="tiny" height="5.29167mm" version="1.2" viewBox="0 0 30 30" width="5.29167mm" xmlns="http://www.w3.org/2000/svg" xmlns:xlink="http://www.w3.org/1999/xlink">
    <style id="current-color-scheme" type="text/css">.ColorScheme-Text {color:#00ae49;}</style>
    <title>Qt SVG Document</title>
    <desc>Auto-generated by Klassy window decoration</desc>
    <defs/>
    <g fill="none" fill-rule="evenodd" stroke="black" stroke-linecap="square" stroke-linejoin="bevel" stroke-width="1">
        <g fill="#00ae49" fill-opacity="0.900008" font-family="Noto Sans" font-size="20" font-style="normal" font-weight="400" stroke="none" transform="matrix(1.66667,0,0,1.66667,7,11)">
            <path d="M0,-0.6006 L7.2,-0.6006 L7.8006,0 L7.8006,7.2 L7.2,7.8006 L0,7.8006 L-0.6006,7.2 L-0.6006,0 L0,-0.6006 M0.6006,0 L0.6006,7.2 L0,7.2 L0,6.5994 L7.2,6.5994 L7.2,7.2 L6.5994,7.2 L6.5994,0 L7.2,0 L7.2,0.6006 L0,0.6006 L0,0 L0.6006,0" fill-rule="nonzero" vector-effect="none"/>
        </g>
        <g fill="#00ae49" fill-opacity="0.900008" font-family="Noto Sans" font-size="20" font-style="normal" font-weight="400" stroke="none" transform="matrix(1.66667,0,0,1.66667,7,11)">
            <path d="M1.7994,-0.6006 L1.7994,-2.4 L2.4,-3.0006 L9.6,-3.0006 L10.2006,-2.4 L10.2006,4.8 L9.6,5.4006 L7.8006,5.4006 L7.8006,4.1994 L9.6,4.1994 L9.6,4.8 L8.9994,4.8 L8.9994,-2.4 L9.6,-2.4 L9.6,-1.7994 L2.4,-1.7994 L2.4,-2.4 L3.0006,-2.4 L3.0006,-0.6006 L1.7994,-0.6006" fill-rule="nonzero" vector-effect="none"/>
        </g>
    </g>
</svg>
