<?xml version='1.0' encoding='UTF-8' standalone='no'?>
<svg baseProfile="tiny" height="5.29167mm" version="1.2" viewBox="0 0 30 30" width="5.29167mm" xmlns="http://www.w3.org/2000/svg" xmlns:xlink="http://www.w3.org/1999/xlink">
    <style id="current-color-scheme" type="text/css">.ColorScheme-Text {color:#00ae49;}</style>
    <title>Qt SVG Document</title>
    <desc>Auto-generated by Klassy window decoration</desc>
    <defs/>
    <g fill="none" fill-rule="evenodd" stroke="black" stroke-linecap="square" stroke-linejoin="bevel" stroke-width="1">
        <g fill="#00ae49" fill-opacity="0.900008" font-family="Noto Sans" font-size="20" font-style="normal" font-weight="400" stroke="none" transform="matrix(1.66667,0,0,1.66667,0,0)">
            <path d="M3.5994,4.2012 C3.5994,3.95176 3.95176,3.5994 4.2012,3.5994 L13.7988,3.5994 C14.0482,3.5994 14.4006,3.95176 14.4006,4.2012 L14.4006,13.7988 C14.4006,14.0482 14.0482,14.4006 13.7988,14.4006 L4.2012,14.4006 C3.95176,14.4006 3.5994,14.0482 3.5994,13.7988 L3.5994,4.2012 M4.8006,4.2012 L4.8006,13.7988 C4.8006,13.5507 4.44931,13.1994 4.2012,13.1994 L13.7988,13.1994 C13.5507,13.1994 13.1994,13.5507 13.1994,13.7988 L13.1994,4.2012 C13.1994,4.44931 13.5507,4.8006 13.7988,4.8006 L4.2012,4.8006 C4.44931,4.8006 4.8006,4.44931 4.8006,4.2012 " fill-rule="nonzero" vector-effect="none"/>
        </g>
    </g>
</svg>
